<svg xmlns="http://www.w3.org/2000/svg" viewBox="0 0 126 62"><path d="M32.1495 46.1854C32.1495 54.3424 25.0064 60.955 16.1949 60.955C7.38336 60.955 0.240234 54.3424 0.240234 46.1854C0.240234 38.0284 7.38336 31.4158 16.1949 31.4158C25.0064 31.4158 32.1495 38.0284 32.1495 46.1854Z"></path><path d="M64.0587 14.9464C64.0587 23.1034 56.9156 29.716 48.1041 29.716C39.2926 29.716 32.1495 23.1034 32.1495 14.9464C32.1495 6.78934 39.2926 0.176758 48.1041 0.176758C56.9156 0.176758 64.0587 6.78934 64.0587 14.9464Z"></path><path d="M95.0294 47.0542C95.0294 55.2112 87.8863 61.8238 79.0748 61.8238C70.2633 61.8238 63.1202 55.2112 63.1202 47.0542C63.1202 38.8972 70.2633 32.2846 79.0748 32.2846C87.8863 32.2846 95.0294 38.8972 95.0294 47.0542Z"></path><path d="M126 17.515C126 25.672 118.857 32.2846 110.046 32.2846C101.234 32.2846 94.091 25.672 94.091 17.515C94.091 9.35796 101.234 2.74538 110.046 2.74538C118.857 2.74538 126 9.35796 126 17.515Z"></path><path d="M47.1656 32.2844C36.2789 32.2844 32.6187 43.2515 32.1495 47.4507L15.2972 31.85C19.8333 31.4156 31.7741 27.6798 32.1495 16.2116C58.0523 15.5166 64.2151 15.922 64.0587 16.2116C63.3079 28.3748 76.5314 31.9948 81.8496 32.2844L63.1202 47.4507C62.3381 43.2515 58.0523 32.2844 47.1656 32.2844Z"></path></svg>