<svg xmlns="http://www.w3.org/2000/svg" xmlns:xlink="http://www.w3.org/1999/xlink" id="Isolation_Mode" x="0px" y="0px" width="400px" height="131px" viewBox="0 0 400 131" xml:space="preserve"><path fill="#CC3366" d="M43.192,37.523c3.659,0,7.066,0.681,10.219,2.044c3.153,1.363,5.938,3.232,8.351,5.607 c2.414,2.375,4.302,5.139,5.665,8.292c1.363,3.153,2.044,6.56,2.044,10.22c0,3.581-0.681,6.969-2.044,10.161 s-3.251,5.996-5.665,8.409c-2.414,2.414-5.198,4.302-8.351,5.665c-3.153,1.362-6.56,2.044-10.219,2.044H27.424v21.023H17.029V63.687 c0-3.66,0.681-7.067,2.043-10.22c1.363-3.154,3.232-5.917,5.607-8.292s5.159-4.244,8.351-5.607S39.61,37.523,43.192,37.523 L43.192,37.523z M43.192,79.57c2.18,0,4.243-0.408,6.19-1.227c1.946-0.817,3.64-1.946,5.081-3.387 c1.44-1.44,2.569-3.134,3.386-5.081c0.818-1.947,1.227-4.01,1.227-6.19c0-2.18-0.409-4.225-1.227-6.132 c-0.817-1.908-1.946-3.583-3.386-5.023c-1.441-1.44-3.134-2.569-5.081-3.387c-1.947-0.818-4.011-1.227-6.19-1.227 c-2.18,0-4.225,0.409-6.132,1.227c-1.908,0.817-3.583,1.946-5.023,3.387c-1.44,1.44-2.569,3.115-3.387,5.023 c-0.818,1.907-1.227,3.952-1.227,6.132V79.57H43.192L43.192,79.57z M116.044,71.278l7.358,7.357l-3.621,3.621 c-2.491,2.491-5.333,4.399-8.526,5.724c-3.193,1.323-6.541,1.985-10.044,1.985s-6.853-0.662-10.044-1.985 c-3.193-1.324-6.035-3.232-8.527-5.724c-2.569-2.569-4.477-5.47-5.723-8.701c-1.245-3.231-1.868-6.521-1.868-9.869 c0-3.349,0.623-6.619,1.868-9.812c1.246-3.192,3.154-6.074,5.723-8.643c2.569-2.57,5.47-4.497,8.702-5.782 c3.231-1.285,6.521-1.927,9.87-1.927s6.638,0.643,9.869,1.927c3.232,1.285,6.132,3.212,8.701,5.782l3.621,3.621L94.319,77.936 c2.959,1.479,6.094,1.966,9.403,1.46c3.31-0.507,6.21-2.005,8.702-4.497L116.044,71.278L116.044,71.278z M89.998,52.473 c-3.114,3.115-4.672,6.853-4.672,11.213c0,2.413,0.545,4.71,1.635,6.891c0.935-0.935,2.355-2.355,4.263-4.263 c1.908-1.908,3.932-3.933,6.074-6.074c2.141-2.142,4.204-4.186,6.19-6.132c1.986-1.947,3.523-3.465,4.614-4.555 c-2.958-1.479-6.093-1.986-9.403-1.519C95.39,48.502,92.49,49.981,89.998,52.473L89.998,52.473z M155.142,37.29 c3.659,0,7.066,0.681,10.22,2.043s5.918,3.231,8.292,5.607c2.375,2.375,4.245,5.139,5.607,8.292c1.362,3.153,2.044,6.56,2.044,10.22 v26.28h-26.163c-3.582,0-6.969-0.682-10.161-2.044s-5.996-3.251-8.409-5.665c-2.414-2.414-4.303-5.217-5.665-8.41 c-1.363-3.192-2.044-6.58-2.044-10.161c0-3.66,0.682-7.067,2.044-10.22c1.362-3.154,3.251-5.918,5.665-8.292 c2.413-2.375,5.217-4.244,8.409-5.607S151.56,37.29,155.142,37.29L155.142,37.29z M170.909,79.338V63.453 c0-2.18-0.408-4.225-1.227-6.132c-0.817-1.907-1.946-3.582-3.387-5.022c-1.44-1.44-3.114-2.569-5.022-3.387 c-1.907-0.817-3.952-1.227-6.132-1.227c-2.181,0-4.243,0.409-6.19,1.227c-1.946,0.817-3.64,1.947-5.081,3.387 c-1.439,1.441-2.569,3.115-3.387,5.022c-0.817,1.908-1.227,3.952-1.227,6.132s0.409,4.244,1.227,6.19 c0.817,1.947,1.947,3.641,3.387,5.081c1.441,1.44,3.135,2.569,5.081,3.388c1.947,0.816,4.01,1.227,6.19,1.227H170.909 L170.909,79.338z M217.949,37.29v10.395h-5.256c-2.181,0-4.225,0.409-6.132,1.227s-3.582,1.947-5.022,3.387 c-1.44,1.441-2.569,3.115-3.387,5.022c-0.817,1.908-1.228,3.952-1.228,6.132v26.28h-10.511v-26.28c0-3.66,0.681-7.067,2.044-10.22 c1.362-3.154,3.251-5.918,5.664-8.292c2.414-2.375,5.218-4.244,8.41-5.607s6.579-2.043,10.161-2.043H217.949L217.949,37.29z  M223.175,16.266h10.396v73.466h-10.396V16.266L223.175,16.266z"></path><path fill="#666666" d="M329.431,37.29v10.395h-5.256c-2.18,0-4.224,0.409-6.132,1.227c-1.907,0.817-3.581,1.947-5.022,3.387 c-1.439,1.441-2.569,3.115-3.387,5.022c-0.817,1.908-1.227,3.952-1.227,6.132v26.28h-10.512v-26.28c0-3.66,0.682-7.067,2.044-10.22 c1.362-3.154,3.251-5.918,5.665-8.292c2.414-2.375,5.217-4.244,8.409-5.607s6.58-2.043,10.161-2.043H329.431L329.431,37.29z  M342.249,44.999c2.569-2.57,5.47-4.497,8.701-5.782s6.521-1.927,9.869-1.927c3.35,0,6.639,0.642,9.87,1.927 s6.132,3.212,8.701,5.782l3.621,3.62l-7.241,7.358l-3.737-3.621c-1.558-1.557-3.31-2.726-5.257-3.503 c-1.946-0.779-3.932-1.168-5.957-1.168c-2.024,0-4.01,0.39-5.956,1.168c-1.946,0.778-3.699,1.947-5.257,3.503 c-1.557,1.479-2.725,3.192-3.503,5.14c-0.779,1.946-1.168,3.932-1.168,5.957c0,2.024,0.389,4.01,1.168,5.957 c0.778,1.946,1.946,3.699,3.503,5.256c3.115,3.114,6.854,4.673,11.213,4.673c2.104,0,4.128-0.391,6.074-1.169 c1.947-0.778,3.659-1.946,5.14-3.504l3.737-3.62l7.241,7.357l-3.621,3.621c-2.569,2.57-5.47,4.496-8.701,5.781 s-6.521,1.928-9.87,1.928c-3.348,0-6.638-0.643-9.869-1.928s-6.132-3.211-8.701-5.781c-2.57-2.569-4.478-5.451-5.724-8.643 c-1.245-3.193-1.868-6.482-1.868-9.87c0-3.387,0.623-6.677,1.868-9.869C337.771,50.449,339.679,47.568,342.249,44.999 L342.249,44.999z"></path><path fill="#CCCCCC" d="M283.996,57.265v18.794l-0.974-0.248c-9.243-3.844-20.708-8.657-24.395-10.083 c-1.559-0.523-1.704,0.332-1.587,1.442c0.378,3.044,0.757,6.089,1.135,9.132c-5.955-2.328-25.102-10.556-31.057-12.885 c-1.341-0.497-1.856,0.862-0.882,1.8c8.188,5.217,29.571,16.333,37.76,21.551c1.146,0.515,1.794,0.1,1.588-1.104 c-0.343-3.045-0.688-6.09-1.031-9.135c3.301,1.753,25.112,11.427,28.413,13.179c2.337,0.645,1.827-3.511,1.827-4.853V30.322 L283.996,57.265L283.996,57.265z"></path><path fill="#4D4D4D" d="M271.136,70.125l12.86-12.861l10.881-27.15l-35.271,35.272C261.932,66.305,266.253,68.094,271.136,70.125 L271.136,70.125z"></path><path fill="#4D4D4D" d="M256.606,68.385l-4.709,4.708c2.195,0.914,4.123,1.71,5.578,2.293L256.606,68.385L256.606,68.385z  M246.963,78.028l-11.745,11.745h16.269l5.907-5.907C254.277,82.082,250.661,80.073,246.963,78.028L246.963,78.028z"></path><path fill-rule="evenodd" clip-rule="evenodd" fill="#CC3366" d="M183.534,22.092c5.496,0,9.951,4.455,9.951,9.951 s-4.455,9.951-9.951,9.951s-9.951-4.455-9.951-9.951S178.038,22.092,183.534,22.092L183.534,22.092z"></path><path fill-rule="evenodd" clip-rule="evenodd" fill="#CC3366" d="M160.489,18.011c4.027,0,7.292,3.265,7.292,7.292 s-3.265,7.292-7.292,7.292s-7.293-3.265-7.293-7.292S156.462,18.011,160.489,18.011L160.489,18.011z"></path><path fill-rule="evenodd" clip-rule="evenodd" fill="#CC3366" d="M143.04,24.023c3.186,0,5.767,2.582,5.767,5.766 s-2.581,5.766-5.767,5.766c-3.185,0-5.766-2.582-5.766-5.766S139.855,24.023,143.04,24.023L143.04,24.023z"></path><path fill-rule="evenodd" clip-rule="evenodd" fill="#CC3366" d="M130.608,35.158c1.894,0,3.429,1.534,3.429,3.428 s-1.535,3.428-3.429,3.428c-1.893,0-3.428-1.535-3.428-3.428S128.716,35.158,130.608,35.158L130.608,35.158z"></path></svg>