<svg xmlns="http://www.w3.org/2000/svg" viewBox="0 0 48 49"><path d="M23.5049 1.78125C16.1576 1.78125 9.65825 5.4117 5.70272 10.9806C5.4179 11.3816 4.86193 11.4758 4.46088 11.1909C4.05987 10.9061 3.96569 10.3501 4.25056 9.94908C8.52582 3.93011 15.5564 0 23.5049 0C36.5397 0 47.1064 10.5668 47.1064 23.6016C47.1064 32.9918 41.6224 41.0997 33.6864 44.9C33.2428 45.1124 32.7109 44.9249 32.4985 44.4814C32.286 44.0378 32.4735 43.5057 32.9171 43.2933C40.258 39.778 45.3252 32.2806 45.3252 23.6016C45.3252 11.5505 35.5559 1.78125 23.5049 1.78125Z"></path><path fill-rule="evenodd" clip-rule="evenodd" d="M6.44278 38.0363C2.40861 32.7199 0.700967 27.507 0.183113 23.4143C-0.0775731 21.3538 -0.0378067 19.5683 0.163697 18.1892C0.264338 17.5007 0.407327 16.8993 0.581044 16.4088C0.746299 15.942 0.969223 15.4887 1.2788 15.1791C2.74045 13.7174 5.19159 13.1572 7.20827 12.994C8.24719 12.9099 10.0173 12.9141 11.1204 13.1743C11.4004 13.2402 11.7321 13.341 11.987 13.5161C12.6563 13.9758 13.1228 14.7943 13.4542 15.6216C13.7993 16.4831 14.0571 17.5067 14.2266 18.5456C14.5591 20.5834 14.5857 22.8986 14.109 24.3288C13.9149 24.9109 13.4262 25.4073 12.9919 25.7764C12.5246 26.1736 11.2601 26.9417 10.0987 27.6262C10.8148 29.3909 11.8085 31.3465 13.0544 32.8247C14.2382 34.235 16.1586 36.0706 17.6674 36.8839C18.5682 35.7649 19.5421 34.7671 20.0187 34.381C20.4615 34.0222 21.0395 33.6333 21.6474 33.5498C23.1409 33.3448 25.4115 33.7976 27.3532 34.4999C28.3431 34.8579 29.3017 35.2999 30.0849 35.7979C30.8368 36.276 31.5554 36.8854 31.8838 37.6279C32.009 37.9107 32.0469 38.2552 32.0601 38.5426C32.0748 38.8601 32.0629 39.2314 32.028 39.6327C31.958 40.4366 31.7906 41.4154 31.5165 42.4209C30.9844 44.3731 29.9821 46.6789 28.2762 47.8461C27.9149 48.0937 27.4281 48.2291 26.939 48.3057C26.4248 48.3858 25.8074 48.4157 25.1121 48.3876C23.7195 48.3315 21.9573 48.0416 19.9801 47.4057C16.0198 46.1321 11.2601 43.641 6.44278 38.0363ZM2.53833 16.4386C3.5259 15.4511 5.41656 14.9261 7.35202 14.7695C7.43703 14.7625 7.52966 14.7545 7.62838 14.7459C8.61795 14.6595 10.223 14.5195 10.9856 14.9893C11.2064 15.1452 11.5067 15.5501 11.8007 16.284C12.0841 16.9913 12.3134 17.8813 12.4686 18.8324C12.7855 20.7749 12.7588 22.7464 12.4191 23.7655C12.3905 23.8513 12.2391 24.0785 11.8384 24.4192C11.4708 24.7316 9.70153 25.8657 8.65434 26.3585C8.27555 26.5367 8.07205 26.9547 8.16534 27.3628C9.03357 29.8362 10.2497 32.219 11.5486 33.7998C12.9049 35.4596 15.2679 37.4065 17.5701 38.8326C17.954 38.9995 18.4031 38.8755 18.6481 38.536C19.4984 37.3579 20.4881 36.2932 21.1401 35.7649C21.5488 35.4338 21.8 35.3269 21.8896 35.3146C22.9539 35.1685 24.8965 35.5055 26.7473 36.1749C27.6536 36.5027 28.486 36.8921 29.1291 37.301C29.7962 37.7252 30.212 38.0733 30.2513 38.3406C30.4475 39.6746 30.1382 40.7572 29.8927 41.6157C29.8595 41.7324 29.8274 41.8442 29.7979 41.9524C29.2873 43.8258 28.4229 45.5875 27.2703 46.3761C27.2365 46.3993 27.0626 46.4835 26.664 46.5458C26.2903 46.6041 25.7926 46.6322 25.1838 46.6077C23.9678 46.5587 22.365 46.3018 20.5254 45.7099C16.8915 44.541 12.5961 42.3051 7.95938 37.0876C4.0515 31.9857 2.43466 27.019 1.95029 23.1908C1.70773 21.2737 1.7503 19.6509 1.92624 18.4468C2.01437 17.8438 2.13389 17.3599 2.26009 17.0034C2.3948 16.623 2.50934 16.4677 2.53833 16.4386Z"></path><path fill-rule="evenodd" clip-rule="evenodd" d="M30.8902 15.5407C31.055 15.2909 31.3343 15.1406 31.6336 15.1406H33.0109C33.5028 15.1406 33.9015 15.5394 33.9015 16.0312V22.6367H34.1915C34.6834 22.6367 35.0821 23.0354 35.0821 23.5273C35.0821 24.0192 34.6834 24.4179 34.1915 24.4179H33.9015V27.1641C33.9015 27.656 33.5028 28.0547 33.0109 28.0547C32.519 28.0547 32.1203 27.656 32.1203 27.1641V24.4179H27.3047C26.8128 24.4179 26.4141 24.0192 26.4141 23.5273V22.5917C26.4141 22.4173 26.4653 22.2468 26.5613 22.1012L30.8902 15.5407ZM32.1203 22.6367V16.9219H32.1129L28.3421 22.6367H32.1203Z"></path><path d="M21.6373 17.0017C20.4823 16.8076 18.9403 17.3829 18.0356 18.8786C17.7811 19.2995 17.2335 19.4343 16.8126 19.1797C16.3917 18.9251 16.2569 18.3775 16.5115 17.9567C17.7712 15.8741 20.0144 14.9227 21.9326 15.2451C22.9032 15.4082 23.8085 15.9052 24.4083 16.7681C25.009 17.6323 25.238 18.7679 25.0413 20.09C24.8438 21.4173 24.0158 22.6087 22.8161 23.8054C22.0476 24.5719 21.0816 25.3838 19.9358 26.2743H25.341C25.8328 26.2743 26.2316 26.6731 26.2316 27.1649C26.2316 27.6568 25.8328 28.0556 25.341 28.0556H17.2735C16.8888 28.0556 16.5476 27.8085 16.4274 27.443C16.3073 27.0775 16.4355 26.6762 16.7453 26.4479C18.8629 24.8876 20.4568 23.6428 21.5581 22.5443C22.6666 21.4385 23.1668 20.5855 23.2794 19.8279C23.4245 18.8526 23.234 18.1996 22.9457 17.7848C22.6566 17.3689 22.2032 17.0968 21.6373 17.0017Z"></path></svg>