<svg xmlns="http://www.w3.org/2000/svg" viewBox="0 0 13 15"><path fill-rule="evenodd" clip-rule="evenodd" d="M6.5 1.16505C4.78666 1.16505 3.39773 2.53428 3.39773 4.2233C3.39773 5.91233 4.78666 7.28155 6.5 7.28155C8.21334 7.28155 9.60227 5.91233 9.60227 4.2233C9.60227 2.53428 8.21334 1.16505 6.5 1.16505ZM2.21591 4.2233C2.21591 1.89084 4.13396 0 6.5 0C8.86604 0 10.7841 1.89084 10.7841 4.2233C10.7841 6.55577 8.86604 8.4466 6.5 8.4466C4.13396 8.4466 2.21591 6.55577 2.21591 4.2233Z"></path><path fill-rule="evenodd" clip-rule="evenodd" d="M6.49942 8.00971L6.5006 8.00971C10.0286 8.01316 12.9959 10.5629 13 13.8342C13 14.5339 12.3814 15 11.7525 15H1.24747C0.618609 15 0 14.5346 0 13.835C0.004105 10.5636 2.97148 8.01319 6.49942 8.00971ZM1.18189 13.8166C1.19234 13.8243 1.21403 13.835 1.24747 13.835H11.7525C11.786 13.835 11.8077 13.8243 11.8181 13.8166C11.8033 11.3081 9.48824 9.17797 6.50002 9.17476C3.5118 9.17799 1.19671 11.3081 1.18189 13.8166Z"></path></svg>