<svg xmlns="http://www.w3.org/2000/svg" id="Layer_1" viewBox="0 0 512 512"><path d="m502.78 187.75-12.15-3.96c-2.08-7.42-5.02-14.51-8.74-21.09l5.78-11.38c2.66-5.18 1.68-11.42-2.43-15.53l-12.87-12.87c-4.06-4.06-10.26-5.07-15.44-2.51-.03.02-.06.03-.1.05l-11.39 5.81c-6.65-3.76-13.73-6.7-21.08-8.74l-3.96-12.15c-1.8-5.53-6.91-9.24-12.72-9.24h-18.2c-5.86 0-10.97 3.75-12.69 9.24l-3.96 12.15c-7.33 2.03-14.42 4.97-21.11 8.74l-11.45-5.84c-5.18-2.59-11.4-1.59-15.49 2.5l-8.72 8.74c-5.17-4.38-10.73-8.4-16.63-12.07v-85.86c0-8.07-6.57-14.64-14.64-14.64h-118.66c-3.93 0-7.49 1.46-10.37 4.27l-49.12 49.15c-2.81 2.81-4.3 6.4-4.3 10.37v43.3c-38.8 25.25-62.22 62.57-66.1 105.54-.51 5.62-.48 10.54-.46 15.3.08 16.78.14 31.26-27.95 67.32-.18.23-.34.47-.49.71-7.63 12.34-9.29 22.12-5.09 29.9 4.11 7.62 12.49 10.54 20.63 11.73-.56 2.86-.32 5.31.06 7.05.89 4.09 3.19 7.64 6.12 10.48-2.27 3.15-3.45 6.79-3.33 10.66.19 6.45 3.92 12.45 9.96 16.59-6.1 17.31-5.44 30.21 1.97 39.3 10.67 13.08 32.74 15.6 73.18 8.14l6.44 26.54c2.47 10.27 11.58 17.45 22.16 17.45h153.92c7.73 0 14.63-3.69 18.95-10.12 4.32-6.44 5.09-14.25 2.11-21.41-27.57-66.72-9.21-92.31 14.04-124.71 8.87-12.36 18.5-25.79 25.81-42.46 5.91 3.1 12.13 5.58 18.6 7.4l3.93 12.09c1.76 5.57 6.87 9.3 12.71 9.3h18.2c5.79 0 10.89-3.7 12.72-9.25l3.95-12.15c7.39-2.07 14.48-5.02 21.1-8.77l11.4 5.83c5.18 2.62 11.42 1.63 15.51-2.47l12.88-12.85c4.11-4.12 5.09-10.37 2.44-15.52l-5.79-11.4c3.73-6.61 6.66-13.7 8.74-21.11l12.06-3.93c5.58-1.75 9.33-6.87 9.33-12.75v-18.17c-.03-5.79-3.74-10.9-9.27-12.7zm-347.41-141.34v25.72h-25.7zm-37.02 41.74h45.03c4.42 0 8.01-3.58 8.01-8.01v-45.03h112.05v219.09h-165.09zm229.7 171.8c-5.2 29.18-19.13 48.6-32.61 67.37-12.17 16.95-23.66 32.96-28.49 54.76-5.39 24.31-1.37 51.45 12.67 85.42.93 2.23.72 4.37-.62 6.35-1.35 2.01-3.25 3.03-5.65 3.03h-153.93c-3.19 0-5.84-2.08-6.59-5.19l-8.25-33.99c-1.02-4.18-5.16-6.82-9.38-5.96-36.58 7.43-58.5 7.06-65.16-1.1-5.24-6.43-1.22-19.8 3.08-29.89.87-2.05.85-4.37-.06-6.4s-2.62-3.6-4.73-4.32c-4.45-1.52-6.59-4.26-6.63-5.63-.02-.84 1.33-2.31 4.36-3.55 3.16-1.29 5.15-4.43 4.97-7.84-.18-3.4-2.5-6.32-5.77-7.27-2.98-.86-6.3-3.54-6.71-5.42-.23-1.03.96-2.82 3.11-4.67 2.5-2.16 3.42-5.63 2.32-8.75-1.11-3.11-4.01-5.23-7.32-5.32l-.74-.02c-4.35-.12-17.6-.49-19.61-4.22-.84-1.55-.17-6.02 4.4-13.52 31.22-40.18 31.15-58.01 31.06-76.88-.02-4.39-.04-8.92.4-13.79 3.13-34.63 20.79-65.21 50.15-87.41v109.79c0 8.09 6.58 14.67 14.67 14.67h167.81c8.07 0 14.64-6.58 14.64-14.67v-116.6c24.13 17.9 40.35 43.65 47.21 75.3 3.84 17.52 4.21 29.91 1.4 45.72zm14.26-49.13c-1.79-8.24-4.15-16.13-7.06-23.64 8.34-16.13 25.01-26.38 43.34-26.38 26.89 0 48.77 21.88 48.77 48.77s-21.88 48.77-48.77 48.77c-12.31 0-23.83-4.5-32.82-12.73.5-11.02-.63-21.81-3.46-34.79zm133.7 5.9-11.73 3.82c-4.38 1.46-7.57 4.85-8.75 9.29-1.85 6.99-4.61 13.65-8.15 19.72-2.35 3.93-2.5 8.74-.4 12.86l5.58 10.99-10.14 10.12-10.99-5.62c-4.13-2.06-8.78-1.93-12.79.4-6.14 3.6-12.76 6.36-19.69 8.19-4.47 1.13-7.97 4.43-9.36 8.8l-3.8 11.7h-14.33l-3.82-11.76c-1.46-4.37-4.97-7.64-9.3-8.73-6.41-1.69-12.59-4.2-18.43-7.46 1.45-4.73 2.69-9.7 3.68-14.96 10.33 6.69 22.37 10.28 35.03 10.28 35.72 0 64.79-29.06 64.79-64.79 0-35.72-29.06-64.79-64.79-64.79-20.37 0-39.21 9.55-51.3 25.22-5.45-9.96-12-19.08-19.62-27.27l7.12-7.13 10.96 5.59c4.06 2.06 8.83 1.93 12.8-.36 6.23-3.64 12.88-6.39 19.79-8.19 4.44-1.18 7.82-4.37 9.3-8.8l3.8-11.68h14.33l3.78 11.62c1.39 4.38 4.89 7.7 9.35 8.87 6.91 1.8 13.54 4.55 19.75 8.2 3.94 2.28 8.72 2.41 12.78.35l10.96-5.59 10.14 10.14-5.59 11.02c-2.08 4.15-1.93 8.82.4 12.79 3.57 6.09 6.33 12.74 8.18 19.75 1.19 4.47 4.51 7.96 8.8 9.3l11.68 3.8v14.31zm-322.07-59.81c3.13 3.13 3.13 8.2 0 11.32l-17.18 17.18c-1.56 1.56-3.61 2.35-5.66 2.35s-4.09-.78-5.65-2.34l-10.75-10.72c-3.13-3.12-3.14-8.19-.02-11.33 3.12-3.13 8.19-3.14 11.32-.01l5.08 5.07 11.52-11.52c3.15-3.13 8.22-3.13 11.34 0zm0-51.34c3.13 3.13 3.13 8.2 0 11.32l-17.18 17.18c-1.56 1.56-3.61 2.35-5.66 2.35s-4.09-.78-5.65-2.34l-10.74-10.71c-3.13-3.12-3.14-8.19-.02-11.33 3.12-3.13 8.19-3.14 11.32-.01l5.08 5.07 11.52-11.52c3.14-3.13 8.21-3.14 11.33-.01zm0 102.67c3.13 3.12 3.13 8.2.01 11.33l-17.18 17.21c-1.5 1.5-3.54 2.35-5.66 2.35-2.12 0-4.16-.84-5.66-2.35l-10.74-10.74c-3.13-3.13-3.13-8.2 0-11.32 3.13-3.13 8.2-3.13 11.33 0l5.08 5.08 11.52-11.54c3.1-3.14 8.17-3.15 11.3-.02zm95.49-88.42c0 4.42-3.58 8.01-8.01 8.01h-61.82c-4.42 0-8.01-3.58-8.01-8.01s3.58-8.01 8.01-8.01h61.82c4.43.01 8.01 3.59 8.01 8.01zm0 51.34c0 4.42-3.58 8.01-8.01 8.01h-61.82c-4.42 0-8.01-3.58-8.01-8.01s3.58-8.01 8.01-8.01h61.82c4.43 0 8.01 3.59 8.01 8.01zm0 51.36c0 4.42-3.58 8.01-8.01 8.01h-61.82c-4.42 0-8.01-3.58-8.01-8.01s3.58-8.01 8.01-8.01h61.82c4.43.01 8.01 3.59 8.01 8.01z"></path></svg>