<svg xmlns="http://www.w3.org/2000/svg" id="Layer_1" height="512" viewBox="0 0 66 66" width="512"><g style="fill:white;stroke:#000;stroke-width:2;stroke-linecap:round;stroke-linejoin:round;stroke-miterlimit:10"><g><g><path d="m17.3 31.8s.1.1.2.1"></path><path d="m17 42.3c.3-.2.6-.4.8-.6"></path><path d="m16.9 22.2c1-.9 2.3-1.5 3.8-1.5.3 0 .8.1.8.1 1.6.2 3.1 1.2 4 2.6"></path><path d="m17.3 31.8s.1.1.2.1c.9.6 2 1 3.2 1 .4 0 .8-.1 1.2-.1 1.3-.3 2.4-1 3.3-2"></path><path d="m25.3 43.7c-.9-1.4-2.4-2.4-4-2.6-.3 0-.5-.1-.8-.1-1 0-1.9.3-2.7.7-.3.2-.5.3-.8.5"></path><path d="m17 52c1 .8 2.2 1.2 3.5 1.2.4 0 .8-.1 1.2-.1 1.3-.3 2.4-1 3.3-2"></path><path d="m17.3 31.8s.1.1.2.1"></path><g><path d="m48.2 42.4c.1.1.1.1.2.1"></path><path d="m48.7 32c0 .1 0 .1 0 0-.3.2-.6.4-.8.6"></path><path d="m40.2 50.9c.9 1.4 2.4 2.4 4 2.6 0 0 .5.1.8.1 1.4 0 2.7-.5 3.8-1.5"></path><path d="m48.4 42.5s-.1-.1-.2-.1c-.9-.6-2-1-3.2-1-.4 0-.8.1-1.2.1-1.3.3-2.4 1-3.3 2"></path><path d="m40.3 30.6c.9 1.4 2.4 2.4 4 2.6.3 0 .5.1.8.1 1 0 1.9-.3 2.7-.7.3-.2.5-.3.8-.5"></path><path d="m40.7 23.3c.9-1 2-1.7 3.3-2 .4-.1.8-.1 1.2-.1 1.3 0 2.6.5 3.5 1.2"></path><path d="m48.2 42.4c.1.1.1.1.2.1"></path></g></g><path d="m51.5 31.3c-.4 0-.8.1-1.2.1-.6.1-1.1.3-1.6.6 1.4-1.1 2.3-2.9 2.3-4.8 0-1-.2-1.9-.6-2.7-.4-.8-.9-1.6-1.7-2.1.3-.7.4-1.4.4-2.2 0-3.1-2.4-5.6-5.4-5.6-1.2 0-2.2.4-3.1 1-.4-2.6-2.6-4.6-5.3-4.6v52.4c2.6 0 4.8-2 5.3-4.6.9.6 2 1 3.1 1 2.9 0 5.4-2.5 5.4-5.6 0-.7-.1-1.4-.3-2 .7-.6 1.2-1.4 1.6-2.3.3-.7.4-1.5.4-2.4 0-2-1-3.8-2.4-5 .7.5 1.4.8 2.3.9.3.1.5.1.8.1 3.2 0 5.8-2.7 5.8-6.1-.1-3.4-2.6-6.1-5.8-6.1zm-26.4-15.7c-.9-.6-2-1-3.1-1-3 0-5.4 2.5-5.4 5.6 0 .7.1 1.4.3 2-.7.6-1.2 1.4-1.6 2.2-.3.7-.4 1.5-.4 2.4 0 2 1 3.9 2.4 5-.7-.4-1.4-.7-2.3-.9-.3-.1-.5-.1-.8-.1-3.2 0-5.8 2.7-5.8 6.1 0 3.3 2.6 6.1 5.8 6.1.4 0 .8-.1 1.2-.1.6-.1 1.1-.3 1.6-.6-1.4 1.1-2.3 2.8-2.3 4.8 0 1 .2 1.9.6 2.7.4.8.9 1.6 1.7 2.1-.3.7-.4 1.4-.4 2.2 0 3.1 2.4 5.6 5.4 5.6 1.2 0 2.2-.4 3.1-1 .4 2.6 2.6 4.6 5.3 4.6v-52.3c-2.7 0-4.9 2-5.3 4.6z"></path></g><g><ellipse cx="57" cy="9.8" rx="7" ry="7.1"></ellipse><path d="m60.7 7.7-5 5-2.5-2.5"></path></g><g><ellipse cx="9" cy="9.7" rx="7" ry="7.1"></ellipse><g><path d="m12 6.8-5.9 5.8"></path><path d="m6.1 6.8 5.9 5.8"></path></g></g></g></svg>
