<svg xmlns="http://www.w3.org/2000/svg" height="512" viewBox="0 0 32 32" width="512"><g id="filled"><path d="m23 21.5a.49511.49511 0 0 0 -.5.5v2.5h-20v-16h12.5a.5.5 0 0 0 0-1h-13a.49514.49514 0 0 0 -.5.5v17a.49518.49518 0 0 0 .5.5h7.81l-.67 2h-.64a.5.5 0 0 0 0 1h8a.5.5 0 0 0 0-1h-.64l-.67-2h7.81a.49514.49514 0 0 0 .5-.5v-3a.49511.49511 0 0 0 -.5-.5z"></path><path d="m7 10.5a.49971.49971 0 0 0 -.5.5v.5h-1.5a.5.5 0 0 0 0 1h1.5v.5a.5.5 0 0 0 1 0v-.5h6.5a.5.5 0 0 0 0-1h-6.5v-.5a.49971.49971 0 0 0 -.5-.5z"></path><path d="m5 16.5h5.5v.5a.5.5 0 0 0 1 0v-.5h2.5a.5.5 0 0 0 0-1h-2.5v-.5a.5.5 0 0 0 -1 0v.5h-5.5a.5.5 0 0 0 0 1z"></path><path d="m9 21.5a.49971.49971 0 0 0 .5-.5v-.5h6.5a.5.5 0 0 0 0-1h-6.5v-.5a.5.5 0 0 0 -1 0v.5h-3.5a.5.5 0 0 0 0 1h3.5v.5a.49971.49971 0 0 0 .5.5z"></path><path d="m20.172 15.62579-.01.00995a2.49118 2.49118 0 1 0 2.34 4.34v-15.98a2.50719 2.50719 0 0 0 -3.97 1.66h-.01a2.45313 2.45313 0 0 0 .09 1.04.53311.53311 0 0 1 -.44.79c-.58631-.02655-.58167-.78851-.66-1.22a2.96853 2.96853 0 0 0 -.87 3.12 5.41762 5.41762 0 0 1 1.19-.62.50478.50478 0 0 1 .34.95 3.91167 3.91167 0 0 0 -1.06.57 4.0107 4.0107 0 0 0 .53 6.73 3.48234 3.48234 0 0 1 2.19-2.33.49979.49979 0 0 1 .34.94z"></path><path d="m28.892 10.28577a3.91167 3.91167 0 0 0 -1.06-.57.50479.50479 0 0 1 .34-.95 5.41741 5.41741 0 0 1 1.18994.62 2.96853 2.96853 0 0 0 -.87-3.12c-.0783.43152-.07367 1.19348-.65991 1.22a.53313.53313 0 0 1 -.44006-.79 2.45217 2.45217 0 0 0 .09-1.04h-.01a2.50717 2.50717 0 0 0 -3.97-1.66v15.98a2.49118 2.49118 0 1 0 2.34-4.34l-.01-.00995a.49979.49979 0 0 1 .34-.94 3.48221 3.48221 0 0 1 2.19 2.33 4.01068 4.01068 0 0 0 .53003-6.73005z"></path></g></svg>