<svg viewBox="0 0 305 352" fill="none" xmlns="http://www.w3.org/2000/svg">
<path d="M285.93 21.9037C274.575 31.9792 263.229 42.0581 251.874 52.1336C247.621 55.9098 243.377 59.6894 239.102 63.4412C238.443 64.0208 237.708 64.5484 236.938 64.9822C224.192 72.1735 211.276 79.0768 197.969 85.2755C190.505 88.7531 182.978 92.0954 175.476 95.4898C175.106 95.6564 174.715 95.7813 174.332 95.9202C174.715 95.521 175.063 95.0872 175.489 94.7332C187.171 84.9284 198.888 75.1618 210.545 65.3293C219.727 57.5826 228.845 49.7666 237.975 41.9714C245.639 35.4291 253.294 28.8729 260.945 22.3167C267.643 16.5761 274.337 10.8252 281.031 5.08113C282.537 3.79002 284.055 2.50933 285.552 1.20781C285.981 0.832972 286.356 0.402603 286.755 0H285.798C285.326 0.478959 284.888 0.989154 284.378 1.42646C278.356 6.59783 272.326 11.7553 266.295 16.9163C256.458 25.3397 246.63 33.7701 236.785 42.1831C228.606 49.1731 220.445 56.177 212.216 63.108C199.151 74.1137 186.036 85.0603 172.954 96.0416C171.942 96.892 170.828 97.5306 169.603 98.0686C152.358 105.638 134.589 111.903 116.553 117.501C116.2 117.612 115.838 117.699 115.481 117.793C115.443 117.803 115.388 117.758 115.294 117.72C115.422 117.3 115.834 117.14 116.14 116.908C123.464 111.32 130.808 105.756 138.123 100.154C151.503 89.9054 164.712 79.4516 177.823 68.8937C191.709 57.7111 205.539 46.4659 219.344 35.1931C229.993 26.4989 240.561 17.718 251.163 8.9718C254.306 6.37918 257.453 3.78655 260.588 1.18351C261.026 0.819089 261.417 0.399132 261.83 0.00347072H260.873C260.43 0.43731 260.018 0.905857 259.537 1.30152C249.22 9.81866 238.911 18.3497 228.56 26.8321C214.364 38.459 200.193 50.1102 185.904 61.6295C173.286 71.8056 160.582 81.8881 147.803 91.8768C137.043 100.286 126.118 108.502 115.264 116.803C114.89 117.088 114.499 117.355 114.137 117.657C113.278 118.372 112.292 118.813 111.211 119.15C97.428 123.433 83.4234 126.896 69.1935 129.534C66.1697 130.096 63.1502 130.662 59.9436 131.262C60.203 130.721 60.5985 130.572 60.909 130.364C66.7183 126.49 72.5702 122.672 78.3328 118.744C93.5494 108.366 108.583 97.7527 123.43 86.8894C142.121 73.2113 160.57 59.2347 178.874 45.0881C189.514 36.8625 200.083 28.5432 210.694 20.2794C211.348 19.7692 212.063 19.3076 212.799 18.9119C223.592 13.1679 234.284 7.25727 244.899 1.21128C245.477 0.881562 246.179 0.666377 246.494 0.00347072H244.895C244.614 0.229067 244.359 0.496312 244.044 0.669848C235.003 5.69197 225.953 10.7002 216.903 15.7119C216.779 15.7813 216.639 15.823 216.507 15.8716C216.907 15.4863 217.277 15.0733 217.711 14.7297C223.354 10.2525 229.01 5.78568 234.654 1.30846C235.139 0.926681 235.721 0.621258 235.951 0.00347072H235.313C232.166 2.5128 229.023 5.0256 225.872 7.52798C222.019 10.5822 218.144 13.6052 214.308 16.6768C213.075 17.6659 211.748 18.4816 210.341 19.2174C200.767 24.2187 191.041 28.9354 181.162 33.3675C169.267 38.7054 157.308 43.9219 145.14 48.6733C144.473 48.9336 143.822 49.2668 143.001 49.1974C143.354 48.9163 143.699 48.6213 144.065 48.354C151.715 42.7592 159.409 37.213 167.017 31.5696C179.252 22.4937 191.437 13.3553 203.642 4.24121C205.025 3.20694 206.411 2.17267 207.78 1.12104C208.18 0.812147 208.703 0.57961 208.793 0.00347072H208.155C207.721 0.374837 207.304 0.770499 206.845 1.1141C194.516 10.3393 182.217 19.5991 169.841 28.7688C160.247 35.8803 150.554 42.8703 140.909 49.9193C140.139 50.4816 139.306 50.9015 138.404 51.2347C128.065 55.0317 117.569 58.3948 107.022 61.6226C98.8102 64.1354 90.5555 66.5163 82.1901 68.5223C81.1184 68.7792 80.0425 69.0221 78.7326 69.3241C79.1876 68.6993 79.6767 68.4946 80.0977 68.2239C85.2182 64.9232 90.3513 61.6399 95.4717 58.3358C106.24 51.3839 116.842 44.2065 127.436 37.0152C144.545 25.4022 161.425 13.4907 178.24 1.49935C178.874 1.04816 179.44 0.506725 180.035 0.00694143H179.078C178.563 0.440781 178.083 0.91974 177.534 1.30846C167.561 8.36095 157.601 15.4239 147.599 22.4347C134.419 31.6738 121.108 40.7358 107.669 49.6243C97.7767 56.1666 87.7656 62.5423 77.8182 69.0082C76.9209 69.5913 75.9683 69.9731 74.9136 70.2022C67.4924 71.8091 60.0329 73.2252 52.5394 74.4885C47.6699 75.3111 42.7877 76.0885 37.9012 76.8104C35.0093 77.2373 32.1003 77.5497 29.1957 77.8655C26.3463 78.1744 23.4884 78.4278 20.5879 78.7089C20.5284 78.2508 20.9367 78.2265 21.1451 78.1119C24.6621 76.1996 28.2047 74.3323 31.7091 72.4026C42.5921 66.4017 53.3815 60.2551 64.0433 53.9072C71.9919 49.1731 79.8809 44.3384 87.7698 39.5106C99.6522 32.243 111.36 24.7254 123.009 17.1141C131.051 11.8594 139.046 6.5423 147.054 1.23905C147.56 0.902386 148.211 0.67679 148.402 0.0104121H147.764C146.08 1.16963 144.413 2.35662 142.704 3.48113C134.326 8.99263 125.943 14.4972 117.544 19.9809C100.392 31.1774 82.9854 42.0095 65.3447 52.4876C50.464 61.3241 35.4388 69.9384 20.0989 78.0356C19.193 78.5145 18.2914 78.872 17.2495 78.9033C16.6115 78.9241 15.9779 79.0178 15.3399 79.0456C12.044 79.1948 8.74806 79.3718 5.44787 79.4655C3.63617 79.5176 1.82021 79.5731 0.00850565 79.6252V80.5484C1.52251 80.5033 3.03652 80.4512 4.55053 80.3853C7.68486 80.2464 10.8192 80.0555 13.9578 79.8993C14.6212 79.8646 15.2974 79.7605 16.2033 79.9584C15.7652 80.2429 15.5313 80.42 15.2719 80.5553C10.211 83.2139 5.12466 85.8239 0.00850565 88.3783V88.9649C5.07362 86.4035 10.1175 83.797 15.1783 81.2217C15.6461 80.9822 16.1267 80.7566 16.5775 80.4859C17.6875 79.8195 18.8868 79.5731 20.2009 79.4898C23.1184 79.3128 26.0316 79.0143 28.9362 78.7089C31.6836 78.4174 34.4309 78.0946 37.1697 77.7128C40.9079 77.1922 44.6462 76.682 48.3631 76.033C55.4271 74.7974 62.474 73.4716 69.5252 72.1735C70.9244 71.9167 72.3151 71.6043 73.7908 71.4829C73.374 71.7675 72.9658 72.0729 72.5362 72.3367C64.4558 77.2581 56.384 82.1935 48.2866 87.0907C34.1545 95.6321 19.6693 103.604 5.06512 111.375C3.38525 112.267 1.69688 113.149 0.00850565 114.023V114.631C16.7902 105.933 33.3209 96.8087 49.4604 87.0525C58.0086 81.8846 66.5185 76.6508 75.0369 71.4377C75.6706 71.0525 76.3127 70.7401 77.057 70.5735C90.5002 67.5852 103.654 63.6633 116.727 59.4707C122.681 57.5618 128.588 55.521 134.517 53.5427C135.049 53.3657 135.559 53.0915 136.452 53.0603C135.942 53.4455 135.669 53.6677 135.38 53.8725C123.294 62.4798 111.19 71.056 98.8825 79.3753C86.1878 87.9584 73.4463 96.4755 60.4497 104.639C46.7003 113.277 32.8658 121.787 18.6657 129.742C14.8551 131.877 11.0318 133.997 7.22981 136.153C6.37499 136.639 5.50741 136.854 4.51225 136.864C3.00675 136.882 1.5055 136.923 0 136.965V137.676C0.289192 137.676 0.578384 137.669 0.867577 137.666C1.90952 137.656 2.94721 137.617 4.04019 137.826C3.74249 138.006 3.4533 138.2 3.14284 138.364C2.09664 138.912 1.0462 139.464 0 140.016V140.699C1.52676 139.884 3.04928 139.065 4.56328 138.228C5.42235 137.753 6.30269 137.565 7.28509 137.527C11.9122 137.347 16.5392 137.17 21.1578 136.885C26.7843 136.538 32.4108 136.104 37.999 135.368C43.2683 134.678 48.5162 133.838 53.7727 133.067C54.3766 132.977 54.9848 132.911 55.593 132.835C55.6142 132.897 55.6397 132.96 55.661 133.022C55.3761 133.227 55.1039 133.446 54.8104 133.64C43.6765 140.887 32.381 147.894 20.8984 154.627C13.9748 158.685 7.05119 162.735 0 166.587V167.23C5.7158 164.095 11.3848 160.878 17.0071 157.588C30.2716 149.831 43.3831 141.845 56.1884 133.411C57.2686 132.699 58.4083 132.283 59.6927 132.061C76.0958 129.218 92.3416 125.737 108.23 120.861C108.877 120.663 109.536 120.496 110.289 120.475C110.106 120.628 109.931 120.791 109.74 120.934C94.2937 132.293 78.7836 143.577 62.8525 154.315C53.6281 160.531 44.4123 166.768 34.9625 172.672C23.5054 179.828 12.0185 186.933 0.208389 193.544C0.140343 193.583 0.0680452 193.621 0 193.659V194.263C4.3634 191.802 8.7268 189.348 13.0264 186.79C27.856 177.968 42.4475 168.802 56.7242 159.177C70.1291 150.143 83.3937 140.928 96.4286 131.412C101.294 127.858 106.159 124.307 111.003 120.722C112.07 119.931 113.193 119.341 114.49 118.941C123.506 116.158 132.484 113.267 141.364 110.108C149.997 107.037 158.503 103.674 166.915 100.082C167.387 99.8803 167.872 99.7033 168.467 99.6686C168.178 99.9323 167.902 100.207 167.604 100.453C153.952 111.747 140.126 122.836 126.181 133.796C109.238 147.12 92.0652 160.17 74.4968 172.734C64.0944 180.175 53.6281 187.533 42.9663 194.631C41.6224 195.523 40.2828 196.161 38.6029 196.259C35.6855 196.429 32.7765 196.779 29.8633 197.022C27.5328 197.216 25.1937 197.359 22.8589 197.522C22.4337 197.553 22.0084 197.581 21.5831 197.595C17.9682 197.737 14.349 197.831 10.7341 198.029C7.15751 198.226 3.57663 198.261 0 198.279V199.011C1.66286 199.004 3.32996 198.983 4.99282 198.945C9.2499 198.844 13.5027 198.629 17.7556 198.445C20.1499 198.341 22.54 198.24 24.9301 198.077C28.5365 197.827 32.1429 197.522 35.7493 197.237C36.804 197.154 37.8544 197.053 38.9091 196.963C38.9346 197.039 38.9601 197.116 38.9899 197.192C38.739 197.369 38.4881 197.55 38.2329 197.72C27.3967 204.755 16.5392 211.766 5.35006 218.28C3.56812 219.318 1.78619 220.349 0 221.38V222.084C13.1412 214.539 25.921 206.456 38.5901 198.206C38.9431 197.977 39.3046 197.761 39.6406 197.515C40.4656 196.908 41.3885 196.644 42.4347 196.522C45.7094 196.137 48.9756 195.696 52.2332 195.203C61.1131 193.853 69.9377 192.194 78.7368 190.431C82.2752 189.723 85.8008 188.928 89.3306 188.175C89.5815 188.123 89.8325 188.082 90.0834 188.033C90.1302 188.12 90.1727 188.207 90.2195 188.293C89.9515 188.526 89.6964 188.772 89.4157 188.984C75.1049 199.747 60.7134 210.409 45.8923 220.526C35.1028 227.891 24.2454 235.162 13.0987 242.023C8.75657 244.696 4.39317 247.33 0 249.923V250.638C7.7444 246.091 15.3995 241.413 22.9355 236.543C39.8745 225.593 56.4988 214.223 72.651 202.228C78.9155 197.574 85.1671 192.909 91.4103 188.227C92.095 187.714 92.818 187.339 93.66 187.141C105.602 184.309 117.293 180.685 128.929 176.878C133.713 175.313 138.468 173.671 143.235 172.064C143.729 171.898 144.226 171.738 144.724 171.575C144.992 172.036 144.575 172.161 144.383 172.328C142.049 174.338 139.71 176.344 137.354 178.325C123.762 189.758 110.038 201.045 96.0543 212.033C80.9611 223.896 65.6977 235.557 49.9409 246.615C43.3321 251.252 36.6509 255.799 30.0037 260.384C29.6167 260.651 29.2084 260.897 28.8299 261.175C28.26 261.591 27.6264 261.768 26.9076 261.8C21.9616 262.011 17.0198 262.23 12.078 262.487C8.05485 262.695 4.03168 262.764 0.00850565 262.771V263.448C2.44538 263.448 4.88225 263.438 7.31486 263.4C11.1467 263.341 14.9742 263.094 18.8017 262.917C21.0345 262.816 23.2672 262.688 25.5 262.574C25.7083 262.563 25.921 262.574 26.1549 262.574C26.2399 263.105 25.7934 263.191 25.5297 263.365C21.2046 266.155 16.905 268.987 12.5331 271.708C8.37382 274.298 4.20605 276.869 0.0127585 279.403V280.128C2.19021 278.813 4.3634 277.487 6.5366 276.161C13.4007 271.965 20.2222 267.714 26.8779 263.219C27.7497 262.629 28.6726 262.372 29.6975 262.296C31.1817 262.185 32.666 262.074 34.1545 261.966C39.5683 261.571 44.9524 260.942 50.328 260.203C59.2844 258.974 68.1643 257.322 77.0187 255.559C77.427 255.479 77.8437 255.427 78.2988 255.354C78.269 255.84 77.8693 255.962 77.6098 256.167C68.0112 263.684 58.1447 270.872 48.2526 278.032C32.7468 289.253 16.7264 299.759 0.382754 309.82C0.259422 309.897 0.13609 309.97 0.0127585 310.046V310.834C15.038 301.609 29.8336 292.061 44.1358 281.819C54.9593 274.065 65.7487 266.27 76.2532 258.117C77.2866 257.315 78.3371 256.534 79.345 255.698C80.0552 255.111 80.8547 254.792 81.7563 254.598C86.1708 253.65 90.5852 252.71 94.9826 251.693C105.542 249.249 115.919 246.206 126.203 242.856C128.52 242.1 130.83 241.326 133.143 240.562C133.483 240.451 133.828 240.364 134.177 240.264C134.313 240.743 133.951 240.871 133.747 241.052C130.205 244.137 126.658 247.219 123.098 250.287C109.685 261.841 95.9438 273.034 82.0838 284.092C72.4724 291.759 62.6016 299.11 52.6968 306.419C43.1237 313.482 33.4017 320.34 23.4373 326.886C20.7666 328.639 21.6596 328.285 18.6019 328.42C14.8806 328.583 11.1594 328.809 7.43819 328.923C4.9673 329 2.49641 328.996 0.0212641 329.013V329.798C2.81962 329.777 5.61373 329.732 8.41209 329.68C11.6527 329.621 14.8934 329.374 18.1341 329.218C18.5551 329.197 18.9761 329.218 19.4567 329.218C19.3461 329.721 18.9123 329.864 18.5849 330.072C12.7032 333.831 6.86832 337.662 0.910105 341.31C0.61666 341.491 0.318962 341.664 0.025517 341.841V342.695C6.46855 338.784 12.8138 334.733 19.1037 330.593C19.2355 330.506 19.3674 330.419 19.4992 330.332C20.7977 329.485 22.2182 329.01 23.7605 328.906C27.3669 328.666 30.9861 328.517 34.5797 328.177C39.6576 327.698 44.727 327.132 49.7878 326.504C58.1744 325.463 66.4717 323.912 74.7434 322.221C74.837 322.2 74.9433 322.246 75.1049 322.266C74.9731 322.697 74.5733 322.87 74.2671 323.103C67.9857 327.892 61.7128 332.692 55.4058 337.447C49.303 342.046 43.0769 346.485 36.7784 350.834C36.2639 351.188 35.8045 351.608 35.3197 352H36.5998C36.9145 351.733 37.208 351.434 37.5482 351.198C50.6894 342.15 63.3288 332.477 75.9172 322.749C76.8103 322.058 77.7502 321.607 78.8814 321.378C86.5365 319.826 94.1533 318.133 101.719 316.22C112.377 313.527 122.856 310.275 133.233 306.718C133.934 306.478 134.636 306.253 135.342 306.023C135.376 306.013 135.436 306.055 135.593 306.117C135.423 306.318 135.295 306.516 135.125 306.666C129.337 311.705 123.574 316.769 117.748 321.767C111.645 327 105.521 332.22 99.3248 337.354C93.8514 341.886 88.2674 346.298 82.7345 350.764C82.2497 351.157 81.7989 351.587 81.3311 352H82.6112C82.9854 351.646 83.3341 351.257 83.7424 350.938C94.6764 342.324 105.372 333.446 115.881 324.363C122.992 318.216 130.073 312.038 137.141 305.853C137.877 305.211 138.702 304.826 139.603 304.5C146.969 301.827 154.352 299.197 161.68 296.437C170.849 292.987 179.831 289.125 188.689 285.005C193.095 282.957 197.472 280.864 201.869 278.796C202.324 278.581 202.754 278.289 203.447 278.192C203.132 278.862 202.66 279.198 202.264 279.58C197.076 284.626 191.926 289.711 186.674 294.698C177.266 303.636 167.838 312.548 158.35 321.402C148.9 330.221 139.221 338.815 129.477 347.339C128.142 348.508 126.798 349.668 125.48 350.855C125.101 351.195 124.803 351.615 124.472 352H125.429C127.1 350.508 128.771 349.008 130.447 347.519C136.218 342.39 142.04 337.308 147.752 332.12C154.505 325.984 161.229 319.813 167.859 313.551C178.58 303.427 189.213 293.216 199.874 283.037C201.571 281.42 203.238 279.774 204.871 278.095C205.901 277.033 207.087 276.238 208.431 275.571C214.908 272.364 221.377 269.151 227.803 265.853C237.937 260.654 247.851 255.08 257.589 249.225C265.925 244.213 274.21 239.115 282.515 234.058C282.911 233.819 283.306 233.583 283.723 233.333C283.863 233.721 283.57 233.846 283.413 234.01C275.081 242.731 266.788 251.485 258.398 260.151C249.029 269.824 239.575 279.427 230.137 289.041C217.638 301.775 204.956 314.339 192.053 326.698C186.597 331.922 181.17 337.173 175.706 342.386C172.767 345.19 169.773 347.943 166.813 350.733C166.4 351.118 166.06 351.573 165.686 351.993H166.643C177.39 341.751 188.175 331.544 198.871 321.253C209.303 311.212 219.535 300.984 229.678 290.676C238.18 282.037 246.706 273.423 255.131 264.715C264.713 254.813 274.188 244.817 283.71 234.86C284.718 233.808 285.701 232.736 286.73 231.705C287.168 231.268 287.648 230.851 288.167 230.511C293.449 227.072 298.74 223.653 304.035 220.231C304.341 220.033 304.677 219.873 304.996 219.696V218.78C304.579 218.981 304.132 219.144 303.75 219.394C299.786 221.97 295.835 224.559 291.88 227.141C291.54 227.363 291.183 227.564 290.825 227.78C290.77 227.672 290.732 227.63 290.732 227.589C290.732 227.544 290.749 227.485 290.783 227.45C295.52 222.421 300.258 217.392 304.996 212.366V211.144C299.263 217.232 293.534 223.327 287.785 229.404C287.257 229.963 286.632 230.469 285.969 230.876C277.063 236.359 268.171 241.853 259.227 247.278C251.27 252.102 243.177 256.712 234.973 261.14C226.816 265.544 218.54 269.741 210.2 273.815C209.89 273.968 209.613 274.263 209.077 274.079C209.452 273.676 209.775 273.295 210.132 272.941C215.002 268.095 219.901 263.282 224.736 258.409C233.638 249.437 242.534 240.458 251.376 231.434C260.145 222.483 268.872 213.491 277.565 204.47C286.364 195.339 295.104 186.148 303.864 176.982C304.26 176.569 304.617 176.128 304.996 175.698V174.782C303.83 175.962 302.652 177.131 301.504 178.329C292.369 187.859 283.272 197.428 274.099 206.924C263.947 217.43 253.745 227.887 243.525 238.334C237.708 244.283 231.834 250.183 225.953 256.073C219.816 262.223 213.628 268.328 207.483 274.471C206.547 275.405 205.505 276.134 204.297 276.713C194.027 281.652 183.735 286.546 173.196 290.954C164.465 294.605 155.615 297.964 146.688 301.154C145.043 301.741 143.397 302.327 141.751 302.907C141.364 303.042 140.968 303.157 140.552 303.292C140.42 302.74 140.837 302.591 141.075 302.372C142.92 300.682 144.796 299.023 146.637 297.329C154.08 290.485 161.522 283.637 168.952 276.779C181.362 265.322 193.461 253.567 205.565 241.819C212.777 234.822 219.935 227.773 227.05 220.685C237.146 210.62 247.191 200.507 257.237 190.393C262.293 185.298 267.311 180.168 272.33 175.035C273.176 174.171 274.107 173.446 275.141 172.803C282.145 168.444 289.141 164.078 296.116 159.677C298.693 158.053 301.206 156.335 303.741 154.648C304.175 154.36 304.579 154.02 304.996 153.704V153.093C304.409 153.093 304.047 153.517 303.626 153.801C295.788 159.059 287.823 164.141 279.776 169.1C278.973 169.597 278.165 170.089 277.357 170.579C277.152 170.7 276.931 170.797 276.591 170.745C276.791 170.527 276.982 170.305 277.186 170.093C282.018 165.151 286.853 160.212 291.68 155.266C295.78 151.063 299.871 146.849 303.962 142.639C304.324 142.268 304.656 141.869 305 141.484V140.567C303.72 141.859 302.427 143.139 301.16 144.437C292.11 153.704 283.06 162.971 274.022 172.245C273.436 172.845 272.806 173.373 272.07 173.803C262.493 179.415 252.954 185.09 243.33 190.636C234.165 195.922 224.762 200.812 215.24 205.491C211.497 207.327 207.738 209.131 203.987 210.943C203.523 211.169 203.038 211.363 202.566 211.571C202.345 211.193 202.634 211.058 202.796 210.898C204.208 209.51 205.628 208.132 207.045 206.754C217.417 196.654 227.837 186.6 238.154 176.448C249.399 165.383 260.566 154.249 271.739 143.118C280.44 134.449 289.094 125.734 297.762 117.033C300.186 114.6 302.589 112.149 305 109.706V108.79C303.044 110.73 301.075 112.663 299.131 114.613C292.773 120.986 286.432 127.375 280.061 133.744C272.406 141.397 264.751 149.053 257.058 156.672C246.996 166.636 236.925 176.59 226.808 186.502C218.14 194.992 209.401 203.412 200.708 211.88C199.836 212.731 198.871 213.387 197.752 213.911C187.89 218.499 178.006 223.035 167.91 227.144C158.894 230.817 149.746 234.152 140.522 237.314C140.135 237.446 139.731 237.539 139.348 237.643C139.097 237.258 139.391 237.116 139.561 236.967C141.198 235.509 142.857 234.076 144.49 232.614C151.099 226.7 157.75 220.824 164.295 214.848C174.387 205.636 184.471 196.415 194.435 187.079C205.658 176.569 216.775 165.956 227.888 155.335C237.639 146.01 247.336 136.628 257.024 127.243C264.768 119.74 272.466 112.198 280.172 104.659C281.074 103.778 282.056 103.025 283.132 102.351C290.532 97.7284 297.808 92.9319 305 88.0173V87.1011C301.296 89.5653 297.604 92.0399 293.887 94.4902C291.442 96.1041 288.967 97.6798 286.5 99.2729C286.237 99.443 285.964 99.5957 285.692 99.7623C285.394 99.4187 285.73 99.2798 285.875 99.1375C287.568 97.4542 289.269 95.7779 290.978 94.1119C295.18 90.0165 299.386 85.9245 303.588 81.8291C304.069 81.357 304.528 80.8677 305 80.3853V79.469C297.472 86.8095 289.945 94.1466 282.426 101.498C281.677 102.23 280.861 102.862 279.959 103.42C266.559 111.726 252.903 119.636 239.149 127.393C230.758 132.127 222.244 136.642 213.602 140.942C212.943 141.272 212.28 141.588 211.625 141.907C211.357 141.623 211.646 141.529 211.757 141.4C211.889 141.241 212.054 141.112 212.208 140.97C218.23 135.358 224.281 129.774 230.274 124.127C245.588 109.689 260.877 95.233 276.166 80.7705C285.552 71.8924 294.917 62.997 304.29 54.1085C304.515 53.8933 304.762 53.6989 304.996 53.4976V52.5813C304.753 52.7757 304.498 52.9597 304.277 53.1714C293.428 63.4655 282.592 73.7701 271.734 84.0573C262.544 92.7688 253.354 101.48 244.129 110.161C234.033 119.66 223.894 129.121 213.773 138.593C212.365 139.912 210.923 141.196 209.524 142.521C208.873 143.139 208.15 143.629 207.325 144.014C200.814 147.04 194.341 150.147 187.792 153.1C180.86 156.227 173.894 159.289 166.877 162.239C161.714 164.411 156.449 166.358 151.226 168.403C150.797 168.569 150.354 168.711 149.899 168.875C149.836 168.385 150.189 168.281 150.401 168.094C160.251 159.528 170.151 151.021 179.937 142.39C190.271 133.279 200.512 124.064 210.762 114.867C216.818 109.432 222.835 103.955 228.845 98.4677C239.051 89.1488 249.241 79.8161 259.427 70.4764C267.575 63.0074 275.707 55.5176 283.851 48.0416C290.613 41.836 297.379 35.6373 304.149 29.4386C304.417 29.1922 304.711 28.977 304.996 28.7445V27.8282C303.605 29.0881 302.21 30.341 300.828 31.6113C291.616 40.0764 282.409 48.5518 273.193 57.0134C262.595 66.7453 251.997 76.4807 241.382 86.1987C235.037 92.0087 228.675 97.8013 222.291 103.573C212.969 112.003 203.659 120.444 194.273 128.812C184.658 137.388 174.983 145.905 165.29 154.402C159.796 159.219 154.216 163.943 148.687 168.722C147.845 169.451 146.922 169.999 145.851 170.37C132.442 175.028 118.973 179.509 105.283 183.354C102.17 184.229 99.0313 185.02 95.897 185.836C95.561 185.923 95.2038 185.94 94.77 186.003C94.9571 185.395 95.4207 185.197 95.7737 184.92C100.511 181.21 105.257 177.51 109.991 173.803C120.495 165.577 130.876 157.21 141.122 148.689C150.121 141.206 159.111 133.713 168.055 126.171C174.681 120.58 181.264 114.94 187.801 109.251C201.661 97.187 215.474 85.0811 229.304 72.9892C231.741 70.8581 234.169 68.7202 236.576 66.5614C237.435 65.7909 238.371 65.1419 239.392 64.5727C254.136 56.3089 268.753 47.8438 282.89 38.6499C289.8 34.1553 296.63 29.5462 303.49 24.9822C304.013 24.6351 304.49 24.2291 304.991 23.8508V22.9345C299.467 26.6516 293.96 30.4035 288.41 34.0859C273.665 43.8629 258.44 52.9145 242.985 61.6226C242.637 61.8169 242.279 61.9905 241.786 62.0009C242.028 61.7614 242.262 61.5115 242.517 61.2859C249.735 54.8824 256.956 48.4824 264.169 42.079C274.699 32.7323 285.224 23.3822 295.754 14.0321C298.833 11.2972 301.912 8.55879 304.991 5.82386V5.21302C304.736 5.38308 304.456 5.52885 304.226 5.73015C298.132 11.1236 292.037 16.5171 285.952 21.9176L285.93 21.9037ZM59.4248 130.655C58.3786 131.332 57.2983 131.752 56.0608 131.936C50.9106 132.706 45.7689 133.557 40.6102 134.279C37.4546 134.719 34.2693 134.994 31.0967 135.32C26.5461 135.788 21.9786 136.097 17.4068 136.298C14.4809 136.427 11.5592 136.6 8.63749 136.753C8.37382 136.767 8.11014 136.753 7.84221 136.753C7.75716 136.292 8.19945 136.309 8.40784 136.139C8.60772 135.976 8.85864 135.872 9.08829 135.743C13.7239 133.137 18.368 130.544 22.995 127.924C33.3507 122.058 43.4894 115.866 53.5814 109.598C75.6918 95.8646 97.2579 81.3848 118.522 66.4816C125.05 61.9072 131.544 57.2842 138.043 52.6751C138.817 52.1232 139.629 51.672 140.535 51.3354C151.354 47.3093 161.948 42.78 172.503 38.1675C182.187 33.9332 191.798 29.5497 201.24 24.8399C203.362 23.7813 205.475 22.7054 207.593 21.6364C207.649 21.692 207.704 21.7475 207.763 21.8065C206.951 22.4555 206.143 23.1115 205.322 23.7466C190.888 34.9362 176.501 46.1883 161.994 57.2911C150.852 65.8152 139.599 74.2108 128.308 82.5545C119.164 89.3085 109.936 95.9618 100.656 102.542C87.0979 112.156 73.4123 121.603 59.4333 130.655H59.4248ZM198.849 214.601C199.496 213.966 200.244 213.522 201.061 213.13C207.283 210.124 213.526 207.153 219.714 204.075C232.281 197.82 244.504 190.987 256.56 183.875C260.549 181.522 264.522 179.151 268.507 176.795C268.894 176.566 269.302 176.371 269.901 176.056C269.672 176.784 269.234 177.086 268.893 177.437C266.244 180.154 263.59 182.872 260.915 185.569C252.227 194.318 243.525 203.058 234.833 211.804C224.817 221.879 214.734 231.889 204.489 241.749C193.755 252.078 183.08 262.462 172.214 272.666C161.578 282.652 150.746 292.453 139.969 302.303C137.264 304.777 138.319 304.094 134.887 305.281C126.73 308.106 118.514 310.771 110.191 313.114C101.047 315.689 91.7973 317.845 82.4963 319.816C81.4629 320.035 80.4252 320.243 79.3918 320.458C79.3365 320.382 79.2812 320.302 79.2217 320.226C79.5321 319.962 79.8341 319.688 80.153 319.438C90.7511 311.153 101.039 302.528 111.322 293.897C122.528 284.495 133.513 274.856 144.383 265.097C153.893 256.559 163.394 248.01 172.695 239.264C180.099 232.302 187.49 225.329 194.886 218.364C196.213 217.114 197.561 215.882 198.862 214.605L198.849 214.601ZM157.125 232.104C165.227 229.133 173.188 225.833 181.047 222.317C185.963 220.116 190.85 217.85 195.749 215.618C196.174 215.424 196.6 215.243 197.029 215.056C197.067 215.101 197.106 215.15 197.144 215.195C196.944 215.396 196.753 215.604 196.549 215.799C185.53 226.141 174.574 236.547 163.466 246.799C154.429 255.143 145.247 263.348 136.052 271.538C119.296 286.462 102.085 300.897 84.5717 314.999C82.373 316.769 80.1318 318.49 77.9246 320.253C77.3377 320.722 76.7082 321.031 75.9512 321.17C70.0994 322.246 64.2645 323.398 58.3998 324.415C54.5297 325.085 50.6299 325.626 46.7258 326.122C43.3533 326.553 39.9596 326.869 36.5701 327.177C33.1806 327.49 29.7868 327.74 26.393 328.003C25.3979 328.083 24.4027 328.108 23.3395 328.101C23.4969 327.531 23.9392 327.407 24.2624 327.184C29.3317 323.724 34.4777 320.361 39.4662 316.797C47.1043 311.348 54.6573 305.791 62.2061 300.231C76.3808 289.784 90.0196 278.716 103.603 267.585C113.631 259.367 123.477 250.961 133.22 242.433C134.007 241.746 134.827 241.093 135.58 240.375C136.354 239.636 137.256 239.171 138.276 238.81C144.571 236.595 150.869 234.395 157.129 232.101L157.125 232.104ZM207.606 145.184C208.261 144.58 208.946 144.045 209.771 143.646C223.227 137.152 236.317 130.027 249.194 122.544C258.155 117.338 267.048 112.024 275.974 106.759C276.323 106.554 276.689 106.371 277.046 106.18C277.11 106.27 277.178 106.36 277.242 106.45C276.702 107.002 276.17 107.564 275.617 108.102C271.326 112.281 267.044 116.46 262.74 120.628C252.716 130.336 242.726 140.078 232.638 149.73C219.242 162.548 205.811 175.337 192.304 188.05C183.654 196.193 174.893 204.231 166.086 212.213C156.695 220.724 147.19 229.112 137.745 237.564C136.915 238.306 136.001 238.841 134.912 239.202C126.471 242.02 118.012 244.779 109.438 247.205C101.324 249.503 93.1156 251.467 84.8567 253.216C83.9806 253.4 83.1045 253.581 82.0455 253.8C82.424 253.175 82.9259 252.904 83.3469 252.571C88.7523 248.278 94.2129 244.047 99.5629 239.691C107.222 233.451 114.831 227.155 122.405 220.824C132.106 212.717 141.704 204.498 151.171 196.141C163.61 185.163 176.033 174.161 188.247 162.95C194.699 157.026 201.154 151.108 207.602 145.184H207.606ZM149.58 169.774C160.051 166.011 170.321 161.794 180.43 157.223C188.613 153.524 196.749 149.741 204.905 145.996C205.178 145.871 205.454 145.76 205.726 145.642C205.769 145.697 205.811 145.749 205.85 145.805C205.65 146.013 205.458 146.232 205.241 146.426C197.008 153.957 188.787 161.499 180.537 169.013C176.063 173.085 171.559 177.125 167.038 181.151C153.446 193.267 139.769 205.296 125.824 217.041C114.516 226.565 103.169 236.047 91.5464 245.216C88.2206 247.84 84.8779 250.447 81.5692 253.092C80.6464 253.827 79.664 254.303 78.4689 254.539C69.9718 256.212 61.4704 257.839 52.8924 259.096C47.84 259.835 42.7792 260.481 37.6885 260.915C36.047 261.057 34.4096 261.248 32.7638 261.387C31.8664 261.463 30.9648 261.47 30.0717 261.508C29.9654 260.928 30.4375 260.859 30.7054 260.675C35.2814 257.517 39.8745 254.379 44.4505 251.221C54.5553 244.248 64.4601 237.022 74.2288 229.626C85.0013 221.473 95.7099 213.248 106.202 204.765C119.5 194.016 132.731 183.195 145.672 172.057C146.842 171.051 148.096 170.298 149.572 169.767L149.58 169.774ZM232.953 68.9215C227.943 73.3362 222.942 77.7649 217.911 82.1588C206.823 91.8351 195.745 101.525 184.611 111.153C168.382 125.189 151.945 138.995 135.346 152.628C121.814 163.738 108.047 174.577 94.1959 185.322C93.9492 185.513 93.6898 185.694 93.4474 185.898C92.7967 186.45 92.0524 186.787 91.1934 186.967C86.0517 188.05 80.927 189.23 75.7726 190.251C69.9888 191.393 64.1879 192.458 58.3743 193.444C53.7685 194.225 49.1287 194.846 44.5016 195.519C43.9572 195.599 43.4086 195.835 42.6346 195.644C43.1492 195.266 43.5022 194.981 43.8849 194.728C64.0731 181.196 83.7637 167.028 103.089 152.389C123.787 136.705 144.06 120.531 164.121 104.111C166.141 102.456 168.17 100.803 170.168 99.1236C170.938 98.4781 171.78 97.9783 172.712 97.5722C183.612 92.8312 194.452 87.9618 205.122 82.7592C214.419 78.2265 223.541 73.3848 232.566 68.3835C233 68.1406 233.404 67.8004 234.199 67.7275C233.68 68.2343 233.331 68.5987 232.957 68.9319L232.953 68.9215Z" fill="#C94938"/>
</svg>
