<svg xmlns="http://www.w3.org/2000/svg" id="Layer_1" data-name="Layer 1" viewBox="0 0 512 512" width="512" height="512"><path d="M240.351,209.983a27.884,27.884,0,0,0,8.792,13.924,25.278,25.278,0,0,0,3.738,29.961,27.778,27.778,0,0,0,29.157,6.824,36.643,36.643,0,0,0,17.7,22.064,39.353,39.353,0,0,0,37.651,0,37.328,37.328,0,0,0,13.231-12.212,6,6,0,0,0,.976-3.28V214.116h21.237L381,236.882a19.7,19.7,0,1,0,11.984-4.09c-.233,0-.458.026-.689.034l-8.408-23.455c-2.262-6.312-6.564-7.255-8.927-7.255H351.6V177.607h45.035a19.739,19.739,0,1,0,0-12H351.6V141.1h23.357c2.362,0,6.664-.943,8.927-7.255l8.408-23.456c.231.008.456.035.689.035A19.812,19.812,0,1,0,381,106.333l-8.16,22.766H351.6V75.95a5.992,5.992,0,0,0-.977-3.28,37.316,37.316,0,0,0-13.23-12.212,39.349,39.349,0,0,0-37.651,0,37.118,37.118,0,0,0-15.694,16.654,32.231,32.231,0,0,0-5.8,4.236,30.827,30.827,0,0,0-9.93,20.243,27.9,27.9,0,0,0-20.805,18.969,26.425,26.425,0,0,0,4.554,24.212,37.733,37.733,0,0,0-8.006,43.148A27.4,27.4,0,0,0,240.351,209.983ZM400.718,252.53a7.74,7.74,0,1,1-7.739-7.738A7.748,7.748,0,0,1,400.718,252.53Zm14.715-88.662a7.739,7.739,0,1,1-7.739,7.739A7.748,7.748,0,0,1,415.433,163.868ZM392.979,82.945a7.739,7.739,0,1,1-7.74,7.739A7.748,7.748,0,0,1,392.979,82.945ZM255.066,201.876a6,6,0,1,0,7.512-9.357,26.576,26.576,0,0,1-9.765-16.665A26.213,26.213,0,0,1,264.4,150.136a6,6,0,0,0,.207-9.78,14.814,14.814,0,0,1-5.612-16.3,16.167,16.167,0,0,1,14.232-11.129,17.46,17.46,0,0,1,8.931,1.517,6,6,0,0,0,5.032-10.894,29.291,29.291,0,0,0-6.777-2.16,18.921,18.921,0,0,1,5.968-11.214,21.528,21.528,0,0,1,23.674-3.429,6,6,0,1,0,5.164-10.832,33.392,33.392,0,0,0-12.437-3.171,25.653,25.653,0,0,1,2.748-1.773,27.253,27.253,0,0,1,26.077,0,25.469,25.469,0,0,1,7.994,6.875V251.4a6,6,0,0,0-9.321-2.626,14.775,14.775,0,0,1-16.713.529c-4.441-2.978-5.818-7.972-3.349-12.144a6,6,0,0,0-10.326-6.112c-5.685,9.6-2.679,21.737,6.992,28.223a26.876,26.876,0,0,0,30.8-1.048,5.971,5.971,0,0,0,1.922-2.643v9.793a25.458,25.458,0,0,1-7.994,6.875,27.253,27.253,0,0,1-26.077,0,24.171,24.171,0,0,1-12.8-21.033,6,6,0,0,0-9.9-4.57,15.64,15.64,0,0,1-21.25-1.036,13.151,13.151,0,0,1-1.972-15.86,29.777,29.777,0,0,0,5.866,1.24,6.177,6.177,0,0,0,.634.033,6,6,0,0,0,.62-11.968,16.943,16.943,0,0,1-14.778-12.134,15.029,15.029,0,0,1,.036-7.793A39.852,39.852,0,0,0,255.066,201.876Zm67.755,15.934a6,6,0,0,1-8.423,1.025,14.772,14.772,0,0,0-16.712-.529c-4.442,2.978-5.819,7.972-3.35,12.144a6,6,0,1,1-10.326,6.112c-5.686-9.6-2.679-21.738,6.992-28.223a26.868,26.868,0,0,1,30.8,1.048A6,6,0,0,1,322.821,217.81ZM295.95,125.593c-5.685-9.605-2.679-21.738,6.992-28.223a26.87,26.87,0,0,1,30.8,1.047,6,6,0,0,1-7.4,9.449,14.775,14.775,0,0,0-16.713-.529c-4.441,2.978-5.818,7.972-3.35,12.143a6,6,0,1,1-10.326,6.113Zm-11.182,42.629a20.465,20.465,0,0,1-1.086-22.513,6,6,0,0,1,10.326,6.113c-2.47,4.172-1.093,9.165,3.349,12.143a14.773,14.773,0,0,0,16.713-.528,6,6,0,0,1,7.4,9.448,26.239,26.239,0,0,1-16.136,5.391,26.957,26.957,0,0,1-10.664-2.188,16.9,16.9,0,0,0,3.3,14.667,6,6,0,0,1-9.457,7.388,28.65,28.65,0,0,1-4.932-26.884A29.38,29.38,0,0,1,284.768,168.222ZM40.6,284.612,5.233,330.448a10.259,10.259,0,0,0,2.484,14.864l22.479,14.8-8.278,16.358a10.292,10.292,0,0,0,3.993,13.515l10.464,6.105L33,400.035a10.263,10.263,0,0,0,1.8,15.013q6.611,4.771,10.433,7.544a4.849,4.849,0,0,1,2.1,4.43c-.84,14.916,2.865,34.079,15.782,43.131,5.821,4.077,15.875,7.6,30.731,1.244l42.39-18.147A179.67,179.67,0,0,1,169.946,508.2a6,6,0,0,0,5.581,3.8h191.1a6,6,0,0,0,4.709-9.719C334.314,455.4,328.272,399.04,354.131,343.215H362a12.639,12.639,0,0,0,12.53-11.085l3.084-25.092a140.505,140.505,0,0,0,26.961-11.174L424.5,311.431a12.642,12.642,0,0,0,16.7-1.023L476.111,275.5a12.637,12.637,0,0,0,1.023-16.7L461.567,238.87a140.558,140.558,0,0,0,11.174-26.962l25.092-3.084a12.639,12.639,0,0,0,11.085-12.53V146.92a12.637,12.637,0,0,0-11.085-12.529l-25.092-3.084a140.511,140.511,0,0,0-11.174-26.961l15.567-19.929a12.638,12.638,0,0,0-1.023-16.7L441.2,32.806a12.642,12.642,0,0,0-16.7-1.022L404.572,47.351a140.588,140.588,0,0,0-26.961-11.175l-3.084-25.091A12.639,12.639,0,0,0,362,0H312.623a12.639,12.639,0,0,0-12.53,11.085L297.01,36.177A140.6,140.6,0,0,0,270.049,47.35l-19.93-15.567a12.64,12.64,0,0,0-16.7,1.023L198.51,67.718a12.548,12.548,0,0,0-3.164,5.345c-30.325,2.635-58.994,12.044-83.216,27.372-28.361,17.947-49.662,42.94-63.336,74.343-4.215,9.973-10.242,27.584-17.915,52.344a16.79,16.79,0,0,0,3.476,16.349L46.038,256.8c3.512,9.824,1.757,18.9-5.352,27.707ZM206.994,76.2l34.912-34.912a.6.6,0,0,1,.827-.051l23.076,18.024a6,6,0,0,0,6.7.461A128.5,128.5,0,0,1,304.02,46.669a6,6,0,0,0,4.414-5.067L312,12.548a.6.6,0,0,1,.62-.548H362a.6.6,0,0,1,.62.548L366.188,41.6a6,6,0,0,0,4.414,5.067,128.57,128.57,0,0,1,31.505,13.057,6,6,0,0,0,6.706-.461l23.074-18.024a.6.6,0,0,1,.827.051L467.626,76.2a.6.6,0,0,1,.051.826l-18.025,23.075a6,6,0,0,0-.461,6.706,128.526,128.526,0,0,1,13.058,31.506,6,6,0,0,0,5.067,4.413l29.055,3.571a.6.6,0,0,1,.547.618v49.375a.6.6,0,0,1-.548.62l-29.054,3.57a6,6,0,0,0-5.067,4.414A128.575,128.575,0,0,1,449.192,236.4a6,6,0,0,0,.46,6.705l18.025,23.076a.6.6,0,0,1-.05.825l-34.913,34.913a.6.6,0,0,1-.827.051l-23.074-18.025a6,6,0,0,0-6.706-.461A128.508,128.508,0,0,1,370.6,296.546a6,6,0,0,0-4.414,5.067l-3.571,29.054a.6.6,0,0,1-.62.548H312.623a.6.6,0,0,1-.62-.548l-3.569-29.054a6,6,0,0,0-4.414-5.067,128.488,128.488,0,0,1-31.5-13.057,6,6,0,0,0-6.706.46l-23.076,18.025a.6.6,0,0,1-.826-.05L206.994,267.01a.6.6,0,0,1-.051-.825l18.025-23.076a6,6,0,0,0,.461-6.705A128.561,128.561,0,0,1,212.372,204.9a6,6,0,0,0-5.067-4.414l-29.054-3.57a.6.6,0,0,1-.548-.62V146.92a.6.6,0,0,1,.548-.619l29.054-3.571a6,6,0,0,0,5.067-4.413,128.536,128.536,0,0,1,13.057-31.506,6,6,0,0,0-.461-6.706L206.943,77.03A.6.6,0,0,1,206.994,76.2ZM56.862,251.494a5.991,5.991,0,0,0-1.077-1.774l-12.4-14.157a4.837,4.837,0,0,1-1.039-4.89c7.555-24.381,13.445-41.615,17.479-51.164,23.733-54.5,75.176-89.653,138.049-94.6l15.183,19.438a140.519,140.519,0,0,0-11.173,26.961l-25.091,3.084A12.637,12.637,0,0,0,165.7,146.92v49.374a12.638,12.638,0,0,0,11.085,12.53l25.092,3.084a140.528,140.528,0,0,0,11.173,26.961L197.486,258.8a12.636,12.636,0,0,0,1.024,16.7l34.912,34.914a12.644,12.644,0,0,0,16.7,1.022l19.929-15.567a140.417,140.417,0,0,0,26.961,11.174l3.083,25.092a12.639,12.639,0,0,0,12.53,11.085h28.362C317.406,397.89,322.238,452.853,354.741,500H179.567A189.742,189.742,0,0,0,142.1,441.937a6,6,0,0,0-6.71-1.382L89.117,460.366c-7.85,3.363-14.285,3.35-19.121-.04-7.208-5.051-11.5-18.164-10.688-32.628a16.829,16.829,0,0,0-7.025-14.811q-3.379-2.459-8.95-6.475l3.5-4.094A10.261,10.261,0,0,0,44.2,386.76l-10.844-6.325,9.961-19.686a6,6,0,0,0-2.054-7.721l-25.4-16.718,34.2-44.317C60.165,279.448,62.451,265.822,56.862,251.494Z"></path></svg>