<svg xmlns="http://www.w3.org/2000/svg" id="Layer_1" viewBox="0 0 500 500"><path clip-rule="evenodd" d="m444.964 274.334c-.253-7.742-.787-4.006-1.239-3.746-.989-.792-.35-.988-.991-.218 0-.625-.01-2.184-.347-2.661-17.035 85.311-74.128 148.354-159.615 169.595 2.703-2.625 5.819-10.662 2.181-13.132.422-1.284-2.211-1.565-2.23-.61l-.743.139c-.651-.427-.338.872-.991.942-5.008 1.922-10.857 8.741-15.461 11.917-5.209 5.246-5.652 11.543 1.834 14.48 3.279 1.74 10.307 6.209 14.122 7.324.459-.12.883-.24 1.09-.035.409-.245.507.301.991-.015.404-.264 1.233.637 2.379.51.853-.094 1.097.716 1.635.342 1.294-.9 1.111-.056 1.685-.684.432-.473.39-.049.595-.278.297-.372.495-.396.694-.515 1.22-3.543 1.22-8.956-3.37-11.908 78.874-3.82 161.103-92.246 157.781-171.447zm-226.365-115.61-3.964 1.536c4.124 8.127 7.221 91.441-1.734 91.983-.639.383-4.965 3.487-6.294 4.802 13.648 20.403-17.18 42.423-31.962 22.374-7.776-10.874-2.996-26.837 10.753-28.964 1.867.624 3.112-1.248 4.658 1.185l-.941.694c.39.272.1.542.099.545-.296.871.677.677.248 1.219-21.759 21.671 18.751 29.078.594-1.125.198-.198.446-.287.595-.763.096-.263.364.111.743-.51.495-.809.9.037 2.428-1.07 1.441-.483 6.73 1.667 7.681 2.517.825-1.692 3.045-7.255 4.311-8.578.36-26.04-6.324-54.061.05-79.659-80.47 46.899-54.875 170.468 39.842 176.315-5.645-34.182-2.703-70.274-.149-104.798-17.352-1.972-21.46-29.544-4.459-34.61 4.207-.425 7.939-.115 9.167 4.456-.149.223-.347.327-.396.822-.076.301-.295-.108-.446.56-.195.866-.695.131-1.041 1.625-.15.648-1.047.317-1.388 1.021-.446.922-1.518 1.327-1.388 1.799.138.5-.411.592-.198.847-.127.139-.189.518 0 .941-4.143 13.038 15.985 10.163 9.96-1.036.148-.288-.323-.808-.445-.961-1.561-1.96-1.119-1.874-2.329-1.814-.412.021.346-.44-.644-.902 0-.054-.801.291-1.239-.639-.557-1.183-.695-.876.198-1.546v-.545c.182-1.121-.122-.493-.198-.912 18.794-10.322 27.096 26.419 1.536 31.194 5.754 15.704 2.662 31.422 4.51 47.3.029 17.744 3.798 40.375-1.834 57.087 95.512-6.701 121.41-129.222 39.643-176.503 4.708 26.238 2.181 53.511 1.239 79.857.729.66 4.242 6.042 5.748 6.814 4.23-.489 7.746.077 8.969 4.465-.198.228-.347.327-.446.823-.025.256-.357-.024-.446.56-.112.74-.923.532-1.041 1.63-.072.671-.886.202-1.338 1.016-.453.816-1.518 1.369-1.437 1.799.144.761-.149.045-.149.892-.248.104-.099.565 0 .902-4.232 12.996 15.89 10.36 9.96-1.05.2-.333-.893-1.424-1.09-1.7-.592-.825-.639-1.286-1.734-1.075-.346.066.322-.47-.595-.897-.168-.078-.775.332-1.239-.634-.626-1.305-.712-.816.198-1.546-.221-.318.064-.631.099-.996.018-.213-1.153-.849 1.189-1.546 9.098-3.396 15.026 4.384 16.006 11.279 1.045 36.542-55.117 19.928-33.35-10.233-6.663-2.948-11.161-4.581-10.604-12.86.686-26.32-7.952-56.442 2.081-81.517-5.718-1.493-12.906-5.112-18.781-5.996-2.696-.315-15.121-2.132-17.542-3.032 53.035-17.258 123.86 57.844 102.374 123.696-25.782 104.329-177.641 106.095-206.042 2.605-20.451-61.997 35.453-143.697 103.668-127.624-10.381 1.575-22.041 5.262-31.664 8.481zm241.479 52.518c0-.253-.662-.667-.595-1.467l-1.14-1.739c-1.755-.074-2.095-1.096-4.856-.545l-2.032.565c-2.121 1.146-1.199-.585-4.262 2.909-7.408-82.773-92.064-161.71-176.265-156.166.347.292.892.188 1.14.58-.149.139-.248.278-.347.406-.366.378-.55-.015.099.57-.62.041-2.17.024-2.627.327 87.546 18.864 146.984 72.109 169.674 160.304-2.822-2.767-11.287-5.897-13.776-2.185 0 .225-.883-.097-.941.476-.015.144-.658 1.713.297 1.799.026.002.472.445.248.803-.39.62.898.392.991.931.207 1.191 1.731 2.436 1.635 2.874 17.619 25.424 27.401 16.14 32.757-10.442zm-404.463 12.056c.254 7.742.766 4.012 1.239 3.747.099.114.248.223.396.347.441.448.041.47.545-.134.094.841.019 2.099.347 2.656 17.651-85.372 71.867-145.939 157.038-169.06l-.991 1.824c0 .381.149.892-.198 1.021 0 .741-.351.44-.198.996.157.572-.923 1.117-.991 2.21-.049.788-.941.994-.644 1.531.534.966-.142 1.09.297 1.799.149.267.198.392.099.466 0 .333.222.14.396.961 9.729 6.316 17.273-5.415 22.299-12.097 5.429-5.885 1.675-11.498-5.055-13.042-6.511-3.169-12.217-7.538-19.722-5.059-2.033.322-.92.672-1.685 1.467l-.198.495-.793.322c-.617 2.432.959 1.381.991 2.681-.273.704.975.176 1.139.723.382.686 1.905 1.92 2.181 2.502-.088.815.209.389.495.65.865.788 1.329.8 2.131 1.501-79.37 2.906-162.517 91.855-159.118 171.493zm222.499 180.636c-1.041 3.216-4.064 5.248-7.285 5.233-7.034-.063-34.658-.18-41.131-.253-3.449-.183-6.036-1.998-7.036-5.144l-9.068-28.618c-9.457-2.785-18.202-6.475-26.809-11.269-8.679 4.34-18.431 8.984-26.859 13.42-2.532 1.393-5.845.777-7.83-1.234-35.019-39.076-38.793-20.344-16.303-63.866-4.553-8.196-8.86-18.348-11.199-27.399-46.34-15.192-30.55-4.273-33.103-56.552-.394-6.27 8.829-6.891 12.885-8.533 6.947-2.442 13.955-4.496 20.912-6.288 2.765-9.404 7.131-19.516 11.992-28.073-4.562-9.312-8.968-18.61-13.528-27.889-.942-1.774-.545-3.865.793-5.223 3.534-3.598 15.581-16.414 17.741-17.745 1.399-.863 8.563-7.965 9.961-9.361 1.813-1.811 3.391-3.854 6.244-2.577 9.196 4.117 20.071 10.666 28.494 16.422-1.69-.518-7.613-3.461-9.713-4.46 2.768 1.785 1.476.996-.545.788 14.018 8.242-13.003-5.019-19.673-7.968l-26.264 28.42c.361 1.798 18.451 30.13 15.66 31.447-21.052 38.652 3.159 29.669-43.956 44.545l.198 33.891c47.377 14.071 23.052 5.805 45.193 43.613 3.754 3.573-12.361 28.197-13.131 31.828l23.241 23.018 26.363-13.464c3.463-1.773 5.915.339 8.821 1.937 37.029 19.1 26.899-1.063 40.882 42.879 10.615-.045 21.53-.229 32.161-.193 2.654-5.706 7.242-31.44 13.23-32.206 41.916-11.456 19.701-22.779 62.886-.079l21.953-22.032c-23.518-42.538-11.646-21.437-.742-62.969.333-6.834 27.406-11.519 31.813-14.088l-.049-30.055-26.958-8.707v-.005c-7.532-3.237-6.014-13.555-9.764-19.851-2.179-5.457-4.756-10.749-7.729-15.823-4.774-5.38 11.487-27.528 12.884-32.641l-21.457-21.749c-4.887 1.286-27.395 17.139-32.359 12.722-37.193-21.954-30.541 1.455-43.658-45.685-10.974-.512-22.363-1.107-33.449-1.363-16.788 44.423-5.23 23.758-45.838 39.584 7.791-6.378 19.079-11.716 29.237-14.787.988-5.86 7.354-24.803 9.217-30.763.595-1.868 2.28-3.077 4.163-3.102 52.907 1.738 40.183-13.557 56.195 31.809 8.443 2.025 20.419 6.609 27.899 10.694 1.863-.789 24.331-12.938 26.76-14.138 2.725-1.442 5.996-.882 8.077 1.15 35.426 39.036 39.458 20.729 16.948 64.227 4.818 8.548 8.418 17.289 11.15 26.725 46.563 14.895 30.921 4.684 33.549 57.236-.001 3.225-2.28 6.191-5.006 6.902-7.764 2.454-20.751 6.811-28.345 9.311-2.336 8.761-6.649 18.763-10.951 26.655 18.865 37.982 20.896 26.215-9.119 56.487-4.791 3.742-9.243 12.599-16.302 9.158-8.711-4.161-17.993-9.056-26.71-13.474-7.645 4.479-17.75 8.644-26.412 11.155zm-46.73 37.002c-87.008-18.4-147.035-72.439-169.625-159.719 4.274 3.356 5.322 3.694 10.902 3.647 2.221.142 1.077-.631 2.329-1.471 1.108.321 1.281-1.546 1.189-1.72-.222-.424-1.07-.631-.743-1.254-4.588-5.735-17.748-29.525-26.462-16.206-3.048 5.998-8.829 13.986-8.771 21.032-.839.979.485 1.327.247 2.126-.108.364.496.53.496.917-.156.141.221.155.545.867 4.471 1.803 9.819.135 11.794-3.315 5.258 82.554 97.05 165.213 175.224 156.414.468-.656 1.152-.596.198-.976.672-.044 2.148-.012 2.677-.342z" fill-rule="evenodd"></path></svg>