<svg xmlns="http://www.w3.org/2000/svg" viewBox="0 0 64 64" width="512" height="512"><g id="AI_battery" data-name="AI battery"><path d="M58,49a4,4,0,0,0-3.858,3H49V42h5c4.71,0,8-3.7,8-9,0-4.425-1.9-7.652-5.121-8.779C56.006,20.531,51.406,18,49,18V11a3,3,0,0,0-3-3H40V5a3,3,0,0,0-3-3H27a3,3,0,0,0-3,3V8H18a3,3,0,0,0-3,3v7a7.012,7.012,0,0,0-6.938,6.063A7.01,7.01,0,0,0,2,31,11.013,11.013,0,0,0,13,42h2v8H9.858a4,4,0,1,0,0,2H15v7a3,3,0,0,0,3,3H46a3,3,0,0,0,3-3V54h5.142A3.993,3.993,0,1,0,58,49ZM6,53a2,2,0,1,1,2-2A2,2,0,0,1,6,53Zm41-1H43V42h4ZM26,5a1,1,0,0,1,1-1H37a1,1,0,0,1,1,1V8H26Zm-9,6a1,1,0,0,1,1-1H46a1,1,0,0,1,1,1v7.116a10.314,10.314,0,0,0-2.652.653C41.129,14.456,36.668,12,32,12a16.509,16.509,0,0,0-13.357,6.741A9.751,9.751,0,0,0,17,18.213ZM4,31a5,5,0,0,1,4.082-4.907,4.739,4.739,0,0,0,3.731,3.889,4.425,4.425,0,0,0,.833.079,4.855,4.855,0,0,0,4.238-2.593l-1.768-.936a2.789,2.789,0,0,1-2.929,1.486A2.828,2.828,0,0,1,10,25.061h-.01c0-.021.012-.039.012-.06a5.006,5.006,0,0,1,5-5,7.6,7.6,0,0,1,3.566.9.99.99,0,0,0,1.13-.2l.011.011a3.4,3.4,0,0,1,2.954-.8,3.318,3.318,0,0,1,2.444,1.536,3.474,3.474,0,0,1-1.552,4.658l.894,1.79A5.48,5.48,0,0,0,26.9,20.553a5.211,5.211,0,0,0-3.915-2.615,6.086,6.086,0,0,0-.887-.073A14.87,14.87,0,0,1,32,14a12.644,12.644,0,0,1,8.907,3.865,6.086,6.086,0,0,0-.887.073A5.211,5.211,0,0,0,36.1,20.553,5.495,5.495,0,0,0,38.553,27.9l.894-1.79A3.475,3.475,0,0,1,37.9,21.447a3.318,3.318,0,0,1,2.444-1.536,3.4,3.4,0,0,1,2.954.8l.01-.01a.986.986,0,0,0,1.074.229l.3-.126A9.478,9.478,0,0,1,49,20a8.2,8.2,0,0,1,5.049,2.951,6,6,0,0,0-2.029-.013,5.211,5.211,0,0,0-3.915,2.615A5.495,5.495,0,0,0,50.553,32.9l.894-1.79A3.475,3.475,0,0,1,49.9,26.447a3.318,3.318,0,0,1,2.444-1.536,3.4,3.4,0,0,1,2.954.8L55.3,25.7a1,1,0,0,0,.457.269C58.413,26.64,60,29.268,60,33c0,3.484-1.855,7-6,7H41a3.387,3.387,0,0,1-2.651-1.526,3.322,3.322,0,0,1-.643-2.815,3.481,3.481,0,0,1,4.392-2.2l.632-1.9a5.473,5.473,0,0,0-6.92,3.46,5.21,5.21,0,0,0,.916,4.617c.09.125.189.24.287.357H26.987c.1-.117.2-.232.287-.357a5.21,5.21,0,0,0,.916-4.617,5.473,5.473,0,0,0-6.92-3.46l.632,1.9a3.482,3.482,0,0,1,4.392,2.2,3.322,3.322,0,0,1-.643,2.815A3.387,3.387,0,0,1,23,40H13A9.01,9.01,0,0,1,4,31ZM32,52a2,2,0,1,1-2,2A2,2,0,0,1,32,52ZM17,42h4v8H17ZM47,59a1,1,0,0,1-1,1H18a1,1,0,0,1-1-1V52h5a1,1,0,0,0,1-1V42h8v8.142a4,4,0,1,0,2,0V42h8V53a1,1,0,0,0,1,1h5Zm11-4a2,2,0,1,1,2-2A2,2,0,0,1,58,55Z"></path></g></svg>