<svg xmlns="http://www.w3.org/2000/svg" id="Layer_1" height="512" viewBox="0 0 512.149 512.149" width="512"><g><path d="m246.496 142.542h-22.63c.525 8.64-6.291 16.1-15 16.066h-128.533c-8.704.034-15.531-7.427-15-16.066h-22.63c-23.087 0-42.703 18.624-42.703 42.703v284.126c0 24.078 19.611 42.704 42.703 42.704h203.793c23.091 0 42.704-18.626 42.704-42.704v-284.126c0-24.077-19.612-42.703-42.704-42.703zm-123.423 283.74s-32.133 32.133-32.133 32.133c-5.857 5.858-15.356 5.858-21.213 0 0 0-16.067-16.067-16.067-16.067-13.532-14.566 6.639-34.75 21.213-21.213 0 0 5.46 5.46 5.46 5.46l21.527-21.526c14.573-13.536 34.746 6.645 21.213 21.213zm0-96.4s-32.133 32.133-32.133 32.133c-5.857 5.858-15.356 5.858-21.213 0 0 0-16.067-16.067-16.067-16.067-13.532-14.566 6.639-34.75 21.213-21.213 0 0 5.46 5.46 5.46 5.46l21.527-21.526c14.573-13.536 34.746 6.645 21.213 21.213zm0-96.401-32.133 32.134c-5.857 5.858-15.355 5.858-21.213 0 0 0-16.067-16.066-16.067-16.066-13.531-14.567 6.637-34.749 21.213-21.214 0 0 5.46 5.46 5.46 5.46l21.527-21.527c14.573-13.535 34.746 6.646 21.213 21.213zm101.86 213.26h-48.2c-19.863-.729-19.882-29.263 0-30h48.2c19.863.73 19.882 29.264 0 30zm0-96.399h-48.2c-19.863-.729-19.882-29.263 0-30h48.2c19.863.729 19.882 29.263 0 30zm0-96.4h-48.2c-19.863-.729-19.882-29.263 0-30h48.2c19.863.729 19.882 29.263 0 30z"></path><path d="m193.867 111.475c0-9.447-7.686-17.133-17.133-17.133h-64.267c-9.447 0-17.133 7.686-17.133 17.133v17.133h98.533z"></path><path d="m307.847 38.342h82.821c1.088-20.211-13.497-38.382-34.392-38.266h-67.329c6.133 9.714 9.742 21.174 9.87 33.457 1.048 1.777 5.375 4.809 9.03 4.809z"></path><path d="m477.867.075h-67.334c6.246 9.893 9.877 21.594 9.877 34.133 0 2.279 1.854 4.133 4.133 4.133h87.457c1.84-20.2-13.534-38.389-34.133-38.266z"></path><path d="m319.2 287.142h98.533v34.267h-98.533z"></path><path d="m268.82 34.208c0-18.851-15.282-34.133-34.133-34.133h-88.087c-18.851 0-34.133 15.282-34.133 34.133v30.133h64.267c26.377-.035 47.724 21.847 47.133 48.2 26.535-.375 46.707-1.265 68.142 16.066h140.725c8.284 0 15 6.716 15 15s-6.716 15-15 15h-118.61c3.263 8.255 5.077 17.236 5.077 26.637v7.629h49.267c8.284 0 15 6.716 15 15s-6.716 15-15 15h-49.268v34.267h113.533c8.284 0 15 6.716 15 15v64.267c0 8.284-6.716 15-15 15h-113.533v64.267h158.667c18.851 0 34.133-15.282 34.133-34.133v-313.2h-204.153c-18.851.001-39.027-15.281-39.027-34.133z"></path></g></svg>