<svg xmlns="http://www.w3.org/2000/svg" height="512" viewBox="0 0 512 512" width="512"><g id="_x31_587_x2C__Cloud_Backup_x2C__Cloud_Computing_x2C__Cloud_Storage_x2C__Online_Backup_x2C__Online_Storage"><g><path d="m429.315 441.258v-22.143c0-2.705-1.076-5.295-2.988-7.207l-27.592-27.602v-67.605c57.076-5.17 101.94-53.275 101.94-111.677 0-24.105-7.48-46.966-21.686-66.285-7.361-43.769-45.78-76.445-90.455-76.445-17.811 0-35.212 5.22-50.033 14.857-26.636-34.25-72.307-43.978-109.705-27.273-17.108-24.001-44.934-38.554-74.742-38.554-53.709 0-95.964 46.119-91.421 99.49-31.815 20.579-51.309 56.07-51.309 94.21 0 58.401 44.874 106.507 101.95 111.677v67.605l-27.602 27.602c-1.912 1.912-2.983 4.502-2.983 7.207v22.143c-11.868 4.209-20.39 15.544-20.39 28.832 0 16.864 13.721 30.585 30.585 30.585s30.585-13.721 30.585-30.585c0-13.288-8.521-24.623-20.39-28.832v-17.92l27.597-27.597c1.912-1.912 2.988-4.507 2.988-7.212v-71.359h244.681v71.359c0 2.705 1.065 5.3 2.978 7.212l27.603 27.597v17.92c-11.864 4.209-20.391 15.544-20.391 28.832 0 16.864 13.727 30.585 30.59 30.585 16.864 0 30.58-13.721 30.58-30.585 0-13.288-8.526-24.623-20.39-28.832zm-336.43 39.027c-5.623 0-10.195-4.572-10.195-10.195 0-5.618 4.572-10.195 10.195-10.195 5.618 0 10.195 4.577 10.195 10.195 0 5.623-4.577 10.195-10.195 10.195zm173.31-295.651c5.628 0 10.199 4.572 10.199 10.195s-4.571 10.195-10.199 10.195c-5.618 0-10.19-4.572-10.19-10.195 0-5.622 4.572-10.195 10.19-10.195zm-233.903 10.195h75.883c29.161 38.803 27.402 36.706 28.479 37.787-1.913 3.994-2.988 8.467-2.988 13.188 0 16.863 13.716 30.585 30.58 30.585 16.869 0 30.59-13.722 30.59-30.585 0-16.864-13.721-30.585-30.59-30.585-4.672 0-9.109 1.061-13.079 2.948l-29.733-39.649c-1.927-2.57-4.95-4.079-8.158-4.079h-76.287c7.316-20.634 21.899-38.37 41.557-49.431 3.721-2.097 5.742-6.286 5.065-10.504-7.033-43.749 26.874-82.795 70.443-82.795 25.749 0 49.596 13.976 62.236 36.462 2.789 4.956 9.104 6.684 14.024 3.811 7.919-4.617 16.655-7.641 25.689-8.945v102.961c-11.868 4.208-20.39 15.544-20.39 28.832 0 16.864 13.716 30.585 30.58 30.585 16.863 0 30.59-13.721 30.59-30.585 0-13.288-8.526-24.623-20.391-28.832v-102.981c21.11 2.983 39.698 15.165 50.963 33.857 3.247 5.379 10.519 6.554 15.29 2.54 12.829-10.788 29.126-16.729 45.89-16.729 35.461 0 65.842 26.452 70.673 61.529.239 1.758.937 3.427 2.022 4.836 6.016 7.794 10.648 16.341 13.846 25.391h-76.341c-3.218 0-6.235 1.509-8.158 4.079l-29.733 39.649c-3.975-1.888-8.407-2.948-13.089-2.948-16.863 0-30.58 13.721-30.58 30.585 0 16.863 13.717 30.585 30.58 30.585 16.864 0 30.591-13.722 30.591-30.585 0-4.722-1.076-9.194-2.999-13.188 1.076-1.076-.638.956 28.479-37.787h75.893c6.026 55.119-37.224 101.95-91.183 101.95h-265.066c-54.442-.002-97.283-47.48-91.178-101.952zm121.763 50.976c0-5.623 4.572-10.195 10.19-10.195 5.628 0 10.2 4.572 10.2 10.195s-4.572 10.195-10.2 10.195c-5.618 0-10.19-4.572-10.19-10.195zm203.9 0c0 5.623-4.582 10.195-10.2 10.195s-10.189-4.572-10.189-10.195 4.571-10.195 10.189-10.195 10.2 4.572 10.2 10.195zm61.17 234.48c-5.628 0-10.199-4.572-10.199-10.195 0-5.618 4.571-10.195 10.199-10.195 5.618 0 10.19 4.577 10.19 10.195 0 5.623-4.572 10.195-10.19 10.195z"></path><path d="m203.316 342.097c-4.029-6.036-12.929-6.056-16.968 0l-40.78 61.17c-2.082 3.128-2.281 7.152-.503 10.464 1.773 3.317 5.229 5.385 8.99 5.385h10.19v71.365c0 5.633 4.567 10.194 10.2 10.194h40.78c5.628 0 10.19-4.562 10.19-10.194v-71.365h10.2c3.755 0 7.211-2.067 8.984-5.385 1.773-3.312 1.584-7.336-.508-10.464zm11.909 56.628c-5.633 0-10.2 4.567-10.2 10.195v71.365h-20.39v-71.365c0-5.628-4.562-10.195-10.19-10.195h-1.345l21.735-32.592 21.729 32.592z"></path><path d="m347.755 419.115h-10.189v-71.365c0-5.628-4.572-10.19-10.2-10.19h-40.78c-5.628 0-10.19 4.563-10.19 10.19v71.365h-10.199c-3.756 0-7.212 2.071-8.985 5.384-1.772 3.316-1.583 7.341.509 10.469l40.779 61.17c4.024 6.036 12.92 6.057 16.964 0l40.78-61.17c2.082-3.128 2.281-7.152.508-10.469-1.785-3.312-5.231-5.384-8.997-5.384zm-40.78 52.987-21.725-32.597h1.335c5.628 0 10.2-4.563 10.2-10.195v-71.365h20.39v71.365c0 5.633 4.563 10.195 10.19 10.195h1.345z"></path><path d="m133.665 92.879h20.39v20.391h-20.39z"></path><path d="m133.665 133.659h20.39v20.39h-20.39z"></path><path d="m154.055 113.27h20.39v20.39h-20.39z"></path><path d="m113.274 113.27h20.391v20.39h-20.391z"></path><path d="m449.705 337.56h20.391v20.385h-20.391z"></path><path d="m449.705 378.335h20.391v20.39h-20.391z"></path><path d="m470.096 357.944h20.39v20.391h-20.39z"></path><path d="m429.315 357.944h20.39v20.391h-20.39z"></path></g></g></svg>