<svg xmlns="http://www.w3.org/2000/svg" viewBox="0 0 64 64" width="512" height="512"><g id="Layer_16" data-name="Layer 16"><path d="M32,14A18,18,0,1,0,50,32,18,18,0,0,0,32,14Zm0,34A16,16,0,1,1,48,32,16,16,0,0,1,32,48Z"></path><path d="M43,27a3,3,0,0,0-3-3,1,1,0,0,0,0,2,1,1,0,0,1,1,1v2a4,4,0,0,0,1.38,3A4,4,0,0,0,41,35v2a1,1,0,0,1-1,1,1,1,0,0,0,0,2,3,3,0,0,0,3-3V35a2,2,0,0,1,2-2,1,1,0,0,0,0-2,2,2,0,0,1-2-2Z"></path><path d="M27,29h5a1,1,0,0,0,0-2H27a1,1,0,0,0,0,2Z"></path><path d="M37,27H36a1,1,0,0,0,0,2h1a1,1,0,0,0,0-2Z"></path><path d="M27,33h1a1,1,0,0,0,0-2H27a1,1,0,0,0,0,2Z"></path><path d="M37,31H32a1,1,0,0,0,0,2h5a1,1,0,0,0,0-2Z"></path><path d="M37,35H27a1,1,0,0,0,0,2H37a1,1,0,0,0,0-2Z"></path><path d="M23,29V27a1,1,0,0,1,1-1,1,1,0,0,0,0-2,3,3,0,0,0-3,3v2a2,2,0,0,1-2,2,1,1,0,0,0,0,2,2,2,0,0,1,2,2v2a3,3,0,0,0,3,3,1,1,0,0,0,0-2,1,1,0,0,1-1-1V35a4,4,0,0,0-1.38-3A4,4,0,0,0,23,29Z"></path><path d="M59.22,27l-3.95-.87a23.8,23.8,0,0,0-2.68-6.47l2.17-3.41A1,1,0,0,0,54.63,15L49,9.37a1,1,0,0,0-1.24-.13l-3.41,2.17a23.8,23.8,0,0,0-6.47-2.68L37,4.78A1,1,0,0,0,36,4H28a1,1,0,0,0-1,.78l-.87,4a23.8,23.8,0,0,0-6.47,2.68L16.27,9.24A1,1,0,0,0,15,9.37L9.37,15a1,1,0,0,0-.13,1.24l2.17,3.41a23.8,23.8,0,0,0-2.68,6.47L4.78,27A1,1,0,0,0,4,28v8a1,1,0,0,0,.78,1l4,.87a23.8,23.8,0,0,0,2.68,6.47L9.24,47.73A1,1,0,0,0,9.37,49L15,54.63a1,1,0,0,0,1.24.13l3.41-2.17a23.8,23.8,0,0,0,6.47,2.68L27,59.22A1,1,0,0,0,28,60h8a1,1,0,0,0,1-.78l.87-3.95a23.8,23.8,0,0,0,6.47-2.68l3.41,2.17A1,1,0,0,0,49,54.63L54.63,49a1,1,0,0,0,.13-1.24l-2.17-3.41a23.8,23.8,0,0,0,2.68-6.47L59.22,37A1,1,0,0,0,60,36V28A1,1,0,0,0,59.22,27ZM58,35.2,54.23,36a1,1,0,0,0-.76.75,21.82,21.82,0,0,1-2.9,7,1,1,0,0,0,0,1.07l2.08,3.26-4.53,4.53-3.26-2.08a1,1,0,0,0-1.07,0,21.82,21.82,0,0,1-7,2.9,1,1,0,0,0-.75.76L35.2,58H28.8L28,54.23a1,1,0,0,0-.75-.76,21.82,21.82,0,0,1-7-2.9,1,1,0,0,0-1.07,0l-3.26,2.08-4.53-4.53,2.08-3.26a1,1,0,0,0,0-1.07,21.82,21.82,0,0,1-2.9-7A1,1,0,0,0,9.77,36L6,35.2V28.8L9.77,28a1,1,0,0,0,.76-.75,21.82,21.82,0,0,1,2.9-7,1,1,0,0,0,0-1.07l-2.08-3.26,4.53-4.53,3.26,2.08a1,1,0,0,0,1.07,0,21.82,21.82,0,0,1,7-2.9A1,1,0,0,0,28,9.77L28.8,6h6.4L36,9.77a1,1,0,0,0,.75.76,21.82,21.82,0,0,1,7,2.9,1,1,0,0,0,1.07,0l3.26-2.08,4.53,4.53-2.08,3.26a1,1,0,0,0,0,1.07,21.82,21.82,0,0,1,2.9,7,1,1,0,0,0,.76.75L58,28.8Z"></path></g></svg>