<svg xmlns="http://www.w3.org/2000/svg" id="Layer_1" viewBox="0 0 75 75"><g id="Computer_Vision"><path d="m63.8754883 5.7143555h-52.7514649c-3.5146484 0-6.3740234 2.9609375-6.3740234 6.5996093v38.6083984c0 3.6386719 2.859375 6.5986328 6.3740234 6.5986328h52.7514648c3.5151367 0 6.3745117-2.9599609 6.3745117-6.5986328v-38.6083984c.0000001-3.6386718-2.8593749-6.5996093-6.3745116-6.5996093zm4.8745117 45.2080078c0 2.8115234-2.1865234 5.0986328-4.8745117 5.0986328h-52.7514649c-2.6875 0-4.8740234-2.2871094-4.8740234-5.0986328v-38.6083985c0-2.8115234 2.1865234-5.0996094 4.8740234-5.0996094h52.7514648c2.6879883 0 4.8745117 2.2880859 4.8745117 5.0996094v38.6083985z"></path><path d="m48.081543 66.6391602c.4140625 0 .75-.3359375.75-.75v-3.4248047c0-1.5566406-1.5527344-2.7763672-3.5351563-2.7763672h-13.9233398c-1.9824219 0-3.5351563 1.2197266-3.5351563 2.7763672v3.4248047c0 .4140625.3359375.75.75.75s.75-.3359375.75-.75v-3.4248047c0-.6796875.9511719-1.2763672 2.0351563-1.2763672h13.9233398c1.0839844 0 2.0351563.5966797 2.0351563 1.2763672v3.4248047c0 .4140625.3359375.75.75.75z"></path><path d="m22.6665039 68.5356445c0 .4140625.3359375.75.75.75h29.8359375c.4140625 0 .75-.3359375.75-.75s-.3359375-.75-.75-.75h-29.8359375c-.4140625 0-.75.3359375-.75.75z"></path><path d="m39.6767578 49.7602539h-2.6831055c-.5180664 0-.9399414.4033203-.9399414.8984375v2.9248047c0 .4951172.421875.8974609.9399414.8974609h2.6831055c.5180664 0 .9399414-.4023438.9399414-.8974609v-2.9248047c0-.4951172-.421875-.8984375-.9399414-.8984375zm-.5600586 3.2207031h-1.5629883v-1.7207031h1.5629883z"></path><path d="m58.5898438 51.3706055h-15.0107422c-.4140625 0-.75.3359375-.75.75s.3359375.75.75.75h15.0107422c.4140625 0 .75-.3359375.75-.75s-.3359375-.75-.75-.75z"></path><path d="m33.0913086 51.3706055h-15.0107422c-.4140625 0-.75.3359375-.75.75s.3359375.75.75.75h15.0107422c.4140625 0 .75-.3359375.75-.75s-.3359375-.75-.75-.75z"></path><path d="m37.472168 26.8608398c-1.4770508 0-2.6787109 1.2148438-2.6787109 2.7070313s1.2016602 2.7060547 2.6787109 2.7060547c1.4765625 0 2.6782227-1.2138672 2.6782227-2.7060547s-1.2016602-2.7070313-2.6782227-2.7070313zm0 3.913086c-.6499023 0-1.1787109-.5410156-1.1787109-1.2060547 0-.6660156.5288086-1.2070313 1.1787109-1.2070313s1.1782227.5410156 1.1782227 1.2070313c-.0000001.6650391-.5283204 1.2060547-1.1782227 1.2060547z"></path><path d="m62.1625977 28.7719727h-3.9667358c-.0978394-.2128906-.2384033-.4061279-.4175415-.5644531-.8089905-.7158527-1.5312996-1.3508053-2.5478516-2.1642456v-3.3377075l2.9008789-2.7539063c.3007813-.2851563.3129883-.7597656.027832-1.0605469-.2856445-.3017578-.7612305-.3125-1.0600586-.0273438l-3.1347656 2.9755859c-.1494141.1416016-.2338867.3378906-.2338867.5439453v2.5070801c-1.4384499-1.0610905-2.2051506-1.5391006-3.1912842-2.12854.0490532-.2744579.0056381.3403244.0257568-3.416626l4.9393921-4.6964111c1.5384331.7309065 3.2608032-.4170446 3.2608032-2.0897217 0-1.2763672-1.0283203-2.3144531-2.2919922-2.3144531-1.6607704 0-2.8298378 1.7689342-2.0379639 3.3505249l-5.1368408 4.8848267c-.1489258.1416016-.2333984.3388672-.2333984.5439453v2.9074097c-2.4675255-1.318037-4.8785973-2.287775-7.6466675-2.8251343.0007362-.386795.0037956-1.9955082.0036011-1.8928223l1.6176758-1.4785156c.3056641-.2792969.3266602-.7539063.046875-1.0595703-.2802734-.3076172-.7548828-.3261719-1.0595703-.0478516l-1.8613281 1.7021484c-.1552734.1425781-.2436523.3427734-.2436523.5537109v1.9885864c-1.7921257-.2188549-2.7696533-.1629276-3.7353516-.0985107v-1.8900757c0-.2109375-.0883789-.4111328-.2436523-.5537109l-1.8608398-1.7021484c-.3051758-.2773438-.7788086-.2587891-1.0595703.0478516-.2797852.3056641-.2587891.7792969.046875 1.0595703l1.6171875 1.4785156v1.7174683c-2.9511719.4147949-5.6999512 1.4230957-8.1254883 2.6589355v-2.699646c0-.2050781-.0844727-.4023438-.2333984-.5439453l-5.2857666-5.0264893c.6321564-1.5187263-.4786358-3.2078857-2.1136475-3.2078857-1.2636719 0-2.2915039 1.0380859-2.2915039 2.3144531 0 1.7236185 1.8369045 2.8982611 3.4034424 2.0112305l5.020874 4.7739258v3.1878052c-1.409668.8092651-2.6902466 1.666748-3.8022461 2.4862671v-2.5021973c0-.2060547-.0844727-.4023438-.2338867-.5439453l-3.1352539-2.9755859c-.300293-.2851563-.7749023-.2744141-1.0600586.0273438-.2851563.3007813-.2729492.7753906.027832 1.0605469l2.9013672 2.7539063v3.3375244c-1.0141506.8133774-1.7166615 1.431324-2.5478516 2.1644287-.1791382.1583252-.3197021.3515625-.4175415.5644531-.1788368 0-4.0210228 0-3.8671265 0-.4140625 0-.75.3359375-.75.75s.3359375.75.75.75c.8062735 0 4.016077 0 3.9133911 0 .0949097.1803589.2155151.3477173.3712769.4853516.6081543.5380859 1.4993896 1.2727661 2.5958252 2.0818481-.0934391.2756424-.0253849.033886-.0479736 3.8068237l-2.9013672 2.7529297c-.3007813.2851563-.3129883.7597656-.027832 1.0605469.2840538.2991028.758749.3134346 1.0600586.0273438l3.1352539-2.9746094c.1494141-.1416016.2338867-.3378906.2338867-.5439453v-3.1077881c1.6821728 1.1316185 2.4666348 1.5285912 3.9711914 2.3079834v2.8359375l-5.0215454 4.7745361c-1.5616112-.8835754-3.402771.2831383-3.402771 2.0115967 0 1.2763672 1.027832 2.3144531 2.2915039 2.3144531s2.2919922-1.0380859 2.2919922-2.3144531c0-.3169556-.0639648-.6188965-.1785889-.894165l5.2860107-5.0267334c.1489258-.1416016.2333984-.3388672.2333984-.5439453v-2.4050903c2.6867676 1.2086182 5.3513794 1.9865723 7.956543 2.3113403v1.7714844l-1.6166992 1.4775391c-.3056641.2792969-.3271484.7539063-.0478516 1.0595703.2810631.3079643.7574043.3253517 1.0595703.0478516l1.8608398-1.7011719c.1557617-.1425781.2441406-.3427734.2441406-.5537109v-1.9633179c1.2330246.0728645 2.2485809.0538712 3.7353516-.1092529v2.0725708c0 .2109375.0883789.4111328.2441406.5537109l1.8613281 1.7011719c.3022308.2775574.7785873.2600212 1.0595703-.0478516.2792969-.3056641.2578125-.7802734-.0478516-1.0595703l-1.6171875-1.4785156c-.0058556-.9309731.012085-1.6802063-.0145874-1.9462891 2.6270752-.4563599 5.0802002-1.3182983 7.2645874-2.3379517v2.741272c0 .2050781.0844727.4023438.2333984.5439453l5.2857666 5.0264893c-.6321564 1.5187263.4786339 3.2078857 2.1136475 3.2078857 1.2636719 0 2.2915039-1.0380859 2.2915039-2.3144531 0-1.7236176-1.8369064-2.898262-3.4034424-2.0112305l-5.020874-4.7739258v-3.161499c1.3191528-.6932983 2.5119629-1.4207153 3.5585938-2.1221313v3.1137085c0 .2060547.0844727.4023438.2338867.5439453l3.1347656 2.9746094c.301506.2862778.7761841.2715683 1.0600586-.0273438.2851563-.3007813.2729492-.7753906-.027832-1.0605469l-2.9008789-2.7529297c-.02248-3.7661171.0455246-3.533226-.0481567-3.8078613 1.1588745-.8515015 2.0502319-1.5979614 2.5960083-2.0808105.1557617-.1376343.2763672-.3049927.3712769-.4853516h4.0130005c.4140625 0 .75-.3359375.75-.75s-.3359375-.7500002-.75-.7500002zm-5.6894532-17.0273438c.4365234 0 .7919922.3652344.7919922.8144531 0 .5001202-.4584465.9481459-1.0236206.7662354-.0924873-.2543764-.2719498-.3873262-.4981689-.4524536-.2190018-.5378247.1679992-1.1282349.7297973-1.1282349zm-37.5449218 1.4960938c-.4365234 0-.7915039-.3652344-.7915039-.8144531s.3549805-.8144531.7915039-.8144531.7919922.3652344.7919922.8144531-.3554688.8144531-.7919922.8144531zm.1689453 33.3642578c-.4365234 0-.7915039-.3652344-.7915039-.8144531s.3549805-.8144531.7915039-.8144531.7919922.3652344.7919922.8144531-.3554688.8144531-.7919922.8144531zm37.2075195-1.4960938c.4365234 0 .7915039.3652344.7915039.8144531s-.3549805.8144531-.7915039.8144531-.7919922-.3652344-.7919922-.8144531.3554688-.8144531.7919922-.8144531zm.4967041-15.4992065c-.0067749.0081787-.0084229.0168457-.0172119.0245972-2.1948242 1.9414063-10.0717773 8.2763672-19.2895508 8.2763672-6.9609394 0-14.1341476-3.7405815-19.2210693-8.2177124.0297337-.1233387.0669479-.1748486-.013916-.4108276 10.3845234-9.1940937 20.0726089-12.262146 31.8077393-5.0648193 3.1665306 1.9341373 6.6397209 4.9922676 6.74646 5.1555176-.010437.0498047-.0301514.0962524-.0301514.1491699-.0000001.0311278.014038.057617.0177001.0877074z"></path><path d="m44.7709961 32.2709961h-1.590332c-.0043335 0-.0078735.0023804-.012207.0024414v-4.3769531c.0043335.000061.0078735.0024414.012207.0024414h1.590332c.4140625 0 .75-.3359375.75-.75s-.3359375-.75-.75-.75h-1.590332c-.0043335 0-.0078735.0023804-.012207.0024414v-.6313477c0-.1992188-.0791016-.3896484-.2197266-.5302734l-1.2558594-1.2558594c-.140625-.140625-.331543-.2197266-.5302734-.2197266h-.6484375v-1.5634766c0-.4140625-.3359375-.75-.75-.75s-.75.3359375-.75.75v1.5634766h-3.0688477v-1.5634766c0-.4140625-.3359375-.75-.75-.75s-.75.3359375-.75.75v1.5634766h-.6484375c-.1987305 0-.3896484.0791016-.5302734.2197266l-1.2558594 1.2558594c-.140625.140625-.2197266.3310547-.2197266.5302734v.7340698c-.1084595-.0609741-.2271118-.1051636-.3603516-.1051636h-1.5898438c-.4140625 0-.75.3359375-.75.75s.3359375.75.75.75h1.5898438c.1332397 0 .2518921-.0441895.3603516-.1051636v3.4632568c-.1084595-.0609741-.2271118-.1051636-.3603516-.1051636h-1.5898438c-.4140625 0-.75.3359375-.75.75s.3359375.75.75.75h1.5898438c.1332397 0 .2518921-.0441895.3603516-.1051636.0487251.9634972-.131506 1.3535385.2197266 1.7047729.7024231.6336746.8514786 1.0351563 1.3461914 1.0351563h1.0883789v1.2236328c0 .4140625.3359375.75.75.75s.75-.3359375.75-.75v-1.2236328h3.0688477v1.2236328c0 .4140625.3359375.75.75.75s.75-.3359375.75-.75v-1.2236328h.6484375c.1987305 0 .3896484-.0791016.5302734-.2197266l1.2558594-1.2558594c.0221558-.0221558.0321655-.052124.0512085-.0765381.0593872.0151367.1166382.036499.1807251.036499h1.590332c.4140625 0 .75-.3359375.75-.75s-.3359375-.7499997-.75-.7499997zm-3.1025391.6992187-.8164063.8164063h-7.1845703l-.3764648-.3759766v-7.3300781l.8164063-.8164063h6.7446289l.8164063.8164063v6.8896484z"></path><path d="m50.8510742 29.3354492h-4.8710938c-.4140625 0-.75.3359375-.75.75s.3359375.75.75.75h4.8710938c.4140625 0 .75-.3359375.75-.75s-.3359375-.75-.75-.75z"></path><path d="m28.246582 28.7758789h-4.871582c-.4140625 0-.75.3359375-.75.75s.3359375.75.75.75h4.871582c.4140625 0 .75-.3359375.75-.75s-.3359375-.75-.75-.75z"></path></g></svg>