<svg xmlns="http://www.w3.org/2000/svg" id="Layer_1" height="512" viewBox="0 0 100 100" width="512"><g><g><path d="m44.583 66.595c-4.272 0-7.813-3.188-8.362-7.31-.206.015-.412.022-.62.022-4.652 0-8.437-3.78-8.437-8.427 0-2.784 1.37-5.359 3.631-6.926-.351-.855-.541-1.783-.541-2.739 0-3.667 2.664-6.662 6.205-7.156.753-3.88 4.181-6.82 8.283-6.82 2.245 0 4.363.877 5.966 2.47.188.188.295.443.295.709v32.832c0 .255-.097.499-.271.685-1.589 1.69-3.83 2.66-6.149 2.66zm-6.437-8.425c.002 3.543 2.889 6.425 6.437 6.425 1.641 0 3.23-.637 4.42-1.758v-31.986c-1.184-1.042-2.682-1.612-4.261-1.612-3.55 0-6.438 2.883-6.438 6.427 0 1.278.374 2.511 1.081 3.566.308.458.186 1.08-.273 1.388-.459.307-1.08.185-1.387-.273-.846-1.26-1.328-2.712-1.409-4.225-2.316.539-4.063 2.638-4.063 5.094 0 .927.247 1.818.69 2.593.009.014.017.028.025.043.536.917 1.35 1.669 2.354 2.125.503.228.726.821.498 1.324-.228.502-.816.727-1.324.499-1.072-.486-1.988-1.218-2.69-2.11-1.649 1.204-2.644 3.123-2.644 5.192 0 3.544 2.888 6.427 6.437 6.427.201 0 .398-.009.593-.025.217-2.051 1.183-3.97 2.724-5.364.409-.372 1.042-.339 1.412.07.371.409.339 1.042-.07 1.412-1.334 1.208-2.104 2.933-2.112 4.734zm6.437 5.138c-2.841 0-5.152-2.306-5.152-5.141 0-.553.447-1 1-1s1 .447 1 1c0 1.731 1.414 3.141 3.152 3.141.553 0 1 .447 1 1s-.447 1-1 1z"></path></g><g><path d="m42.071 35.2c-.301 0-.598-.135-.795-.392-.336-.438-.253-1.066.186-1.402l2.224-1.703c.439-.335 1.066-.252 1.402.186s.253 1.066-.186 1.402l-2.224 1.703c-.181.138-.395.206-.607.206z"></path></g><g><path d="m37.006 44.848c-.301 0-.598-.135-.795-.392-.336-.438-.253-1.066.186-1.402l2.223-1.702c.44-.334 1.066-.252 1.402.186s.253 1.066-.186 1.402l-2.223 1.702c-.181.138-.395.206-.607.206z"></path></g><g><path d="m32.924 53.571c-.301 0-.598-.135-.795-.392-.336-.438-.253-1.066.186-1.402l2.224-1.703c.44-.334 1.067-.252 1.402.186.336.438.253 1.066-.186 1.402l-2.224 1.702c-.181.14-.395.207-.607.207z"></path></g><g><path d="m47.313 42.35c-.212 0-.427-.067-.607-.207l-2.218-1.702c-.438-.336-.521-.964-.185-1.402.335-.436.965-.521 1.401-.185l2.218 1.702c.438.336.521.964.185 1.402-.197.257-.494.392-.794.392z"></path></g><g><path d="m44.316 50.655c-.212 0-.427-.067-.607-.207l-2.218-1.702c-.438-.336-.521-.964-.185-1.402.335-.437.965-.521 1.401-.185l2.218 1.702c.438.336.521.964.185 1.402-.196.258-.493.392-.794.392z"></path></g><g><path d="m55.417 66.595c-2.35 0-4.531-.944-6.143-2.66-.175-.186-.271-.43-.271-.685v-32.832c0-.266.105-.52.293-.708 1.597-1.594 3.714-2.472 5.962-2.472 4.102 0 7.529 2.939 8.282 6.82 3.542.494 6.206 3.489 6.206 7.156 0 .956-.19 1.884-.541 2.739 2.261 1.567 3.631 4.143 3.631 6.926 0 4.647-3.784 8.427-8.437 8.427-.207 0-.414-.007-.619-.021-.549 4.121-4.091 7.31-8.363 7.31zm-4.414-3.757c1.198 1.136 2.751 1.757 4.414 1.757 3.549 0 6.436-2.882 6.438-6.424 0-.013 0-.024 0-.036-.009-1.802-.778-3.525-2.113-4.734-.409-.37-.441-1.003-.07-1.412.37-.409 1.003-.442 1.412-.07 1.541 1.395 2.508 3.313 2.725 5.364.193.017.391.025.592.025 3.549 0 6.437-2.883 6.437-6.427 0-2.07-.994-3.989-2.644-5.192-.702.893-1.618 1.624-2.69 2.11-.508.228-1.097.004-1.324-.499-.228-.503-.005-1.096.498-1.324 1.005-.455 1.818-1.207 2.354-2.125.008-.015.017-.029.025-.043.443-.775.69-1.666.69-2.593 0-2.457-1.746-4.556-4.063-5.094-.081 1.514-.563 2.967-1.408 4.226-.307.458-.928.581-1.387.273s-.581-.929-.273-1.388c.706-1.054 1.08-2.287 1.08-3.566 0-3.544-2.888-6.427-6.437-6.427-1.58 0-3.076.569-4.255 1.611v31.988zm4.414.47c-.553 0-1-.447-1-1s.447-1 1-1c1.738 0 3.152-1.409 3.152-3.141 0-.553.447-1 1-1s1 .447 1 1c0 2.835-2.311 5.141-5.152 5.141z"></path></g><g><path d="m57.929 35.2c-.212 0-.426-.067-.607-.206l-2.224-1.703c-.438-.336-.521-.963-.186-1.402.337-.438.964-.522 1.402-.186l2.224 1.703c.438.336.521.963.186 1.402-.198.257-.495.392-.795.392z"></path></g><g><path d="m62.994 44.848c-.212 0-.426-.067-.607-.206l-2.223-1.702c-.438-.336-.521-.963-.186-1.402.337-.438.963-.521 1.402-.186l2.223 1.702c.438.336.521.963.186 1.402-.197.257-.494.392-.795.392z"></path></g><g><path d="m67.075 53.571c-.212 0-.426-.067-.607-.206l-2.223-1.703c-.438-.336-.521-.963-.186-1.401.336-.438.963-.521 1.402-.186l2.223 1.703c.438.336.521.964.186 1.402-.197.257-.494.391-.795.391z"></path></g><g><path d="m52.688 42.35c-.301 0-.598-.135-.794-.391-.337-.438-.254-1.066.185-1.402l2.218-1.702c.438-.336 1.067-.251 1.401.185.337.438.254 1.066-.185 1.402l-2.218 1.702c-.181.139-.396.206-.607.206z"></path></g><g><path d="m55.684 50.655c-.301 0-.598-.135-.794-.391-.337-.438-.254-1.066.185-1.402l2.218-1.702c.438-.336 1.067-.252 1.401.185.337.438.254 1.066-.185 1.402l-2.218 1.702c-.181.139-.395.206-.607.206z"></path></g><g><path d="m74.259 66.43c-.19 0-.383-.054-.553-.167-2.157-1.435-2.83-4.317-1.533-6.563 1.117-1.93 3.368-2.833 5.445-2.318 1.269-3.334 1.911-6.85 1.911-10.464 0-3.612-.643-7.126-1.912-10.46-2.083.508-4.328-.396-5.443-2.32-1.115-1.926-.779-4.321.702-5.87-4.604-5.635-10.984-9.315-18.14-10.462-.601 2.057-2.507 3.548-4.733 3.548-2.229 0-4.139-1.491-4.739-3.548-7.155 1.147-13.535 4.827-18.14 10.462 1.481 1.548 1.817 3.943.702 5.869-1.116 1.927-3.365 2.832-5.443 2.321-1.27 3.332-1.912 6.846-1.912 10.46 0 3.612.643 7.127 1.912 10.463 2.076-.509 4.326.389 5.443 2.318 1.298 2.247.625 5.13-1.532 6.564-.459.305-1.082.182-1.387-.279-.306-.46-.181-1.081.279-1.387 1.28-.851 1.68-2.563.908-3.897-.773-1.336-2.461-1.84-3.835-1.155-.249.125-.535.14-.796.043-.26-.097-.468-.297-.574-.552-1.605-3.843-2.419-7.92-2.419-12.119 0-4.201.814-8.277 2.419-12.113.107-.255.314-.455.573-.551.26-.096.546-.081.794.042 1.382.686 3.065.175 3.839-1.161.771-1.333.372-3.044-.909-3.896-.23-.153-.387-.396-.433-.668-.046-.273.024-.553.192-.773 5.162-6.735 12.62-11.037 21.002-12.111.272-.038.551.045.764.22.213.176.344.433.361.708.098 1.536 1.384 2.739 2.93 2.739 1.542 0 2.826-1.203 2.924-2.739.018-.275.148-.532.361-.708.214-.175.49-.258.764-.22 8.382 1.074 15.84 5.375 21.002 12.111.168.22.238.5.192.773s-.202.515-.433.668c-1.281.852-1.681 2.563-.909 3.896.773 1.333 2.457 1.846 3.84 1.16.248-.122.535-.137.794-.041.259.097.467.296.573.551 1.604 3.84 2.418 7.916 2.418 12.113 0 4.202-.813 8.279-2.418 12.119-.107.255-.314.455-.574.552-.261.096-.548.081-.795-.043-1.377-.686-3.063-.181-3.838 1.156-.771 1.334-.371 3.046.909 3.896.46.306.585.927.279 1.387-.191.289-.509.446-.832.446z"></path></g><g><path d="m50.003 21.352c-2.721 0-4.934-2.211-4.934-4.929 0-2.714 2.213-4.923 4.934-4.923 2.717 0 4.928 2.208 4.928 4.923 0 2.718-2.211 4.929-4.928 4.929zm0-7.852c-1.617 0-2.934 1.311-2.934 2.923 0 1.615 1.316 2.929 2.934 2.929 1.614 0 2.928-1.314 2.928-2.929 0-1.612-1.314-2.923-2.928-2.923z"></path></g><g><path d="m76.443 36.598c-1.757 0-3.393-.944-4.271-2.464-.658-1.141-.833-2.469-.492-3.74.341-1.272 1.157-2.335 2.299-2.993.745-.431 1.595-.659 2.455-.659 1.758 0 3.396.943 4.275 2.461.66 1.142.835 2.471.494 3.743-.342 1.271-1.157 2.334-2.299 2.991-.749.433-1.6.661-2.461.661zm-.008-7.855c-.51 0-1.013.135-1.455.391-.68.392-1.165 1.022-1.367 1.778s-.099 1.545.293 2.223c.521.903 1.494 1.464 2.538 1.464.511 0 1.017-.136 1.464-.394.678-.39 1.162-1.021 1.365-1.776.202-.756.098-1.545-.294-2.223-.523-.903-1.498-1.463-2.544-1.463z"></path></g><g><path d="m76.438 67.092c-.861 0-1.712-.229-2.461-.661-1.139-.656-1.955-1.718-2.297-2.988-.342-1.272-.167-2.602.492-3.743.878-1.52 2.515-2.464 4.271-2.464.86 0 1.711.228 2.461.66 1.142.657 1.958 1.72 2.299 2.992.341 1.271.166 2.601-.493 3.74-.877 1.519-2.514 2.464-4.272 2.464zm.006-7.857c-1.045 0-2.018.561-2.539 1.464-.392.679-.496 1.468-.293 2.224.203.755.688 1.385 1.365 1.774.446.259.95.395 1.461.395 1.046 0 2.019-.562 2.54-1.464.392-.678.496-1.467.294-2.223-.203-.756-.688-1.387-1.365-1.777-.446-.257-.953-.393-1.463-.393z"></path></g><g><path d="m23.557 36.598c-.861 0-1.712-.229-2.462-.66-1.142-.658-1.958-1.721-2.299-2.993-.341-1.271-.166-2.6.492-3.74.881-1.52 2.52-2.462 4.277-2.462.86 0 1.71.228 2.457.66 1.14.657 1.956 1.72 2.297 2.992.341 1.271.166 2.6-.492 3.74-.879 1.519-2.514 2.463-4.27 2.463zm.008-7.855c-1.047 0-2.022.561-2.546 1.464-.391.676-.494 1.465-.292 2.221.203.755.688 1.386 1.365 1.777.447.257.953.393 1.464.393 1.044 0 2.017-.561 2.538-1.464.392-.677.495-1.467.293-2.222s-.688-1.386-1.365-1.777c-.444-.257-.947-.392-1.457-.392z"></path></g><g><path d="m23.562 67.092c-1.758 0-3.395-.944-4.273-2.464-.658-1.141-.833-2.469-.492-3.74s1.157-2.335 2.299-2.992c.75-.433 1.601-.66 2.461-.66 1.756 0 3.393.943 4.271 2.464.659 1.142.834 2.471.492 3.743-.342 1.271-1.158 2.332-2.299 2.989-.748.43-1.598.66-2.459.66zm-.006-7.857c-.511 0-1.017.136-1.463.393-.678.391-1.162 1.022-1.365 1.777-.202.756-.099 1.545.293 2.223.521.902 1.495 1.464 2.541 1.464.511 0 1.015-.136 1.459-.394.68-.391 1.164-1.021 1.367-1.775.203-.756.099-1.545-.293-2.224-.522-.903-1.495-1.464-2.539-1.464z"></path></g><g><path d="m50.003 82.156c-.553 0-1-.447-1-1v-17.906c0-.553.447-1 1-1s1 .447 1 1v17.906c0 .553-.447 1-1 1z"></path></g><g><path d="m71.376 74.723h-42.752c-.553 0-1-.447-1-1s.447-1 1-1h42.752c.553 0 1 .447 1 1s-.447 1-1 1z"></path></g><g><path d="m55.063 88.5h-10.126c-.553 0-1-.447-1-1v-6.344c0-.553.447-1 1-1h10.127c.553 0 1 .447 1 1v6.344c-.001.553-.448 1-1.001 1zm-9.126-2h8.127v-4.344h-8.127z"></path></g><g><path d="m71.376 82.156c-.553 0-1-.447-1-1v-7.434c0-.553.447-1 1-1s1 .447 1 1v7.434c0 .553-.447 1-1 1z"></path></g><g><path d="m28.624 82.156c-.553 0-1-.447-1-1v-7.434c0-.553.447-1 1-1s1 .447 1 1v7.434c0 .553-.447 1-1 1z"></path></g><g><path d="m76.437 88.5h-10.127c-.553 0-1-.447-1-1v-6.344c0-.553.447-1 1-1h10.127c.553 0 1 .447 1 1v6.344c0 .553-.448 1-1 1zm-9.127-2h8.127v-4.344h-8.127z"></path></g><g><path d="m33.69 88.5h-10.127c-.553 0-1-.447-1-1v-6.344c0-.553.447-1 1-1h10.127c.553 0 1 .447 1 1v6.344c0 .553-.447 1-1 1zm-9.127-2h8.127v-4.344h-8.127z"></path></g></g></svg>