<svg xmlns="http://www.w3.org/2000/svg" id="Handrawn" height="512" viewBox="0 0 512 512" width="512"><path d="m341 5.999c0-.001 0-.001 0 0-.014.191-.007.096 0 0z"></path><path d="m506.001 341c.001 0 .001 0 0 0-.191-.014-.096-.007 0 0z"></path><path d="m171 506.001c0 .001 0 .001 0 0 .014-.19.007-.096 0 0z"></path><path d="m5.999 171c-.001 0-.001 0 0 0 .191.014.096.007 0 0z"></path><path d="m172 6.003c0-.003 0-.002 0-.005v.005s-.001.001-.001.001c.02.18.064.581.001-.001z"></path><path d="m505.997 172h.005c-.002 0-.003 0-.005 0 0 0-.001-.001-.001-.001-.18.02-.581.064.001.001z"></path><path d="m340 505.997v.005c0-.002 0-.003 0-.005 0 0 .001-.001.001-.001-.02-.18-.064-.581-.001.001z"></path><path d="m6.003 340c-.003 0-.002 0-.005 0h.005s.001.001.001.001c.18-.02.581-.064-.001-.001z"></path><path d="m257.001 6.002c0-.001-.001-.003-.001-.004-.047.568-.014.184.001.004z"></path><path d="m505.999 257.001c.001 0 .003-.001.004-.001-.57-.047-.185-.014-.004.001z"></path><path d="m254.999 505.998c0 .001.001.003.001.004.047-.568.014-.184-.001-.004z"></path><path d="m6.001 254.999c-.001 0-.003.001-.004.001.57.047.185.014.004-.001z"></path><path d="m395.086 190.012c-.001 0-.002.001-.002.001-.1-.004-.338-.016.002-.001zm0 0c.001 0 .002.002.003.002.037.001.053.001-.003-.002zm111.295 169.395c-2.931 3.399-6.977 6.608-11.385 7.825-11.092 3.492-22.984-1.967-29.357-11.006-9.655 3.349-31.637 4.217-37.129.038-7.979-6.538-13.771-15.582-20.693-23.138-.96-1.126-3.123-4.677-4.595-5.547-.667-.453-4.199-.19-6.689-.588-1.497 16.851-5.568 33.07-16.111 46.369-10.354 13.627-27.143 22.298-43.719 25.102-2.596.534-5.265.921-7.979 1.21.217 2.359.362 4.609 1.49 4.795 8.302 2.741 16.035 14.202 21.396 20.589 4.4 5.22 5.753 7.032 6.309 14.298.097 2.439-.079 17.829-2.281 25.912 5.926 3.714 10.638 9.571 12.129 16.332 1.118 8.091-.786 16.125-6.237 22.419-1.553 1.813-19.678 11.917-20.243 6.298-.402 4.812-16.214-3.154-17.122-3.937-3.399-2.93-6.609-6.976-7.826-11.383-3.461-10.991 1.871-22.762 10.762-29.177-1.816-6.563-2.073-18.433-2.228-20.915-.908-3.989-9.564-10.178-12.242-13.165-3.886-4.336-12.144-11.648-13.57-17.74-1.369-1.362-.213-8.407 1.422-13.739-3.833-.066-7.606-.12-11.254-.072-5.809.002-11.614-.019-17.416-.058 4.223 14.713 1.831 52.084-1.985 65.331 9.099 5.946 14.168 16.215 12.287 27.683-1.332 7.588-7.411 14.509-14.482 17.304-.192.077-12.988 3.189-12.647-.638-.002 5.417-15.491-2.798-16.327-3.51-6.197-5.281-9.963-13.039-9.184-21.252.858-6.817 5.344-14.097 11.438-18.946-5.027-12.757-3.474-51.717.652-66.375-6.547-.127-13.096-.273-19.65-.456-2.948-.09-5.95-.144-8.985-.189 1.818 7.141.297 19.649-1.702 22.377-2.334 3.676-6.028 7.452-9.402 10.226-4.433 3.67-11.167 7.061-14.618 11.637-2.199 2.336-2.459 14.436-3.731 21.584 6.203 3.689 11.182 9.707 12.723 16.691 1.118 8.092-.785 16.126-6.236 22.421-1.553 1.813-19.677 11.908-20.245 6.307-.418 4.805-16.215-3.16-17.124-3.944-3.399-2.931-6.608-6.977-7.826-11.385-3.492-11.092 1.968-22.984 11.007-29.357-3.349-9.655-4.217-31.637-.038-37.129 6.538-7.979 15.582-13.771 23.138-20.693 1.126-.96 4.677-3.123 5.547-4.595.366-.539.265-2.935.418-5.147-15.045-1.283-29.701-4.451-42.021-12.859-11.791-8.047-20.828-20.107-26.087-33.288-2.789-7.313-4.337-15.121-5.163-23.133-2.063.191-3.871.415-4.036 1.42-2.741 8.302-14.202 16.035-20.589 21.396-5.22 4.4-7.032 5.753-14.298 6.309-2.439.097-17.829-.079-25.911-2.282-3.715 5.926-9.572 10.639-16.333 12.13-8.091 1.118-16.125-.786-22.419-6.237-1.813-1.553-11.917-19.678-6.298-20.243-4.812-.402 3.154-16.214 3.937-17.122 2.93-3.399 6.976-6.609 11.383-7.826 10.998-3.463 22.763 1.87 29.175 10.763 6.563-1.816 18.435-2.073 20.917-2.229 3.988-.908 10.178-9.564 13.166-12.242 4.335-3.886 11.648-12.144 17.739-13.57 1.288-1.295 7.654-.333 12.851 1.158.162-6.965.423-13.831.462-20.411.016-2.622.046-5.241.073-7.861-15.029 4.041-51.74 1.652-64.846-2.121-5.945 9.1-16.216 14.17-27.684 12.289-7.587-1.332-14.511-7.411-17.304-14.482-.076-.188-3.191-13.003.642-12.647.905.075 7.735 12.924 9.963 14.435 2.929 1.941 6.372 3.224 9.906 3.227 7.271.007 14.688-5.25 16.695-12.384 3.216-9.11-4.368-17.444-12.295-20.584-5.626-1.5-11.221.794-15.65 4.198-1.557 1.196-7.818 11.087-8.614 11.106-.085-.007-.129-.01-.005.001-5.427.007 2.793-15.491 3.506-16.328 5.281-6.197 13.039-9.963 21.252-9.184 6.816.858 14.094 5.343 18.944 11.437 12.679-5 51.249-3.486 66.108.582.288-9.544.66-19.085 1.134-28.625-7.1 1.91-19.842.381-22.599-1.64-3.676-2.334-7.452-6.028-10.226-9.402-3.67-4.433-7.061-11.167-11.637-14.618-2.336-2.199-14.436-2.459-21.584-3.731-3.689 6.203-9.707 11.182-16.691 12.723-8.092 1.118-16.126-.785-22.421-6.236-1.813-1.553-11.908-19.677-6.307-20.245-4.805-.418 3.16-16.215 3.944-17.124 2.931-3.399 6.977-6.608 11.385-7.826 11.092-3.492 22.984 1.968 29.357 11.007 9.655-3.349 31.637-4.217 37.129-.038 7.979 6.538 13.771 15.582 20.693 23.138.96 1.126 3.123 4.677 4.595 5.547.612.416 3.639.227 6.057.499 1.734-20.736 6.059-36.975 21.878-52.646 13.305-12.723 29.528-17.557 46.624-19.298-.261-2.579-.321-5.24-1.552-5.442-8.302-2.741-16.035-14.202-21.396-20.589-4.4-5.22-5.753-7.032-6.309-14.298-.097-2.439.079-17.829 2.281-25.912-5.926-3.714-10.638-9.571-12.129-16.332-1.118-8.091.786-16.125 6.237-22.419 1.553-1.813 19.678-11.917 20.243-6.298.402-4.812 16.214 3.154 17.122 3.937 3.399 2.93 6.609 6.976 7.826 11.383 3.461 10.991-1.871 22.763-10.762 29.177 1.816 6.563 2.073 18.433 2.228 20.915.908 3.989 9.564 10.178 12.242 13.166 3.886 4.335 12.144 11.648 13.57 17.739 1.401 1.394.159 8.74-1.536 14.11 4.516.054 9.017.143 13.466.184 5.175.049 10.345.122 15.514.217-4.489-14.233-2.083-52.527 1.79-65.973-9.099-5.945-14.168-16.216-12.287-27.683 1.332-7.588 7.411-14.509 14.482-17.304.192-.077 12.988-3.189 12.647.638.002-5.417 15.491 2.798 16.327 3.51 6.197 5.281 9.963 13.039 9.184 21.252-.858 6.817-5.344 14.096-11.438 18.945 5.152 13.074 3.389 53.669-.966 67.422 6.006.212 12.011.446 18.021.719 3.758.17 7.64.28 11.591.389-2.34-6.294-1.383-19.06-.255-21.57 2.254-4.209 5.798-8.058 9.217-11.297 4.937-5.334 13.957-8.23 17.207-14.874 1.027-2.144 1.456-12.884 2.72-19.538-6.248-3.684-11.272-9.726-12.821-16.747-1.118-8.092.785-16.126 6.236-22.421 1.553-1.813 19.677-11.908 20.245-6.307.418-4.805 16.215 3.16 17.124 3.944 3.399 2.931 6.608 6.977 7.825 11.385 3.493 11.092-1.967 22.984-11.006 29.357 3.349 9.655 4.217 31.637.038 37.129-6.538 7.979-15.582 13.771-23.138 20.693-1.126.96-4.677 3.123-5.547 4.595-.476.701-.163 4.545-.649 7.039 9.057.897 17.911 2.446 25.981 5.339 11.69 4.639 19.687 11.925 28.25 20.907 5.194 6.418 9.126 14.09 11.713 21.928.394 1.195 2.774 12.527 3.288 19.837 2.954-.885 8.023-.324 8.305-2.042 2.741-8.302 14.202-16.035 20.589-21.396 5.22-4.4 7.032-5.753 14.298-6.309 2.439-.097 17.829.079 25.912 2.281 3.714-5.926 9.571-10.638 16.332-12.129 8.091-1.118 16.125.786 22.419 6.237 1.813 1.553 11.917 19.678 6.298 20.243 4.812.402-3.154 16.214-3.937 17.122-2.93 3.399-6.976 6.609-11.383 7.826-10.991 3.461-22.763-1.871-29.177-10.762-6.563 1.816-18.433 2.073-20.915 2.228-3.989.908-10.178 9.564-13.166 12.242-4.335 3.886-11.648 12.144-17.739 13.57-1.687 1.696-12.094-.479-17.162-2.646.248 9.173.361 20.316.403 30.947 11.903-5.63 53.985-3.163 68.219.934 5.945-9.1 16.216-14.17 27.684-12.289 7.587 1.332 14.51 7.411 17.304 14.482.076.188 3.19 13.003-.642 12.647-.905-.075-7.735-12.924-9.963-14.435-2.929-1.941-6.372-3.224-9.906-3.227-7.271-.007-14.688 5.25-16.695 12.384-3.216 9.11 4.368 17.444 12.295 20.584 5.626 1.5 11.221-.794 15.65-4.198 1.557-1.196 7.818-11.087 8.614-11.106.085.007.129.01.005-.001 5.427-.007-2.793 15.491-3.506 16.328-5.281 6.197-13.039 9.963-21.252 9.184-6.816-.858-14.094-5.343-18.944-11.437-13.576 5.354-56.836 3.239-68.887-1.483-.023 4.643-.05 7.914-.059 9.053-.055 6.768.099 13.818.164 20.976 6.607-2.649 21.167-1.04 24.138 1.137 3.676 2.334 7.452 6.028 10.226 9.402 3.67 4.433 7.061 11.167 11.637 14.617 2.336 2.199 14.436 2.46 21.584 3.732 3.689-6.203 9.707-11.182 16.691-12.723 8.092-1.118 16.126.784 22.421 6.236 1.813 1.553 11.908 19.678 6.307 20.245 4.806.419-3.159 16.216-3.943 17.124zm-109.144-94.737c12.109-4.299 54.97-5.284 58.359-.954-.011.01-.02.027-.026.048.983-.044 3.572-.143 6.304.018-1.707-4.499-1.979-9.352-.034-14.029.063-.192.132-.378.198-.568-16.618 3.177-53.704 1.79-64.781-2.029.011 6.418-.001 12.452-.02 17.514zm95.88-78.122c.678-.124 1.241-.323 1.926-.575 3.415-1.358 6.602-3.509 9.095-6.213 1.249-1.355 4.438-8.907 5.661-9.038.042-.004.075 0 .114-.002-.038-.001-.069.004-.109.002.111-.013.074-.009-.006 0-1.487-.115-8.191-12.27-10.66-13.758-3.871-2.309-9.62-4.088-14.191-2.742-6.268 1.414-11.722 8.18-12.299 14.578-.742 10.742 9.69 19.719 20.469 17.748zm-474.234-32.669c-.679.124-1.242.322-1.928.575-3.416 1.359-6.602 3.507-9.096 6.212-1.25 1.355-4.439 8.905-5.662 9.041-.1-.008-.2-.015-.002 0 1.478.109 8.201 12.275 10.665 13.761 3.872 2.31 9.621 4.087 14.193 2.741 6.268-1.412 11.722-8.182 12.299-14.579.755-10.745-9.701-19.717-20.469-17.751zm0 171.573c-.679.124-1.241.322-1.926.575-3.415 1.358-6.602 3.509-9.095 6.212-1.249 1.355-4.438 8.907-5.661 9.038-.042.004-.075 0-.114.002.038.002.069-.005.109-.002-.111.013-.074.009.006 0 1.486.115 8.191 12.27 10.66 13.758 3.866 2.307 9.624 4.093 14.191 2.741 6.268-1.404 11.722-8.184 12.299-14.578.755-10.742-9.701-19.715-20.469-17.746zm92.191-2.755c-.313-5.163-.382-10.378-.337-15.574-3.901.536-8.159.664-9.325 1.193-5.882 2.827-11.804 11.262-16.604 15.72-5.057 4.643-10.509 11.53-17.71 11.31-2.081-.13-10.754-.333-17.373-1.465 1.382 3.994 1.75 8.336.718 12.73-.157.744-.359 1.482-.583 2.216 9.268-1.624 23.508-2.06 25.894-2.673-.003-.011-.009-.016-.019-.017 9.039-8.074 19.091-14.948 27.647-23.563 1.177-.446 4.512-.391 7.692.123zm.743-74.518c-14.933 3.562-52.26 4.134-55.413.105.011-.01.02-.027.026-.048-.983.044-3.572.143-6.304-.018 1.707 4.499 1.979 9.352.034 14.029-.063.192-.132.378-.198.568 15.247-2.915 47.719-1.987 61.532 1.135.082-5.259.188-10.517.323-15.771zm2.644-58.098c-3.108 1.405-7.422 1.964-9.354 1.072-10.688-3.577-21.001-18.298-28.422-26.171-3.252-1.671-17.535-1.085-26.796-2.196 1.249 3.862 1.548 8.034.554 12.253-.104.492-.233.981-.367 1.469 6.16-1.332 13.788-1.765 15.563-1.601 9.468.877 13.938 7.709 19.383 14.516 3.522 4.46 7.275 8.336 10.901 12.694 2.234 4.181 11.817 3.315 17.58 3.958.29-5.329.604-10.661.958-15.994zm225.909-150.728c10.744.741 19.719-9.691 17.75-20.47-.124-.679-.322-1.242-.575-1.928-1.359-3.416-3.507-6.602-6.212-9.096-1.355-1.25-8.905-4.439-9.041-5.662.008-.1.015-.2 0-.002-.109 1.478-12.275 8.201-13.761 10.665-2.31 3.872-4.087 9.621-2.741 14.193 1.413 6.268 8.183 11.723 14.58 12.3zm-35.067 75.234c5.653.169 11.398.396 17.104.832-1.755-3.106-2.549-8.169-1.56-10.313 3.577-10.688 18.298-21.001 26.171-28.422 1.671-3.252 1.085-17.535 2.196-26.796-3.862 1.249-8.034 1.548-12.253.554-.377-.08-.751-.184-1.126-.281 1.242 7.691.65 18.207-.042 20.298-2.694 7.934-12.035 14.675-18.828 18.952-.162-.033-6.599 6.017-7.404 6.767-2.021 2.82-2.981 13.042-4.258 18.409zm-53.566-75.829c9.111 3.22 17.44-4.371 20.583-12.294 1.498-5.627-.793-11.22-4.198-15.65-1.196-1.557-11.084-7.816-11.106-8.613.007-.085.011-.13-.001-.005v.001s0 0 0-.001c-.081.911-12.923 7.733-14.436 9.962-1.94 2.929-3.224 6.372-3.227 9.906-.005 7.27 5.251 14.687 12.385 16.694zm-3.969 73.922c5.465.124 10.929.273 16.392.448-3.859-13.914-4.596-53.475-.443-56.725.01.011.027.02.048.026-.044-.984-.143-3.572.017-6.304-4.498 1.707-9.351 1.979-14.029.034-.192-.063-.38-.133-.57-.199 3.003 15.702 1.935 49.675-1.415 62.72zm-78.968-73.327c10.742.741 19.719-9.691 17.748-20.47-.124-.678-.323-1.241-.575-1.926-1.358-3.415-3.509-6.602-6.213-9.095-1.355-1.249-8.907-4.438-9.038-5.661-.004-.042 0-.075-.002-.114-.001.038.004.069.002.109-.013-.111-.009-.074 0 .006-.115 1.487-12.27 8.191-13.758 10.66-2.309 3.871-4.088 9.62-2.742 14.191 1.414 6.268 8.18 11.723 14.578 12.3zm20.626 64.028c.513 1.357.363 5.577-.391 9.125 5.306-.343 10.673-.444 16.043-.44-.714-4.208-.805-9.355-1.395-10.655-2.827-5.882-11.262-11.804-15.72-16.604-4.643-5.058-11.53-10.51-11.31-17.711.13-2.081.333-10.75 1.465-17.368-3.994 1.382-8.336 1.748-12.729.713-.744-.157-1.482-.359-2.216-.583 1.624 9.268 2.06 23.508 2.673 25.894.011-.003.016-.009.017-.019 8.075 9.039 14.949 19.092 23.563 27.648zm-17.796 369.266c-10.744-.741-19.719 9.691-17.75 20.471.124.679.322 1.242.575 1.927 1.358 3.415 3.508 6.602 6.212 9.096 1.355 1.25 8.905 4.439 9.041 5.662-.008.1-.015.2 0 .002 0 0 0 0 0-.001.109-1.477 12.275-8.201 13.761-10.664 2.31-3.872 4.087-9.621 2.741-14.193-1.413-6.268-8.183-11.723-14.58-12.3zm34.398-73.669c-5.153-.083-10.366-.208-15.563-.505 1.116 2.988 1.495 6.675.689 8.421-3.569 10.685-18.303 21.005-26.171 28.422-1.671 3.252-1.085 17.535-2.196 26.797 3.862-1.249 8.034-1.548 12.253-.554.492.104.982.233 1.47.367-1.332-6.161-1.766-13.791-1.602-15.563.877-9.468 7.71-13.938 14.516-19.383 4.459-3.522 8.336-7.275 12.694-10.901 4.064-2.177 3.359-11.303 3.91-17.101zm54.235 74.264c-9.111-3.22-17.44 4.371-20.583 12.294-1.498 5.627.793 11.22 4.198 15.65 1.196 1.557 11.084 7.816 11.106 8.613-.007.085-.011.13.001.005v-.001c.081-.91 12.923-7.732 14.436-9.961 1.94-2.929 3.224-6.372 3.227-9.906.005-7.27-5.251-14.687-12.385-16.694zm3.789-73.191c-5.318-.053-10.637-.125-15.955-.213 3.638 14.693 4.247 52.582.187 55.758-.01-.011-.027-.02-.048-.026.044.984.143 3.572-.017 6.304 4.498-1.707 9.351-1.979 14.029-.034.191.063.378.132.568.198-2.95-15.415-1.97-48.442 1.236-61.987zm79.148 72.596c-10.742-.741-19.719 9.691-17.748 20.47.124.678.323 1.241.575 1.926 1.359 3.415 3.509 6.601 6.213 9.095 1.354 1.249 8.907 4.438 9.038 5.661.004.042 0 .075.002.114.001-.038-.004-.069-.002-.109.013.111.009.074 0-.006.115-1.486 12.27-8.191 13.758-10.66 2.309-3.871 4.088-9.62 2.742-14.191-1.414-6.268-8.18-11.723-14.578-12.3zm-20.626-64.028c-.482-1.276-.378-5.079.261-8.477-5.226.291-10.558.295-15.843.225.649 4.122.755 8.966 1.325 10.222 2.827 5.882 11.262 11.804 15.72 16.604 4.643 5.058 11.53 10.51 11.31 17.711-.13 2.081-.333 10.75-1.465 17.368 3.994-1.382 8.336-1.748 12.729-.713.744.157 1.482.359 2.216.583-1.624-9.268-2.06-23.508-2.673-25.894-.011.003-.016.009-.017.019-8.074-9.039-14.949-19.092-23.563-27.648zm74.127-202.759c4.225-1.483 12.22-1.419 13.887-2.176 5.882-2.827 11.804-11.262 16.604-15.72 5.057-4.643 10.509-11.53 17.71-11.31 2.081.13 10.75.333 17.368 1.465-1.382-3.994-1.748-8.336-.713-12.729.157-.744.359-1.482.583-2.216-9.268 1.624-23.508 2.06-25.894 2.673.003.011.009.016.019.017-9.039 8.074-19.091 14.948-27.647 23.563-1.832.693-8.873.178-12.445-1.399-.144 1.264-.479 2.022-1.088 1.984.501.021.546-.875.26-2.409-.791-.476-1.278-1.028-1.278-1.655 0-.548.206-.972.551-1.309-2.962-10.471-12.301-32.755-13.43-34.376-5.92-8.495-14.27-15.25-23.309-20.162-14.25-6.332-29.109-6.073-44.415-6.841-20.476-1.027-41.042-1.747-61.546-1.646-20.928.103-41.806.462-62.723 1.121-15.043.469-29.438 3.561-41.46 13.45-13.142 13.261-20.492 25.712-21.618 44.375-1.83 30.327-3.223 60.583-3.329 90.974-.09 22.713-3.224 48.565 2.742 70.704 3.484 12.931 11.695 24.325 22.191 32.478 18.776 14.585 46.339 12.277 68.887 13.375 37.239 1.408 74.52 2.475 111.783 1.088 13.563-.247 28.295-4.982 38.108-14.616 23.069-22.648 22.002-51.316 23.468-82.078.369-7.742 2.629-102.458 5.115-102.473h.006c.778.042 1.286 6.466 1.613 15.848zm65.411 143.353c-1.249-3.862-1.548-8.034-.554-12.253.104-.492.233-.981.367-1.469-6.16 1.332-13.788 1.765-15.563 1.601-9.468-.877-13.938-7.71-19.383-14.516-3.522-4.46-7.275-8.336-10.901-12.694-2.39-4.474-13.196-3.168-18.731-4.116-.007 5.481-.116 10.994-.455 16.465 3.124-1.632 7.931-2.339 10.001-1.383 10.688 3.577 21.001 18.298 28.422 26.171 3.253 1.669 17.536 1.084 26.797 2.194zm47.75-6.916c-.017-.001-.028-.002-.057-.004-1.478-.109-8.201-12.275-10.665-13.761-3.867-2.307-9.625-4.092-14.193-2.741-6.268 1.412-11.722 8.182-12.299 14.579-.741 10.743 9.691 19.719 20.47 17.75.679-.124 1.242-.322 1.928-.575 3.416-1.359 6.602-3.507 9.096-6.212 1.25-1.355 4.439-8.905 5.662-9.041.02.002.04.004.058.005zm-200.054-5.083c.103-.137.051-.068 0 0zm21.308-149.427c-.019-.417-.012-.266 0 0zm41.372 50.208c-2.392.285-4.778.515-7.163.723.228 1.894.23 3.704.205 4.176-.742 8.512-5.786 15.98-12.188 21.394-9.003 7.695-22.875 9.007-33.786 5.104-7.809-2.793-15.519-9-18.458-16.975-.749-2.164-3.595-8.422-3.991-13.165-2.812-.018-5.628-.023-8.451.002 3.186-4.121 23.009-33.833 35.11-46.15-12.962 3.597-39.492 3.631-50.075-.108-.394 1.565-.961 3.072-1.698 4.443-2.835 5.27-7.502 8.556-12.831 9.38 4.667 19.738 3.633 85.53-.794 103.488 3.992.285 7.985.572 11.98.845 8.029.548 16.047.928 24.093 1.026 2.641 1.359 3.295 4.949 5.57 7.73 1.562 2.917 10.706 16.086 9.795 17.306-.001.001-.002.001-.003.002v.001l.003-.003c-.001.002-.001.002-.003.004 0 0 .001.001.001.001.17 6.873-56.878 4.954-60.073 4.833-20.471-.776-39.634-.016-59.913 2.289 5.542-7.515 11.069-15.04 16.638-22.534 2.118-2.851 7.448-13.708 11.253-13.64 11.766.208 23.486.939 35.208 1.757-4.875-18.518-3.76-83.622.506-103.153-.474-.08-.951-.175-1.429-.292-7.769-1.909-13.774-8.418-14.264-16.211-12.444 3.573-44.19 3.651-53.959.029 8.939 9.287 35.239 43.242 39.056 47.644-.285 1.026-3.505 1.663-7.959 2.051-1.811 8.541-10.916 22.847-12.685 24.325-5.822 4.924-14.058 6.979-21.537 7.008-8.859-.002-17.195-3.314-23.538-9.44-4.028-4.644-7.977-9.623-9.738-15.625-.204-.695-.755-4.119-.709-7.228-2.095-.043-4.187-.099-6.284-.125-1.592-1.006 35.418-53.769 40.492-50.928.001 0 .001.001.002.002 0-.001-.001-.002-.001-.003-.829-8.146 44.635-10.214 58.172-4.723 1.2-3.032 3.08-5.747 5.835-7.709.994-.708 11.124-5.072 11.119-.765 0 .007-.001.014-.001.021.005-.008.005-.015.005-.022.775-4.704 12.149.964 13.822 2.472 2.527 2.279 3.887 5.358 4.319 8.623 14.473-4.166 55.782-3.881 56.949 1.913.009-.001.017 0 .025-.001.392-.038.735.021 1.022.193.001 0 .001.002.002.003.001-.001.001-.003.002-.003 3.01-2.213 37.299 46.112 40.347 50.015zm-164.863 2.401c-9.359.309-20.01.036-22.446-.055-10.976-.413-21.916-.888-32.878-1.187.545 1.546 1.015 2.954 1.331 3.486 2.77 4.665 6.881 8.361 10.851 11.974 4.752 3.365 10.254 5.227 16.141 5.225 3.942-.019 9.487-.524 13.121-2.677 4.697-2.398 8.452-6.73 11.23-11.113.415-.67 1.442-3.112 2.65-5.653zm-26.794-47.021c-4.519 10.219-23.246 30.864-22.013 34.809-.139.778 40.892-1.56 42.644 1.023.627-4.29-16.728-25.386-20.631-35.832zm62.744 126.603c-1.669-.05-21.028-1.41-21.295-.373-1.912 2.873-5.115 8.982-7.966 10.833-.019.018-.021.043.04.073-.015.004-.03.007-.045.011 5.159-.179 77.653 3.259 92.746 5.837-5.011-3.739-14.806-15.781-16.804-16.575-15.018 2.522-31.511.643-46.676.194zm12.379-144.703c-.701 4.148-9.916 6.238-8.279 13.347.533 2.315 1.589 4.021 3.834 5.421 4.619 2.96 9.555 1.486 11.92-3.466 4.359-8.699-7.575-10.238-7.475-15.302zm49.896 69.225c-.107-.124-.219-.253-.332-.382.114.161.225.292.332.382zm53.644-5.343c-18.745 1.197-37.349.425-56.145.159.784 1.952 1.521 3.871 2.157 4.784 7.35 6.795 10.021 13.83 21.799 15.575 5.837.864 12.579.189 17.847-2.617 4.495-2.714 8.613-6.491 11.552-10.854.534-.785 1.62-4.046 2.79-7.047zm-27.111-49.304c-1.581 6.516-16.458 26.928-17.564 28.893.018-.015.032-.034.042-.055-1.39 3.024-2.934 5.984-4.631 8.847l.013.002c-.074.048-.119.596-.095.661 12.564-2.522 29.313.376 42.24 1.005-2.583.193-17.597-31.238-20.005-39.353z"></path></svg>