<svg xmlns="http://www.w3.org/2000/svg" clip-rule="evenodd" fill-rule="evenodd" stroke-linejoin="round" stroke-miterlimit="2" viewBox="0 0 510 510"><path d="m110.913 249.344h-83.833c-6.643 0-12.08-5.438-12.08-12.064v-152.707h277.389v30.914c-2.67-1.258-5.402-2.375-8.187-3.349l-2.345-6.103c-2.375-6.182-8.313-10.261-14.935-10.261h-21.965c-6.614 0-12.546 4.069-14.927 10.24l-2.362 6.119c-3.035 1.061-6.008 2.292-8.906 3.69 0 0-5.97-2.655-5.97-2.655-6.05-2.69-13.133-1.375-17.814 3.307l-15.529 15.528c-4.682 4.682-5.996 11.764-3.306 17.814l2.655 5.97c-1.4 2.899-2.634 5.875-3.698 8.916 0 0-6.099 2.347-6.099 2.347-2.567.988-4.772 2.591-6.472 4.603-3.308-1.721-7.066-2.693-11.049-2.693h-16.567c-13.255 0-24 10.745-24 24zm-95.913-180.771v-28.024c0-6.642 5.437-12.079 12.08-12.079h253.245c6.642 0 12.064 5.437 12.064 12.079v28.024zm59.907-11.505c3.884 0 7.039-3.155 7.039-7.039s-3.155-7.054-7.039-7.054-7.054 3.17-7.054 7.054 3.17 7.039 7.054 7.039zm27.06 0c3.884 0 7.055-3.155 7.055-7.039s-3.171-7.054-7.055-7.054-7.054 3.17-7.054 7.054 3.17 7.039 7.054 7.039zm-54.136 0c3.884 0 7.054-3.155 7.054-7.039s-3.17-7.054-7.054-7.054-7.055 3.17-7.055 7.054 3.171 7.039 7.055 7.039zm224.267 68.177c7.167 1.703 14.002 4.534 20.284 8.405l13.183-5.862 15.528 15.529-5.839 13.183c3.871 6.282 6.702 13.117 8.405 20.306l13.449 5.176v21.965l-13.449 5.176c-1.703 7.167-4.556 14.002-8.405 20.284l5.839 13.184-15.528 15.528-13.183-5.84c-6.26 3.871-13.117 6.702-20.284 8.406l-5.176 13.448h-21.965l-5.176-13.448c-7.189-1.704-14.024-4.557-20.306-8.406l-13.184 5.84-15.528-15.528 5.862-13.184c-3.871-6.26-6.702-13.117-8.428-20.284l-13.449-5.176v-21.965l13.449-5.176c1.726-7.189 4.557-14.024 8.428-20.306l-5.862-13.183 15.528-15.529 13.184 5.862c6.282-3.871 13.117-6.702 20.284-8.405l5.198-13.471h21.965zm-16.17 29.397c-21.168 0-38.311 17.143-38.311 38.312 0 21.168 17.143 38.333 38.311 38.333 21.169 0 38.334-17.165 38.334-38.333 0-21.169-17.165-38.312-38.334-38.312zm147.278 136.348c2.761 0 5 2.239 5 5v52.524c0 2.761-2.239 5-5 5h-52.524c-2.761 0-5-2.239-5-5v-52.524c0-2.761 2.239-5 5-5zm-242.032 0c2.762 0 5 2.239 5 5v52.524c0 2.761-2.238 5-5 5h-52.523c-2.762 0-5-2.239-5-5v-52.524c0-2.761 2.238-5 5-5zm121.016 128.017c2.761 0 5 2.238 5 5v52.523c0 2.762-2.239 5-5 5h-52.524c-2.761 0-5-2.238-5-5v-52.523c0-2.762 2.239-5 5-5zm-207.81 0c2.761 0 5 2.238 5 5v52.523c0 2.762-2.239 5-5 5h-52.524c-2.761 0-5-2.238-5-5v-52.523c0-2.762 2.239-5 5-5zm415.62 0c2.761 0 5 2.238 5 5v52.523c0 2.762-2.239 5-5 5h-52.524c-2.761 0-5-2.238-5-5v-52.523c0-2.762 2.239-5 5-5zm-242.072-88.755h-56.889c-4.416 0-8-3.585-8-8 0-4.416 3.584-8 8-8h129.779c4.415 0 8 3.584 8 8 0 4.415-3.585 8-8 8h-56.89v63.058c0 4.416-3.584 8-8 8-4.415 0-8-3.584-8-8zm-105.015-64.836c0 4.415-3.585 8-8 8-4.416 0-8-3.585-8-8v-72.456c0-4.419 3.581-8 8-8h16.567c4.415 0 8 3.584 8 8 0 4.415-3.585 8-8 8h-8.567zm242.031 0c0 4.415-3.585 8-8 8s-8-3.585-8-8v-64.456h-8.568c-4.415 0-8-3.585-8-8 0-4.416 3.585-8 8-8h16.568c4.418 0 8 3.581 8 8zm-328.826 127.894c0 4.416-3.584 8-8 8-4.415 0-8-3.584-8-8v-71.058c0-4.418 3.582-8 8-8h30.668c4.416 0 8 3.584 8 8 0 4.415-3.584 8-8 8h-22.668zm415.62 0c0 4.416-3.584 8-8 8-4.415 0-8-3.584-8-8v-63.058h-22.668c-4.415 0-8-3.585-8-8 0-4.416 3.585-8 8-8h30.668c4.418 0 8 3.582 8 8zm-366.731 64.959c-4.415 0-8-3.585-8-8 0-4.416 3.585-8 8-8h94.033c4.415 0 8 3.584 8 8 0 4.415-3.585 8-8 8zm207.81 0c-4.415 0-8-3.585-8-8 0-4.416 3.585-8 8-8h94.032c4.416 0 8 3.584 8 8 0 4.415-3.584 8-8 8z"></path></svg>