<svg xmlns="http://www.w3.org/2000/svg" viewBox="0 0 64 64" width="512" height="512"><g id="Inovation"><path d="M42,10A12,12,0,1,0,54,22,12.013,12.013,0,0,0,42,10Zm0,22a10.013,10.013,0,0,1-9.949-9H33V21h-.949a9.9,9.9,0,0,1,.84-3.1l.815.47,1-1.732-.811-.468A10.07,10.07,0,0,1,36.166,13.9l.468.811,1.732-1-.47-.815a9.9,9.9,0,0,1,3.1-.84V13h2v-.949a9.875,9.875,0,0,1,3.1.84l-.47.815,1.732,1,.468-.811a10.07,10.07,0,0,1,2.271,2.271l-.811.468,1,1.732.815-.47a9.894,9.894,0,0,1,.84,3.1H51v2h.949A10.013,10.013,0,0,1,42,32Z"></path><path d="M43.285,19.3A2.951,2.951,0,0,0,42,19a3,3,0,1,0,3,3,2.951,2.951,0,0,0-.3-1.285l2.958-2.958-1.414-1.414ZM42,23a1,1,0,1,1,1-1A1,1,0,0,1,42,23Z"></path><path d="M42,17V15a7.008,7.008,0,0,0-7,7h2A5.006,5.006,0,0,1,42,17Z"></path><rect x="37" y="27" width="10" height="2"></rect><path d="M61.164,18.014,57.3,17.37a15.924,15.924,0,0,0-1.206-2.915l2.276-3.187a1,1,0,0,0-.106-1.289L54.021,5.737a1,1,0,0,0-1.289-.107L49.546,7.906A15.892,15.892,0,0,0,46.63,6.7l-.644-3.864A1,1,0,0,0,45,2H39a1,1,0,0,0-.986.836L37.37,6.7a15.892,15.892,0,0,0-2.916,1.206L31.268,5.63a1,1,0,0,0-1.289.107L25.736,9.979a1,1,0,0,0-.106,1.289l2.276,3.187c-.1.185-.177.38-.269.569A18.959,18.959,0,0,0,9,33.646L2.519,41.755A2,2,0,0,0,4.08,45H7v6a5.006,5.006,0,0,0,5,5h5v5a1,1,0,0,0,1,1H40a1,1,0,0,0,1-1V47.851a18.761,18.761,0,0,0,4.226-5.892.986.986,0,0,0,.76-.8L46.63,37.3a15.892,15.892,0,0,0,2.916-1.206l3.186,2.276a1,1,0,0,0,1.289-.107l4.243-4.242a1,1,0,0,0,.106-1.289l-2.276-3.187A15.924,15.924,0,0,0,57.3,26.63l3.864-.644A1,1,0,0,0,62,25V19A1,1,0,0,0,61.164,18.014ZM39.334,46.665A1,1,0,0,0,39,47.41V60H19V55a1,1,0,0,0-1-1H12a3,3,0,0,1-3-3V44a1,1,0,0,0-1-1L4.081,43l6.7-8.379A1,1,0,0,0,11,34,16.962,16.962,0,0,1,26.811,17.059c-.034.105-.079.2-.111.311l-3.864.644A1,1,0,0,0,22,19v6a1,1,0,0,0,.836.986l3.864.644a15.924,15.924,0,0,0,1.206,2.915L25.63,32.732a1,1,0,0,0,.106,1.289l4.243,4.242a1,1,0,0,0,1.289.107l3.186-2.276A15.892,15.892,0,0,0,37.37,37.3l.644,3.864A1,1,0,0,0,39,42h3.982A16.794,16.794,0,0,1,39.334,46.665ZM60,24.153l-3.655.609a1,1,0,0,0-.8.737,13.876,13.876,0,0,1-1.491,3.6,1,1,0,0,0,.048,1.09l2.153,3.015L53.205,36.25,50.19,34.1a1,1,0,0,0-1.089-.048,13.94,13.94,0,0,1-3.6,1.492,1,1,0,0,0-.736.8L44.152,40h-4.3l-.61-3.655a1,1,0,0,0-.736-.8,13.94,13.94,0,0,1-3.6-1.492,1,1,0,0,0-1.089.048L30.8,36.25,27.75,33.206,29.9,30.191a1,1,0,0,0,.048-1.09,13.876,13.876,0,0,1-1.491-3.6,1,1,0,0,0-.8-.737L24,24.153V19.847l3.655-.609a1,1,0,0,0,.8-.737,13.876,13.876,0,0,1,1.491-3.6,1,1,0,0,0-.048-1.09L27.75,10.794,30.8,7.75,33.81,9.9a.993.993,0,0,0,1.089.048,13.94,13.94,0,0,1,3.6-1.492,1,1,0,0,0,.736-.8L39.848,4h4.3l.61,3.655a1,1,0,0,0,.736.8,13.94,13.94,0,0,1,3.6,1.492A1,1,0,0,0,50.19,9.9L53.205,7.75l3.045,3.044L54.1,13.809a1,1,0,0,0-.048,1.09,13.876,13.876,0,0,1,1.491,3.6,1,1,0,0,0,.8.737L60,19.847Z"></path></g></svg>