<svg xmlns="http://www.w3.org/2000/svg" id="Layer_1" viewBox="0 0 96 96"><path d="m84.323 56.921c0-3.928-2.272-7.333-5.57-8.976.036-.327.055-.656.055-.985 0-3.834-2.477-7.257-6.023-8.518.221-.789.336-1.605.336-2.438 0-4.981-4.053-9.034-9.034-9.034-.848 0-1.684.118-2.488.348.399-1.315.612-2.696.612-4.102 0-7.835-6.374-14.21-14.21-14.21s-14.21 6.374-14.21 14.21c0 1.406.213 2.786.612 4.102-.804-.23-1.641-.348-2.488-.348-4.981 0-9.034 4.053-9.034 9.034 0 .833.114 1.649.336 2.438-3.546 1.26-6.023 4.683-6.023 8.518 0 .329.02.659.055.985-3.298 1.643-5.571 5.048-5.571 8.976s2.272 7.333 5.571 8.976c-.035.327-.055.656-.055.985 0 3.834 2.477 7.257 6.023 8.517-.221.789-.336 1.605-.336 2.438 0 4.981 4.053 9.034 9.034 9.034 1.398 0 2.749-.316 3.978-.921.906 4.03 4.511 7.05 8.811 7.05 1.141 0 2.248-.209 3.296-.621 1.049.412 2.155.621 3.296.621 4.3 0 7.905-3.02 8.812-7.05 1.229.605 2.58.921 3.978.921 4.981 0 9.034-4.053 9.034-9.034 0-.833-.114-1.649-.336-2.438 3.546-1.26 6.023-4.683 6.023-8.517 0-.329-.02-.659-.055-.985 3.298-1.643 5.571-5.048 5.571-8.976zm-36.323-45.958c6.756 0 12.253 5.497 12.253 12.253 0 4.323-2.316 8.371-6.045 10.567-.033.019-.065.039-.096.062-.115.083-.207.188-.274.305s-.11.249-.124.389c-.004.038-.005.077-.005.116v1.024c0 .586-.476 1.062-1.062 1.062h-2.002v-9.257h1.531c1.923 0 3.487-1.564 3.487-3.487s-1.564-3.487-3.487-3.487-3.487 1.564-3.487 3.487v1.531h-1.378v-1.531c0-1.923-1.564-3.487-3.487-3.487s-3.487 1.564-3.487 3.487 1.564 3.487 3.487 3.487h1.531v9.257h-2.002c-.586 0-1.062-.476-1.062-1.062v-1.024c.001-.037-.001-.075-.004-.112-.014-.142-.058-.276-.125-.393s-.159-.221-.274-.304c-.03-.022-.062-.043-.095-.061-3.73-2.196-6.046-6.243-6.046-10.567 0-6.758 5.497-12.255 12.253-12.255zm3.676 32.199h-7.351c-.34 0-.627-.287-.627-.627s.287-.627.627-.627h7.351c.34 0 .627.287.627.627s-.287.627-.627.627zm-1.942 1.957c-.343.605-.991 1.015-1.734 1.015s-1.392-.41-1.734-1.015zm2.421-6.423c.34 0 .627.287.627.627s-.287.627-.627.627c-.063 0-.123.007-.183.018-.098-.011-.196-.018-.297-.018h-7.351c-.101 0-.199.007-.297.018-.059-.011-.12-.018-.183-.018-.34 0-.627-.287-.627-.627s.287-.627.627-.627zm-4.844-1.956v-9.257h1.378v9.257zm3.335-12.744c0-.844.687-1.531 1.531-1.531s1.531.687 1.531 1.531-.687 1.531-1.531 1.531h-1.531zm-6.822 1.53c-.844 0-1.531-.687-1.531-1.531s.687-1.531 1.531-1.531 1.531.687 1.531 1.531v1.531zm30.477 39.461c-.578 0-1.155-.061-1.715-.182-.528-.114-1.049.221-1.163.749s.221 1.049.749 1.163c.696.151 1.412.227 2.128.227.879 0 1.731-.115 2.544-.328.003.089.006.178.006.267 0 3.259-2.282 6.138-5.441 6.886h-6.347l-1.457-2.847c1.015-.838 1.663-2.105 1.663-3.522 0-2.517-2.048-4.565-4.565-4.565s-4.565 2.048-4.565 4.565 2.048 4.565 4.565 4.565c.401 0 .79-.052 1.161-.15l1.729 3.377c.167.327.504.533.871.533h6.377c.213.68.322 1.388.322 2.113 0 3.903-3.175 7.077-7.078 7.077-1.346 0-2.635-.374-3.76-1.082-.042-2.826-1.421-5.499-3.711-7.17-.436-.318-1.048-.223-1.367.214s-.223 1.049.214 1.367c1.823 1.33 2.911 3.469 2.911 5.722 0 3.903-3.175 7.077-7.078 7.077-.799 0-1.576-.132-2.318-.39v-16.361l4.704-3.619c.241-.185.382-.472.382-.775v-9.571c0-.54-.438-.978-.978-.978s-.978.438-.978.978v9.089l-3.129 2.408v-15.523c0-.54-.438-.978-.978-.978s-.978.438-.978.978v9.417l-3.129-2.408v-9.089c0-.54-.438-.978-.978-.978s-.978.438-.978.978v9.571c0 .304.141.59.382.775l4.704 3.62v22.466c-.742.258-1.519.39-2.318.39-3.903 0-7.078-3.175-7.078-7.077 0-2.253 1.088-4.392 2.911-5.722.436-.319.532-.93.214-1.367-.319-.436-.931-.532-1.367-.214-2.29 1.671-3.668 4.343-3.711 7.17-1.125.708-2.414 1.082-3.76 1.082-3.903 0-7.078-3.175-7.078-7.077 0-.725.109-1.433.322-2.113h6.377c.367 0 .703-.206.871-.533l1.729-3.377c.371.098.76.15 1.161.15 2.517 0 4.565-2.048 4.565-4.565s-2.048-4.565-4.565-4.565-4.565 2.048-4.565 4.565c0 1.416.648 2.684 1.663 3.522l-1.457 2.847h-6.346c-3.158-.748-5.441-3.627-5.441-6.886 0-.089.003-.178.006-.267.813.213 1.665.328 2.544.328.717 0 1.433-.076 2.129-.227.528-.114.864-.635.749-1.163-.114-.528-.635-.864-1.163-.749-.56.121-1.137.182-1.715.182-4.116 0-7.52-3.1-8.004-7.088h9.414c.449 2.048 2.277 3.587 4.458 3.587 2.517 0 4.565-2.048 4.565-4.565s-2.048-4.565-4.565-4.565c-2.181 0-4.009 1.538-4.458 3.587h-9.414c.485-3.987 3.888-7.087 8.004-7.087.579 0 1.156.061 1.715.182.529.114 1.049-.221 1.163-.749s-.221-1.049-.749-1.163c-.695-.151-1.411-.227-2.129-.227-.879 0-1.731.115-2.544.328-.003-.089-.006-.178-.006-.267 0-3.259 2.282-6.138 5.441-6.886h6.347l1.457 2.847c-1.015.838-1.663 2.105-1.663 3.521 0 2.517 2.048 4.565 4.565 4.565s4.565-2.048 4.565-4.565-2.048-4.565-4.565-4.565c-.401 0-.79.052-1.161.15l-1.729-3.377c-.167-.327-.504-.533-.871-.533h-6.377c-.213-.681-.322-1.389-.322-2.113 0-3.903 3.175-7.077 7.078-7.077 1.253 0 2.475.333 3.55.958 1.132 2.126 2.796 3.966 4.87 5.298v.495c0 .996.487 1.878 1.233 2.428-.195.363-.306.778-.306 1.218 0 .752.325 1.428.84 1.901-.228.385-.361.832-.361 1.31 0 1.375 1.08 2.499 2.436 2.576.435 1.709 1.982 2.979 3.824 2.979s3.389-1.27 3.824-2.979c1.356-.077 2.436-1.201 2.436-2.576 0-.478-.133-.925-.361-1.31.515-.473.84-1.149.84-1.901 0-.44-.111-.855-.306-1.218.746-.55 1.233-1.432 1.233-2.428v-.495c2.074-1.332 3.738-3.172 4.87-5.298 1.075-.625 2.296-.958 3.55-.958 3.903 0 7.077 3.175 7.077 7.077 0 .725-.109 1.433-.322 2.113h-6.377c-.367 0-.703.206-.871.533l-1.729 3.377c-.371-.098-.76-.15-1.161-.15-2.517 0-4.565 2.048-4.565 4.565s2.048 4.565 4.565 4.565 4.565-2.048 4.565-4.565c0-1.416-.648-2.684-1.663-3.522l1.457-2.847h6.347c3.158.748 5.441 3.628 5.441 6.886 0 .089-.003.178-.006.267-.813-.213-1.665-.328-2.544-.328-.718 0-1.434.076-2.129.227-.528.114-.863.635-.749 1.163s.635.863 1.163.749c.559-.121 1.136-.182 1.715-.182 4.116 0 7.52 3.1 8.004 7.087h-9.413c-.449-2.048-2.277-3.587-4.458-3.587-2.517 0-4.565 2.048-4.565 4.565s2.048 4.565 4.565 4.565c2.181 0 4.009-1.538 4.458-3.587h9.413c-.484 3.989-3.887 7.089-8.003 7.089zm-13.597 5.022c-1.438 0-2.608-1.17-2.608-2.608s1.17-2.608 2.608-2.608 2.609 1.17 2.609 2.608c0 1.437-1.17 2.608-2.609 2.608zm-28.017-2.609c0-1.438 1.17-2.608 2.608-2.608s2.609 1.17 2.609 2.608-1.17 2.608-2.609 2.608c-1.438.001-2.608-1.17-2.608-2.608zm-7.728-10.479c0-1.438 1.17-2.608 2.608-2.608s2.609 1.17 2.609 2.608-1.17 2.608-2.609 2.608c-1.438 0-2.608-1.17-2.608-2.608zm10.337-13.088c1.438 0 2.609 1.17 2.609 2.608s-1.17 2.608-2.609 2.608c-1.438 0-2.608-1.17-2.608-2.608-.001-1.438 1.169-2.608 2.608-2.608zm28.017 2.609c0 1.438-1.17 2.608-2.609 2.608-1.438 0-2.608-1.17-2.608-2.608s1.17-2.608 2.608-2.608c1.439-.001 2.609 1.169 2.609 2.608zm7.728 10.48c0 1.438-1.17 2.608-2.608 2.608s-2.609-1.17-2.609-2.608 1.17-2.608 2.609-2.608c1.438 0 2.608 1.17 2.608 2.608 0-.002 0-.001 0 0 0-.001 0-.001 0 0zm-11.804-44.016c.25 0 .501-.096.692-.287l4.077-4.077h8.766c.449 2.048 2.277 3.587 4.458 3.587 2.517 0 4.565-2.048 4.565-4.565s-2.049-4.564-4.566-4.564c-2.181 0-4.009 1.538-4.458 3.587h-9.171c-.01 0-.019.003-.029.003-.054.002-.109.006-.162.016-.032.006-.062.018-.093.028-.03.009-.061.016-.09.028-.035.014-.067.034-.099.052-.023.013-.047.023-.069.038-.054.036-.104.077-.15.122l-4.363 4.363c-.382.382-.382 1.001 0 1.383.191.191.441.286.692.286zm17.992-7.949c1.438 0 2.608 1.17 2.608 2.608s-1.17 2.608-2.608 2.608-2.608-1.17-2.608-2.608c0 0 0 0 0-.001 0 0 0 0 0-.001 0-1.437 1.17-2.606 2.608-2.606zm-58.51 7.224c2.181 0 4.009-1.538 4.458-3.587h8.766l4.077 4.077c.191.191.441.287.692.287.25 0 .501-.096.692-.287.382-.382.382-1.001 0-1.383l-4.363-4.363c-.046-.046-.096-.086-.15-.122-.023-.015-.048-.026-.072-.039-.032-.018-.063-.037-.097-.051-.031-.013-.063-.02-.095-.029-.029-.009-.057-.02-.088-.026-.059-.012-.119-.017-.179-.018-.004 0-.008-.001-.012-.001h-9.171c-.449-2.048-2.277-3.587-4.458-3.587-2.517 0-4.565 2.048-4.565 4.565s2.048 4.564 4.565 4.564zm0-7.173c1.438 0 2.608 1.169 2.608 2.607v.001s0 .001 0 .001c-.001 1.438-1.171 2.607-2.608 2.607-1.438 0-2.608-1.17-2.608-2.608s1.17-2.608 2.608-2.608zm57.413 13.607c-2.181 0-4.009 1.538-4.458 3.587h-7.746c-.54 0-.978.438-.978.978s.438.978.978.978h7.746c.449 2.048 2.277 3.587 4.458 3.587 2.517 0 4.565-2.048 4.565-4.565s-2.048-4.565-4.565-4.565zm0 7.174c-1.438 0-2.609-1.17-2.609-2.608s1.17-2.609 2.609-2.609 2.608 1.17 2.608 2.609c0 1.437-1.17 2.608-2.608 2.608zm-51.805-3.515c-.449-2.048-2.277-3.587-4.458-3.587-2.517 0-4.565 2.048-4.565 4.565s2.048 4.565 4.565 4.565c2.181 0 4.009-1.538 4.458-3.587h7.746c.54 0 .978-.438.978-.978s-.438-.978-.978-.978zm-4.458 3.587c-1.438 0-2.608-1.17-2.608-2.608s1.17-2.608 2.608-2.608 2.608 1.17 2.608 2.608-1.17 2.608-2.608 2.608z"></path></svg>