<svg xmlns="http://www.w3.org/2000/svg" id="Layer_1" viewBox="0 0 96 96"><path d="m65.803 55.078c.478-.964.75-2.057.75-3.216 0-3.855-2.987-6.99-6.659-6.99-.008 0-.016.001-.025.001-.644-2.253-2.336-4.005-4.451-4.679 1.631-1.596 2.667-3.675 2.933-5.936h5.743c.645 0 1.169-.523 1.169-1.169v-5.835c1.809-.511 3.14-2.176 3.14-4.146 0-2.376-1.933-4.308-4.309-4.308s-4.308 1.933-4.308 4.308c0 1.971 1.33 3.635 3.14 4.146v4.667h-4.576c-.552-4.641-4.347-8.33-9.113-8.855v-4.731c1.81-.511 3.14-2.177 3.14-4.147 0-2.376-1.933-4.308-4.309-4.308s-4.308 1.933-4.308 4.308c0 1.971 1.33 3.637 3.14 4.147v4.731c-4.766.524-8.561 4.214-9.113 8.855h-4.576v-4.665c1.81-.511 3.14-2.177 3.14-4.147 0-2.376-1.933-4.308-4.309-4.308s-4.308 1.933-4.308 4.308c0 1.971 1.33 3.637 3.14 4.147v5.834c0 .645.523 1.169 1.169 1.169h5.743c.265 2.246 1.288 4.312 2.899 5.904-2.161.65-3.896 2.423-4.55 4.712-.008 0-.017-.001-.025-.001-3.672 0-6.659 3.136-6.659 6.99 0 1.159.272 2.253.75 3.216-3.19 1.116-5.424 4.257-5.424 7.948 0 3.098 1.608 5.806 3.991 7.257-.358.87-.549 1.808-.549 2.772 0 3.855 2.987 6.99 6.659 6.99.348 0 .69-.03 1.025-.085.392 3.465 3.206 6.162 6.611 6.162 2.276 0 4.289-1.206 5.49-3.041 1.202 1.835 3.214 3.041 5.491 3.041 3.405 0 6.219-2.697 6.611-6.162.335.055.677.085 1.025.085 3.672 0 6.659-3.136 6.659-6.99 0-.964-.19-1.902-.549-2.772 2.383-1.451 3.991-4.159 3.991-7.257-.005-3.693-2.239-6.834-5.429-7.95zm-3.68-31.971c0-1.087.884-1.971 1.971-1.971s1.971.884 1.971 1.971-.884 1.971-1.971 1.971c-1.087-.001-1.971-.885-1.971-1.971zm-16.027-8.921c0-1.087.884-1.971 1.971-1.971s1.971.884 1.971 1.971-.884 1.971-1.971 1.971-1.971-.884-1.971-1.971zm-16.027 8.921c0-1.087.884-1.971 1.971-1.971s1.971.884 1.971 1.971-.884 1.971-1.971 1.971c-1.087-.001-1.971-.885-1.971-1.971zm9.981 9.981c0-4.274 3.596-7.752 8.016-7.752s8.016 3.477 8.016 7.752c0 2.667-1.392 5.115-3.724 6.548-.346.213-.557.59-.557.996v.076c-.056.161-.08.336-.059.516.01.089.031.174.059.256v.984h-7.471v-1.833c0-.406-.211-.783-.557-.996-2.331-1.432-3.723-3.88-3.723-6.547zm23.206 35.982c-1.532 0-2.965-.649-4.036-1.828-.434-.478-1.174-.514-1.651-.08-.478.434-.514 1.173-.08 1.651 1.519 1.673 3.567 2.594 5.766 2.594.628 0 1.238-.079 1.824-.224.24.586.367 1.219.367 1.871 0 2.566-1.939 4.653-4.321 4.653-2.169 0-4.011-1.743-4.286-4.055-.076-.641-.661-1.097-1.299-1.022-.641.076-1.099.658-1.023 1.299.267 2.238 1.534 4.122 3.293 5.185 0 .006.001.012.001.018 0 2.566-1.939 4.653-4.321 4.653s-4.322-2.087-4.322-4.653c0-.001 0-.003 0-.004v-21.862c0-.645-.523-1.169-1.169-1.169s-1.169.523-1.169 1.169v21.866c0 2.566-1.939 4.653-4.321 4.653s-4.322-2.087-4.322-4.653c0-.006 0-.012.001-.018 1.76-1.063 3.027-2.947 3.293-5.185.076-.641-.382-1.222-1.023-1.299-.639-.075-1.222.381-1.299 1.023-.275 2.312-2.118 4.055-4.286 4.055-2.383 0-4.322-2.087-4.322-4.653 0-.652.127-1.286.367-1.872.586.145 1.197.224 1.825.224 2.2 0 4.247-.921 5.766-2.594.434-.478.398-1.217-.08-1.651s-1.217-.398-1.651.08c-1.07 1.179-2.503 1.828-4.036 1.828-3.106 0-5.634-2.711-5.634-6.044 0-2.949 1.934-5.409 4.579-5.939 1.176 1.097 2.724 1.765 4.417 1.765.645 0 1.169-.523 1.169-1.169 0-.645-.523-1.169-1.169-1.169-2.383 0-4.322-2.087-4.322-4.653s1.939-4.653 4.322-4.653 4.322 2.087 4.322 4.653c0 .645.523 1.169 1.169 1.169s1.169-.523 1.169-1.169c0-2.992-1.8-5.55-4.323-6.545.546-1.641 1.921-2.838 3.551-3.05v1.366c0 .645.523 1.169 1.169 1.169h9.809c.645 0 1.169-.523 1.169-1.169v-1.346c1.571.258 2.887 1.434 3.418 3.03-2.523.995-4.323 3.553-4.323 6.545 0 .645.523 1.169 1.169 1.169s1.169-.523 1.169-1.169c0-2.566 1.939-4.653 4.321-4.653s4.322 2.087 4.322 4.653-1.939 4.653-4.322 4.653c-.645 0-1.169.523-1.169 1.169 0 .645.523 1.169 1.169 1.169 1.694 0 3.241-.668 4.417-1.766 2.645.53 4.579 2.99 4.579 5.939.001 3.334-2.527 6.045-5.633 6.045zm20.008 6.688v-12.732c0-.645-.523-1.169-1.169-1.169h-8.118c-.645 0-1.169.523-1.169 1.169 0 .645.523 1.169 1.169 1.169h6.95v11.563c-1.809.511-3.14 2.176-3.14 4.146 0 2.376 1.933 4.308 4.309 4.308s4.308-1.933 4.308-4.308c-.001-1.971-1.331-3.635-3.14-4.146zm-1.169 6.117c-1.087 0-1.971-.884-1.971-1.971 0-1.086.884-1.97 1.97-1.971h.001.001c1.086.001 1.97.884 1.97 1.971-.001 1.087-.885 1.971-1.971 1.971zm-60.071-20.018h-8.118c-.645 0-1.169.523-1.169 1.169v12.731c-1.81.511-3.14 2.177-3.14 4.147 0 2.376 1.933 4.309 4.309 4.309s4.308-1.933 4.308-4.309c0-1.971-1.33-3.637-3.14-4.147v-11.562h6.949c.645 0 1.169-.523 1.169-1.169s-.523-1.169-1.168-1.169zm-6.148 18.047c0 1.087-.884 1.971-1.971 1.971s-1.971-.884-1.971-1.971.884-1.971 1.971-1.971 1.971.884 1.971 1.971zm72.815-25.97c-1.971 0-3.637 1.33-4.147 3.14h-10.568c-.645 0-1.169.523-1.169 1.169 0 .645.523 1.169 1.169 1.169h10.568c.511 1.809 2.177 3.14 4.147 3.14 2.376 0 4.309-1.933 4.309-4.308 0-2.377-1.933-4.31-4.309-4.31zm0 6.28c-1.087 0-1.971-.884-1.971-1.971s.884-1.971 1.971-1.971 1.971.884 1.971 1.971-.884 1.971-1.971 1.971zm-66.667-3.14h-10.568c-.511-1.81-2.177-3.14-4.147-3.14-2.376 0-4.309 1.933-4.309 4.309s1.933 4.308 4.308 4.308c1.971 0 3.637-1.33 4.147-3.14h10.568c.645 0 1.169-.523 1.169-1.169 0-.645-.523-1.168-1.168-1.168zm-14.716 3.14c-1.087 0-1.971-.884-1.971-1.971s.884-1.971 1.971-1.971 1.971.884 1.971 1.971-.884 1.971-1.971 1.971zm44.049-9.958h-6.58c-.335 0-.654.144-.876.395s-.325.585-.284.918c.277 2.236 2.19 3.923 4.45 3.923s4.173-1.687 4.45-3.923c.041-.332-.062-.667-.284-.918s-.541-.395-.876-.395zm-3.29 2.898c-.554 0-1.064-.211-1.448-.56h2.897c-.385.349-.895.56-1.449.56zm4.904-4.456h-9.809c-.645 0-1.169-.523-1.169-1.169 0-.645.523-1.169 1.169-1.169h9.809c.645 0 1.169.523 1.169 1.169s-.524 1.169-1.169 1.169z"></path></svg>