<svg xmlns="http://www.w3.org/2000/svg" viewBox="0 0 128 128" width="512" height="512"><g id="_12" data-name="12"><path d="M38.89307,60.64307A12.41358,12.41358,0,0,1,41.023,53.66992l2.48633,1.67969a9.47076,9.47076,0,0,0,3.808,13.85437,9.26211,9.26211,0,0,1,2.12708-4.55066l2.26953,1.96289A6.26809,6.26809,0,1,0,62.72,70.88391c-.001-.05664-.01153-.11127-.01153-.16809l.00244-.22168L62.7085,50.57031c0-.06689.0086-.13159.01-.19812A6.26192,6.26192,0,0,0,50.65918,48.202a12.56216,12.56216,0,0,1,2.09717.04852l-.332,2.98144a9.46321,9.46321,0,0,0-6.76319,1.84912L43.85254,50.6875A12.41883,12.41883,0,0,1,47.354,48.84521a9.25994,9.25994,0,0,1,16.86139-3.33569A9.20987,9.20987,0,0,1,81.00848,48.848a12.47921,12.47921,0,0,1-.00256,23.60218,9.25409,9.25409,0,0,1-9.065,7.53515v-3a6.27815,6.27815,0,0,0,4.71435-10.37207l2.27344-1.957a9.28034,9.28034,0,0,1,2.11572,4.54291,9.47811,9.47811,0,0,0-4.03271-18.02631,9.53816,9.53816,0,0,0-1.05469.05908l-.334-2.98144a12.58585,12.58585,0,0,1,1.38867-.07764c.235,0,.46435.0224.69617.0354a6.218,6.218,0,0,0-11.98945,2.16388c.00141.06653.01008.13129.01008.19818l-.00245,19.96.00245.18555c0,.0567-.00751.11157-.00855.168a6.25233,6.25233,0,0,0,3.35864,5.40326l-1.38769,2.66016a9.23906,9.23906,0,0,1-3.47443-3.17292,9.25973,9.25973,0,0,1-16.85968-3.32251A12.40974,12.40974,0,0,1,38.89307,60.64307Zm20.39355,6.0708.13184-2.99756a4.31885,4.31885,0,0,0-.37891,8.62939l.13184-2.998a1.31843,1.31843,0,0,1-.8335-2.28907A1.28737,1.28737,0,0,1,59.28662,66.71387ZM50.20508,56.502l-2.15039,2.0918a4.31866,4.31866,0,1,0,6.1914-6.02246l-2.15039,2.0918A1.3187,1.3187,0,0,1,50.20508,56.502ZM73.4917,67.84277A4.29457,4.29457,0,0,0,68.99756,63.728l.13965,2.99658a1.29589,1.29589,0,0,1,1.35742,1.24219A1.32946,1.32946,0,0,1,69.231,69.3457l.13769,2.9961A4.33351,4.33351,0,0,0,73.4917,67.84277Zm.64307-15.269a4.3343,4.3343,0,0,0,.08447,6.10205,4.26734,4.26734,0,0,0,3.00244,1.22559l.06055-.00049a4.27121,4.27121,0,0,0,3.02929-1.30957l-2.15527-2.08692a1.28919,1.28919,0,0,1-.91553.39649,1.4018,1.4018,0,0,1-.9248-.37061A1.32826,1.32826,0,0,1,76.29,54.66064ZM116.44629,86.5V88a10.94065,10.94065,0,0,1-10.92822,10.92871H22.48193A10.94065,10.94065,0,0,1,11.55371,88V86.5h5.14258V29.07129H111.625V86.5Zm-3.14209,3H85.64355L81.563,91.85742H46.75146l-4-2.35742H30.46436v-3H43.56982l4,2.35742H80.7583L84.83887,86.5H108.625V32.07129H19.69629V86.5h3.26807v3H14.6958a7.94209,7.94209,0,0,0,7.78613,6.42871h83.03614A7.94209,7.94209,0,0,0,113.3042,89.5Z"></path></g></svg>