<svg xmlns="http://www.w3.org/2000/svg" id="Layer_1" viewBox="0 0 512 512"><path d="m158.29 202.06c0 20.93 11.04 40.24 28.65 50.97-1.03 3.99-1.57 8.13-1.57 12.34 0 27.43 22.32 49.75 49.75 49.75h.71c8.65 15.41 24.93 25.08 42.92 25.08 12.11 0 23.75-4.44 32.78-12.5 1.7-1.52 2.67-3.69 2.67-5.97v-68.09h17.93l12.12 24.39c-4.6 4.58-7.45 10.91-7.45 17.9 0 13.94 11.34 25.27 25.27 25.27s25.27-11.34 25.27-25.27-11.34-25.27-25.27-25.27c-1.19 0-2.36.09-3.5.25l-14.32-28.83c-1.35-2.72-4.13-4.44-7.16-4.44h-22.89v-17.67h43.06l14.42 13.6c-1.51 3.23-2.35 6.84-2.35 10.63 0 13.94 11.34 25.27 25.27 25.27s25.27-11.34 25.27-25.27c0-13.94-11.34-25.27-25.27-25.27-4.32 0-8.38 1.09-11.94 3l-16.73-15.79c-1.48-1.4-3.45-2.18-5.49-2.18h-46.23v-25.36h56.42c3.36 10.03 12.83 17.27 23.97 17.27 13.94 0 25.27-11.34 25.27-25.27 0-13.94-11.34-25.27-25.27-25.27-11.14 0-20.61 7.25-23.97 17.27h-56.42v-25.37h46.23c2.04 0 4.01-.78 5.49-2.18l16.73-15.79c3.56 1.92 7.62 3 11.94 3 13.94 0 25.27-11.34 25.27-25.27s-11.34-25.27-25.27-25.27-25.27 11.34-25.27 25.27c0 3.8.85 7.4 2.35 10.63l-14.42 13.6h-43.06v-17.67h22.89c3.04 0 5.81-1.72 7.16-4.44l14.32-28.83c1.15.16 2.31.25 3.5.25 13.94 0 25.27-11.34 25.27-25.27s-11.32-25.26-25.25-25.26-25.27 11.34-25.27 25.27c0 6.99 2.85 13.32 7.45 17.9l-12.12 24.39h-17.93v-65.53c0-2.28-.97-4.44-2.66-5.96-10.88-9.72-24.88-15.07-39.46-15.07-26.13 0-48.97 17.19-56.52 41.68-16.69 1.62-32.19 9.65-44.16 23.02-12.81 14.3-20.15 33.57-20.15 52.88 0 18.21 6.31 35.42 17.91 49.17-6.85 9.71-10.89 21.55-10.89 34.31zm8.98-83.49c0-32.63 25.01-60.2 54.62-60.2 14.14 0 27.61 6.15 37.92 17.31 3 3.25 8.06 3.45 11.3.45 3.25-3 3.45-8.06.45-11.3-10.83-11.73-24.46-19.19-39.17-21.6 6.66-15.62 22.17-26.23 39.71-26.23 9.47 0 18.62 3.1 26.1 8.79v292.12c-5.64 4.08-12.43 6.29-19.46 6.29-10.24 0-19.66-4.64-25.86-12.33 8.18-3.12 15.48-8.4 21.13-15.47 2.76-3.45 2.19-8.49-1.26-11.24-3.45-2.76-8.49-2.19-11.24 1.26-6.45 8.08-16.07 12.71-26.39 12.71-18.61 0-33.75-15.14-33.75-33.75 0-11.9 6.38-23.05 16.65-29.1 3.81-2.24 5.08-7.15 2.83-10.95-2.24-3.81-7.15-5.08-10.95-2.83-6.71 3.95-12.29 9.38-16.43 15.73-11.84-8.04-19.18-21.55-19.18-36.15 0-24.07 19.58-43.65 43.65-43.65s43.65 19.58 43.65 43.65c0 4.42 3.58 8 8 8s8-3.58 8-8c0-32.89-26.76-59.65-59.65-59.65-14.32 0-27.47 5.07-37.76 13.51-8.37-10.63-12.91-23.64-12.91-37.37zm273.2 235.6c-4.56-7.89-11.94-13.55-20.79-15.92s-18.07-1.17-25.96 3.39l-84.75 48.93c-.71-4.31-2.19-8.51-4.43-12.43-4.92-8.61-12.87-14.77-22.37-17.36l-97.73-26.6c-13.55-3.69-28.1.03-42.1 10.75l-24.47 18.74-.55-2.06c-1.97-7.34-9.53-11.7-16.87-9.74l-23.26 6.23c-7.34 1.97-11.71 9.54-9.74 16.87l33.71 125.82c.95 3.55 3.23 6.52 6.42 8.36 2.13 1.23 4.49 1.85 6.87 1.85 1.19 0 2.39-.16 3.58-.47l23.25-6.23c7.34-1.97 11.71-9.53 9.74-16.87l-1.05-3.91c13.22-9.67 25.43-12.36 40.15-8.99l55.98 12.83c4.96 1.14 9.79 1.7 14.49 1.7 9.75 0 18.91-2.45 27.35-7.32l139.99-80.82c16.35-9.43 21.97-30.4 12.54-46.75zm-20.53 32.9-139.99 80.82c-9.02 5.21-18.92 6.48-30.27 3.88l-55.98-12.83c-17.56-4.03-32.77-1.5-48.11 8.2l-23.24-86.75 29.71-22.76c10.02-7.68 19.5-10.37 28.17-8.01l97.73 26.6c5.37 1.46 9.88 4.97 12.68 9.86 2.8 4.9 3.54 10.56 2.08 15.93-1.47 5.38-4.97 9.89-9.86 12.69s-10.55 3.53-15.94 2.07l-52.21-14.21c-4.27-1.16-8.66 1.35-9.82 5.62-1.16 4.26 1.35 8.66 5.62 9.82l52.21 14.21c3.21.87 6.47 1.31 9.72 1.31 6.37 0 12.67-1.66 18.36-4.92 7.33-4.19 12.88-10.59 15.97-18.28l94.94-54.81c4.19-2.42 9.1-3.06 13.82-1.79s8.66 4.27 11.07 8.46c5.03 8.7 2.04 19.87-6.66 24.89z"></path></svg>