<svg xmlns="http://www.w3.org/2000/svg" height="512" viewBox="0 0 64 64" width="512"><g id="Creative_thinking_brain_arrow_AI"><path d="m40 42h-16a5 5 0 0 0 -5 5v2a5 5 0 0 0 5 5h16a5 5 0 0 0 5-5v-2a5 5 0 0 0 -5-5zm-13 3a3 3 0 1 1 -3 3 3.009 3.009 0 0 1 3-3zm10 6a3 3 0 1 1 3-3 3.009 3.009 0 0 1 -3 3z"></path><path d="m28 56h8v2h-8z"></path><path d="m22 56h2v2h-2z"></path><path d="m40 56h2v2h-2z"></path><path d="m31 2h2v4h-2z"></path><path d="m22.5 4.277h2v4h-2z" transform="matrix(.866 -.5 .5 .866 .009 12.59)"></path><path d="m16.278 10.5h2v4h-2z" transform="matrix(.5 -.866 .866 .5 -2.187 21.212)"></path><path d="m44.722 11.5h4v2h-4z" transform="matrix(.866 -.5 .5 .866 .008 25.031)"></path><path d="m38.5 5.277h4v2h-4z" transform="matrix(.5 -.866 .866 .5 14.816 38.215)"></path><path d="m6 5.851v15.149a1 1 0 0 0 1 1h10v-2h-9v-14.149l2.219 2.774 1.562-1.25-4-5a1.036 1.036 0 0 0 -1.562 0l-4 5 1.562 1.25z"></path><path d="m56 5.851v14.149h-9v2h10a1 1 0 0 0 1-1v-15.149l2.219 2.774 1.562-1.25-4-5a1.036 1.036 0 0 0 -1.562 0l-4 5 1.562 1.25z"></path><path d="m14 28v-2a12.013 12.013 0 0 0 -12 12h2a10.011 10.011 0 0 1 10-10z"></path><path d="m14 30a8.009 8.009 0 0 0 -8 8h2a6.006 6.006 0 0 1 6-6z"></path><path d="m12 38a2 2 0 0 1 2-2v-2a4 4 0 0 0 -4 4z"></path><path d="m62 38a12.013 12.013 0 0 0 -12-12v2a10.011 10.011 0 0 1 10 10z"></path><path d="m56 38h2a8.009 8.009 0 0 0 -8-8v2a6.006 6.006 0 0 1 6 6z"></path><path d="m50 36a2 2 0 0 1 2 2h2a4 4 0 0 0 -4-4z"></path><path d="m59 47a3.01 3.01 0 0 0 -2.82 2h-7.18v-8a3.009 3.009 0 0 0 -3-3h-5v-1a3.01 3.01 0 0 0 -2-2.82v-2.65a11.58 11.58 0 0 0 5-9.53 12 12 0 0 0 -24 0 11.58 11.58 0 0 0 5 9.53v2.65a3.01 3.01 0 0 0 -2 2.82v1h-5a3.009 3.009 0 0 0 -3 3v8h-7.18a3 3 0 1 0 0 2h7.18v8a3.009 3.009 0 0 0 3 3h28a3.009 3.009 0 0 0 3-3v-8h7.18a3 3 0 1 0 2.82-4zm-26-29a2.006 2.006 0 0 1 2-2 1.982 1.982 0 0 1 1.73 1.02 3.918 3.918 0 0 0 -1.09.23l.72 1.86a1.851 1.851 0 0 1 1.31.02 1.968 1.968 0 0 1 .9 3.09 3.918 3.918 0 0 0 -2.25-1.99l-.64 1.9a1.931 1.931 0 0 1 1.31 1.75.487.487 0 0 0 .01.12 2 2 0 0 1 -4 0zm4 14v2h-10v-2zm-10.63-12.89a1.908 1.908 0 0 1 1.27 0l.72-1.86a3.646 3.646 0 0 0 -1.1-.22 1.994 1.994 0 0 1 3.74.97v6a2 2 0 1 1 -4-.02c0-.03.01-.07.01-.1a1.931 1.931 0 0 1 1.31-1.75l-.64-1.9a3.918 3.918 0 0 0 -2.25 1.99 1.975 1.975 0 0 1 .94-3.11zm20.63 39.89a1 1 0 0 1 -1 1h-28a1 1 0 0 1 -1-1v-18a1 1 0 0 1 1-1h28a1 1 0 0 1 1 1z"></path></g></svg>