<svg xmlns="http://www.w3.org/2000/svg" clip-rule="evenodd" fill-rule="evenodd" stroke-linejoin="round" stroke-miterlimit="2" viewBox="0 0 510 510"><path d="m72.594 222.358c-2.952 9.095-11.501 15.678-21.575 15.678-12.517 0-22.679-10.162-22.679-22.678 0-12.517 10.162-22.679 22.679-22.679 10.074 0 18.623 6.583 21.575 15.679h21.169c3.866 0 7 3.134 7 7v28.362h16.029v-21.8c0-3.651 2.807-6.689 6.447-6.978 36.291-2.877 67.893-18.823 91.793-35.892 1.187-.848 2.609-1.304 4.068-1.304h78.965c1.459 0 2.881.456 4.068 1.304 23.9 17.069 55.502 33.015 91.793 35.892 3.64.289 6.447 3.327 6.447 6.978v21.8h14.979v-28.362c0-3.866 3.134-7 7-7h14.733c2.606-9.65 11.427-16.759 21.896-16.759 12.517 0 22.679 10.162 22.679 22.678 0 12.517-10.162 22.678-22.679 22.678-9.67 0-17.935-6.066-21.194-14.597h-8.435v28.362c0 3.866-3.134 7-7 7h-21.979v58.082h23.409c2.953-9.096 11.502-15.679 21.576-15.679 12.516 0 22.678 10.162 22.678 22.679 0 12.516-10.162 22.678-22.678 22.678-10.074 0-18.623-6.583-21.576-15.678h-23.409v9.888c0 17.127-3.702 33.683-10.13 49.275h24.76c3.866 0 7 3.134 7 7v28.361h14.853c2.279-10.115 11.326-17.681 22.125-17.681 12.517 0 22.679 10.162 22.679 22.679 0 12.516-10.162 22.678-22.679 22.678-9.318 0-17.332-5.632-20.818-13.676h-23.16c-3.866 0-7-3.134-7-7v-28.361h-24.382c-8.152 15.246-18.826 29.367-30.99 41.946-27.436 28.373-62.377 48.842-92.235 56.85-1.188.319-2.439.319-3.627 0-29.848-8.008-64.79-28.477-92.228-56.85-12.165-12.579-22.84-26.7-30.994-41.946h-32.167v28.361c0 3.866-3.134 7-7 7h-19.935c-2.952 9.096-11.501 15.679-21.575 15.679-12.517 0-22.679-10.162-22.679-22.679 0-12.516 10.162-22.678 22.679-22.678 10.074 0 18.623 6.583 21.575 15.678h12.935v-28.361c0-3.866 3.134-7 7-7h32.544c-6.43-15.592-10.132-32.148-10.132-49.275v-9.888h-31.191c-2.953 9.095-11.502 15.678-21.576 15.678-12.516 0-22.678-10.162-22.678-22.678 0-12.517 10.162-22.679 22.678-22.679 10.074 0 18.623 6.583 21.576 15.679h31.191v-58.082h-23.029c-3.866 0-7-3.134-7-7v-28.362zm-12.897-7c0-4.79-3.889-8.679-8.678-8.679-4.79 0-8.679 3.889-8.679 8.679s3.889 8.678 8.679 8.678c4.789 0 8.678-3.888 8.678-8.678zm376.982 107.444c0 4.789 3.889 8.678 8.679 8.678s8.678-3.889 8.678-8.678c0-4.79-3.888-8.679-8.678-8.679s-8.679 3.889-8.679 8.679zm-375.131 108.524c0-4.79-3.889-8.678-8.678-8.678-4.79 0-8.679 3.888-8.679 8.678s3.889 8.679 8.679 8.679c4.789 0 8.678-3.889 8.678-8.679zm2.477-117.203c-4.79 0-8.678 3.889-8.678 8.679 0 4.789 3.888 8.678 8.678 8.678s8.679-3.889 8.679-8.678c0-4.79-3.889-8.679-8.679-8.679zm66.767-85.866v111.433c0 36.192 18.579 69.396 43.813 95.489 24.993 25.844 56.596 44.769 83.978 52.559 27.389-7.79 58.993-26.714 83.984-52.559 25.231-26.093 43.806-59.297 43.806-95.489v-111.433c-35.438-4.234-66.492-19.666-90.533-36.511h-74.514c-24.042 16.845-55.096 32.277-90.534 36.511zm125.7 253.233c-34.053-10.657-70.445-36.654-94.086-69.206-16.067-22.122-26.23-47.247-26.23-72.594v-100.786c0-3.382 2.418-6.28 5.745-6.887 28.507-5.194 55.314-17.39 79.335-33.664 1.159-.785 2.527-1.205 3.927-1.205h66.818c1.4 0 2.769.421 3.928 1.207 24.002 16.273 50.809 28.468 79.315 33.662 3.327.607 5.745 3.505 5.745 6.887v100.786c0 25.355-10.163 50.481-26.23 72.602-23.641 32.551-60.033 58.541-94.086 69.198-1.361.426-2.82.426-4.181 0zm2.09-14.035c30.876-10.249 63.472-33.957 84.849-63.39 14.268-19.644 23.558-41.86 23.558-64.375v-95.038c-27.576-5.906-53.598-17.831-77.122-33.504h-62.552c-23.54 15.673-49.564 27.598-77.139 33.504v95.038c0 22.508 9.29 44.723 23.558 64.368 21.377 29.434 53.973 53.147 84.848 63.397zm49.559-165.742h8.882c3.866 0 7 3.134 7 7v49.784c0 35.994-29.447 65.441-65.441 65.441-35.993 0-65.44-29.447-65.44-65.441v-49.784c0-3.866 3.134-7 7-7h8.882v-15.281c0-13.639 5.564-26.032 14.55-35.018 8.975-8.975 21.368-14.54 35.008-14.54 13.639 0 26.03 5.563 35.016 14.537l.006.006c8.974 8.985 14.537 21.377 14.537 35.015zm-85.117 0h4.561v-15.281c0-8.517 3.477-16.272 9.115-21.898 5.625-5.624 13.366-9.099 21.882-9.099 8.517 0 16.271 3.477 21.896 9.102s9.102 13.379 9.102 21.895v15.281h4.561v-15.281c0-9.785-4.002-18.671-10.44-25.119-6.447-6.437-15.333-10.439-25.119-10.439-9.784 0-18.67 4.001-25.108 10.439-6.447 6.447-10.45 15.334-10.45 25.119zm18.561 0h33.995v-15.281c0-4.668-1.919-8.912-5.002-11.996-3.083-3.083-7.328-5.001-11.996-5.001-4.667 0-8.903 1.919-11.985 5.001l-.006.006c-3.089 3.082-5.006 7.325-5.006 11.99zm-34.443 14v42.784c0 28.294 23.147 51.441 51.44 51.441 28.294 0 51.441-23.147 51.441-51.441v-42.784zm51.44 17.673c10.253 0 18.57 8.317 18.57 18.57 0 4.983-1.961 9.515-5.161 12.852v14.048c0 7.4-6.009 13.409-13.409 13.409-7.399 0-13.408-6.009-13.408-13.409 0 0 0-14.051.001-14.05-3.195-3.333-5.162-7.857-5.162-12.85 0-10.253 8.317-18.57 18.569-18.57zm0 25.391c.531-1.207 1.4-2.258 2.53-3.01 1.233-.821 2.04-2.223 2.04-3.811 0-2.523-2.047-4.57-4.57-4.57-2.522 0-4.569 2.047-4.569 4.57 0 1.595.818 2.995 2.049 3.817 1.126.752 1.991 1.8 2.52 3.004zm200.399-153.178c-4.789 0-8.678 3.888-8.678 8.678s3.889 8.678 8.678 8.678c4.79 0 8.679-3.888 8.679-8.678s-3.889-8.678-8.679-8.678zm0 215.046c-4.789 0-8.678 3.889-8.678 8.679s3.889 8.678 8.678 8.678c4.79 0 8.679-3.888 8.679-8.678s-3.889-8.679-8.679-8.679zm-170.331-388.092c5.06-2.191 10.679-3.415 16.596-3.415 22.417 0 40.448 17.502 40.448 38.844 0 .167-.001.333-.004.499 17.911 8.935 30.13 26.892 30.13 47.387 0 29.261-24.985 53.383-55.72 53.383h-130.214c-30.735 0-55.706-24.121-55.706-53.383 0-23.34 15.856-43.388 37.89-50.738 2.818-32.022 30.681-57.13 64.815-57.13 21.141 0 39.903 9.657 51.765 24.553zm-8.028 12.812c-8.965-14.043-25.218-23.365-43.737-23.365-28.111 0-51.049 21.529-51.049 48.483 0 3.254-2.242 6.078-5.41 6.817-18.336 4.277-32.246 19.9-32.246 38.568 0 21.755 18.856 39.383 41.706 39.383h130.214c22.852 0 41.72-17.627 41.72-39.383 0-16.48-10.874-30.611-26.042-36.476-3.085-1.193-4.914-4.383-4.386-7.648.199-1.226.302-2.483.302-3.762 0-13.809-11.943-24.844-26.448-24.844-5.529 0-10.67 1.596-14.93 4.343-1.565 1.009-3.468 1.354-5.287.956-1.819-.397-3.405-1.502-4.407-3.072zm-91.722 54.525c21.644-25.05 43.87-37.295 65.895-37.386 22.036-.091 44.404 11.968 66.311 37.393 2.263 2.626 2.263 6.513 0 9.139-21.907 25.425-44.275 37.483-66.311 37.392-22.025-.09-44.251-12.335-65.895-37.385-2.271-2.629-2.271-6.525 0-9.153zm50.118-20.648c-11.875 4.054-23.656 12.563-35.426 25.224 11.77 12.661 23.551 21.171 35.426 25.225-8.341-5.299-13.88-14.62-13.88-25.225 0-10.604 5.539-19.925 13.88-25.224zm31.874 50.506c11.864-4.013 23.678-12.502 35.527-25.282-11.849-12.779-23.663-21.268-35.527-25.281 8.391 5.289 13.97 14.639 13.97 25.281 0 10.643-5.579 19.993-13.97 25.282zm-15.892-41.144c-8.755 0-15.862 7.108-15.862 15.862 0 8.755 7.107 15.863 15.862 15.863s15.862-7.108 15.862-15.863c0-8.754-7.107-15.862-15.862-15.862z"></path></svg>