<svg xmlns="http://www.w3.org/2000/svg" height="512" viewBox="0 0 512 512" width="512"><g id="line"><path d="m274.51758 308.04785a30.78752 30.78752 0 0 0 -52.374 0l-77.24316 124.9082c-12.73799 20.53302 1.99986 47.04395 26.16306 47.04395h154.53418c24.1582 0 38.899-26.50213 26.16894-47.03418zm51.08008 155.95215h-154.53418a14.79554 14.79554 0 0 1 -12.56148-22.61816l77.249-124.918a14.76885 14.76885 0 0 1 25.15918 0l77.249 124.918.00586.00976a14.79614 14.79614 0 0 1 -12.56738 22.6084z"></path><path d="m248.33105 428.34668a9.17432 9.17432 0 1 0 9.167 9.1748 9.18156 9.18156 0 0 0 -9.167-9.1748z"></path><path d="m248.08594 411.94824a8.00039 8.00039 0 0 0 8-8v-58.15332a8 8 0 0 0 -16 0v58.15332a8.00039 8.00039 0 0 0 8 8z"></path><path d="m256.59863 272.502a9.15039 9.15039 0 1 0 9.15039-9.15625 9.16426 9.16426 0 0 0 -9.15039 9.15625z"></path><path d="m226.48633 272.502a9.15088 9.15088 0 1 0 9.15039-9.15625 9.16426 9.16426 0 0 0 -9.15039 9.15625z"></path><path d="m286.26953 211.502a35.57666 35.57666 0 1 0 -35.57617 35.57666 35.61676 35.61676 0 0 0 35.57617-35.57666zm-35.57617 19.57666a19.57691 19.57691 0 1 1 19.57617-19.57666 19.59916 19.59916 0 0 1 -19.57617 19.57661z"></path><path d="m296.752 265.53711a70.9988 70.9988 0 1 0 -89.07812 2.45312 8.00026 8.00026 0 1 0 9.70312-12.72265 55.00214 55.00214 0 1 1 68.99024-1.90283 8.00015 8.00015 0 0 0 10.38476 12.17236z"></path><path d="m422.125 231.96875a22.37586 22.37586 0 0 0 -12.10474 3.545l-12.00805-9.12115a201.99312 201.99312 0 0 0 11.67724-17.01959 8.00082 8.00082 0 0 0 -.63476-9.07959c-2.23169-2.78809-4.47815-5.49-6.73194-8.14875l10.00415-7.59893a22.4981 22.4981 0 1 0 -9.55236-12.83649l-11.09937 8.43091a267.5669 267.5669 0 0 0 -39.38318-35.111v-11.93248l13.79834-6.1922a22.48094 22.48094 0 1 0 -6.03467-15.30878c0 .159.00879.31592.012.47412l-19.051 8.54932a8 8 0 0 0 -4.72466 7.29886v6.66577a177.90637 177.90637 0 0 0 -32.41113-15.05414v-22.34363l16.58373-13.879a22.5255 22.5255 0 1 0 -11.5006-11.23925l-18.2179 15.2467a8.00211 8.00211 0 0 0 -2.86523 6.13477v21.49978a154.11846 154.11846 0 0 0 -29.1875-3.871c0-36.17558.0786-35.00453-.14136-36.18524a22.50615 22.50615 0 1 0 -15.84411 1.18689l-.01453 35.25586a168.64954 168.64954 0 0 0 -31.89648 5.35767v-23.85285a8.00145 8.00145 0 0 0 -1.20411-4.22119l-7.92639-12.76166a22.53264 22.53264 0 1 0 -13.75915 8.173l6.88965 11.092v26.59863a215.07686 215.07686 0 0 0 -25.30958 11.10224v-17.258a8.00158 8.00158 0 0 0 -3.01074-6.25391l-18.88489-15.066a22.54419 22.54419 0 1 0 -9.12158 13.19135l15.0172 11.98021v22.45825a272.81738 272.81738 0 0 0 -26.81042 18.85767c-.6689-.66712.0078-.09631-16.61768-12.72479.00818-.24787.01892-.49512.01892-.74494a22.53282 22.53282 0 1 0 -6.56518 15.86475l10.65356 8.09235c-17.71972 15.67971-27.96826 28.37914-28.52392 29.07317a8.00073 8.00073 0 0 0 .03711 10.04394 416.64478 416.64478 0 0 0 38.60254 41.73676v22.34772l-16.27123 11.34558a22.5033 22.5033 0 1 0 11.39746 11.55938l17.44995-12.16766a8.00088 8.00088 0 0 0 3.42383-6.5625v-12.52q7.54723 6.15491 15.11718 11.48242v33.73944a22.50977 22.50977 0 1 0 16 0v-23.4092a190.35015 190.35015 0 0 0 25.00878 12.40066 7.99964 7.99964 0 1 0 5.99414-14.834c-33.23144-13.42968-66.86816-40.3457-100.05371-80.0498a286.30276 286.30276 0 0 1 40.76172-37.14307c25.22266-18.84082 64.76953-41.29052 109.998-41.29052h.08789c49.52148.03222 96.51465 26.56054 139.752 78.874-10.07324 15.05329-45.10449 62.65439-96.65724 81.71198a8 8 0 0 0 5.54687 15.00782c1.678-.6203 3.334-1.27344 4.97754-1.94434v22a8.00157 8.00157 0 0 0 4.13867 7.00684l16.47949 9.08221a22.52306 22.52306 0 1 0 11.32373-12.02893l-15.94189-8.78571v-24.80908a193.97851 193.97851 0 0 0 22.03809-13.84265v8.74646a7.99947 7.99947 0 0 0 4.7246 7.29883l18.06238 8.106a22.53854 22.53854 0 1 0 6.31153-14.70514l-13.09851-5.87842v-16.30925a261.26017 261.26017 0 0 0 27.15625-27.6159l12.45813 9.463a22.50784 22.50784 0 1 0 21.6571-16.38153zm2.30664-72.876a6.499 6.499 0 1 1 -6.50976 6.499 6.51139 6.51139 0 0 1 6.50976-6.49898zm-41.86719-53.99609a6.499 6.499 0 1 1 -6.50879 6.499 6.5116 6.5116 0 0 1 6.50879-6.49898zm-53.15918-48.93211a6.499 6.499 0 1 1 -6.50976 6.499 6.51139 6.51139 0 0 1 6.50976-6.499zm-151.85839 5.70313a6.50977 6.50977 0 1 1 6.50976 6.499 6.5116 6.5116 0 0 1 -6.50976-6.499zm-51.81836 33.53418a6.499 6.499 0 1 1 6.50976-6.499 6.51139 6.51139 0 0 1 -6.50976 6.499zm-44.669 51.86132a6.50552 6.50552 0 0 1 12.34229-2.86645c1.48072 2.58629 1.58427 9.36548-5.8335 9.36548a6.51139 6.51139 0 0 1 -6.50874-6.49903zm17.69824 165.5044a6.49854 6.49854 0 1 1 6.50977-6.499 6.51128 6.51128 0 0 1 -6.50972 6.499zm64.6416 26.05566a6.499 6.499 0 1 1 6.50977-6.499 6.51128 6.51128 0 0 1 -6.50972 6.499zm85.66119-290.82324a6.499 6.499 0 1 1 -6.50977 6.499 6.51139 6.51139 0 0 1 6.50977-6.499zm105.78906 299.03418a6.50978 6.50978 0 1 1 -6.50977-6.498 6.51128 6.51128 0 0 1 6.50977 6.498zm35.27739-49.21875a6.49854 6.49854 0 1 1 -6.50976 6.499 6.51128 6.51128 0 0 1 6.50976-6.499zm31.998-36.84863a6.499 6.499 0 1 1 6.50879-6.499 6.51129 6.51129 0 0 1 -6.50879 6.499z"></path></g></svg>