<svg xmlns="http://www.w3.org/2000/svg" id="Layer_1" height="512" viewBox="0 0 26 26" width="512"><g id="_x31_79"><path d="m19.9552002 1h-13.9101563c-1.9199218 0-3.4899902 1.5600586-3.4899902 3.4899902v17.0200195c0 1.9201661 1.5700684 3.4899903 3.4899902 3.4899903h13.9101563c1.9199219 0 3.4897461-1.5698242 3.4897461-3.4899902v-17.0200196c0-1.9299316-1.5698242-3.4899902-3.4897461-3.4899902zm-7.0087891 20.3388672h-4.7685547c-.5969238 0-1.0800781-.4833984-1.0800781-1.079834s.4831543-1.079834 1.0800781-1.079834h4.7685547c.5969238 0 1.079834.4833984 1.079834 1.079834s-.4829101 1.079834-1.079834 1.079834zm4.8740235-5.1586914h-9.6425782c-.5969238 0-1.0800781-.4836426-1.0800781-1.079834 0-.5964355.4831543-1.0800781 1.0800781-1.0800781h9.6425781c.5969238 0 1.0800781.4836426 1.0800781 1.0800781.0000001.5961914-.4831542 1.079834-1.080078 1.079834zm1.4331054-9.7246094-3.4641113 3.8613281c-.3532715.3933105-.9396973.4711914-1.3845215.189209l-3.3608398-2.1433105-2.7165527 2.8344727c-.4125981.4311361-1.0968399.4446926-1.5258789.0327148-.4313965-.4128418-.4460449-1.0961914-.0327148-1.5268555l3.3291016-3.4743652c.357666-.371582.927002-.439209 1.3603516-.1633301l3.3356934 2.1269531 2.8525391-3.1794434c.3984375-.4438477 1.0820313-.4787598 1.5249023-.0822754.4438474.3981934.4807127 1.0810548.082031 1.5249024z"></path></g></svg>