<svg xmlns="http://www.w3.org/2000/svg" id="Layer_1" data-name="Layer 1" viewBox="0 0 512 512" width="512" height="512"><path d="M205.074,79a5,5,0,0,0,0,10h.931a5,5,0,0,0,0-10Z"></path><path d="M222.63,79a5,5,0,0,0,0,10h.609a5,5,0,1,0,0-10Z"></path><path d="M247.059,79a5,5,0,1,0,0,10h.285a5,5,0,0,0,0-10Z"></path><path d="M330.067,108.391a4.947,4.947,0,0,0,3.536,1.427,5,5,0,0,0,3.535-1.483l21.078-21.087a5.007,5.007,0,0,0,0-7.076l-21.078-21.08a5,5,0,0,0-7.071,0,5.18,5.18,0,0,0,0,7.219L342.609,79H270.676a5,5,0,0,0,0,10h71.933l-12.542,12.394A4.91,4.91,0,0,0,330.067,108.391Z"></path><path d="M387.057,423h-.93a5,5,0,1,0,0,10h.93a5,5,0,0,0,0-10Z"></path><path d="M369.5,423h-.61a5,5,0,0,0,0,10h.61a5,5,0,0,0,0-10Z"></path><path d="M345.073,423h-.285a5,5,0,0,0,0,10h.285a5,5,0,0,0,0-10Z"></path><path d="M321.456,423H207.367l12.542-12.394a4.91,4.91,0,0,0,0-7,5,5,0,0,0-7.071.037l-21.078,21.1a5.012,5.012,0,0,0,0,7.08l21.078,21.083a5,5,0,0,0,7.071,0,5.18,5.18,0,0,0,0-7.219L207.367,433H321.456a5,5,0,0,0,0-10Z"></path><path d="M478.458,173.954a5,5,0,0,0-7.071,0,5.264,5.264,0,0,0,0,7.287L483.929,194H462.583a5,5,0,0,0,0,10h21.346l-12.542,12.326a4.87,4.87,0,0,0,0,6.963,4.93,4.93,0,0,0,3.535,1.411,5.017,5.017,0,0,0,3.536-1.492l21.078-21.091a5.018,5.018,0,0,0,0-7.085Z"></path><path d="M402.04,194a5,5,0,1,0,0,10h.93a5,5,0,0,0,0-10Z"></path><path d="M419.6,194a5,5,0,0,0,0,10h.61a5,5,0,0,0,0-10Z"></path><path d="M444.024,194a5,5,0,0,0,0,10h.285a5,5,0,0,0,0-10Z"></path><path d="M492.458,308h-.609a5,5,0,1,0,0,10h.609a5,5,0,1,0,0-10Z"></path><path d="M468.029,308h-.285a5,5,0,0,0,0,10h.285a5,5,0,0,0,0-10Z"></path><path d="M449.471,308H397.1l12.542-12.326a4.87,4.87,0,0,0,0-6.963,5,5,0,0,0-7.071.054l-21.078,21.1a5.024,5.024,0,0,0,0,7.092l21.078,21.081a5,5,0,0,0,7.071,0,5.264,5.264,0,0,0,0-7.287L397.1,318h52.372a5,5,0,0,0,0-10Z"></path><path d="M388.2,271.8A22.347,22.347,0,1,0,350.634,251H96.547a68.753,68.753,0,0,1,1.776-12H226.386c12.5,0,22.669-10.5,22.669-23a12.971,12.971,0,0,1,12.668-13h27.331a23.025,23.025,0,0,0,5.965,10.994,22.283,22.283,0,1,0,15.8-37.962A22.048,22.048,0,0,0,289.054,193H261.723c-12.5,0-22.668,10.5-22.668,23a12.971,12.971,0,0,1-12.669,13H101.451a63.4,63.4,0,0,1,7.2-14h71.717a27.349,27.349,0,0,0,25.552-17.775l11.493-31A17.288,17.288,0,0,1,233.586,155h3.782a21.6,21.6,0,0,0,6.321,12.77,22.356,22.356,0,1,0,0-31.6A24.479,24.479,0,0,0,238.275,145h-4.689a27.334,27.334,0,0,0-25.552,17.759l-11.492,31.006A17.3,17.3,0,0,1,180.367,205H116.791c13.068-13,31.323-21.808,51.507-21.808,2.212,0,4.442.106,6.629.306a5,5,0,0,0,5.456-4.973l.029-57.9a5,5,0,0,0-4.765-5,144.184,144.184,0,0,0-29.981,1.728l-15.53-16.193a5,5,0,0,0-5.613-1.12l-41.4,18.113a5,5,0,0,0-2.983,4.947l1.649,22.424a129.061,129.061,0,0,0-26.975,28.32l-22.4-.66a4.988,4.988,0,0,0-4.811,3.2L11.335,218.528a5,5,0,0,0,1.4,5.586L29.57,238.641a143.541,143.541,0,0,0,1.011,39.067l-16.194,15.53a5,5,0,0,0-1.12,5.613l18.116,41.4a4.99,4.99,0,0,0,4.947,2.982l22.423-1.648a129.079,129.079,0,0,0,28.32,26.974l-.659,22.4a5,5,0,0,0,3.2,4.812l42.141,16.265a5,5,0,0,0,5.586-1.4L151.864,393.8a144.224,144.224,0,0,0,23.825.655,5,5,0,0,0,4.723-4.928l.745-57.913a5,5,0,0,0-5.505-5.038A71.666,71.666,0,0,1,118.659,307h61.708a17.309,17.309,0,0,1,16.175,11.249l11.492,31A27.33,27.33,0,0,0,233.586,367h4.689a24.471,24.471,0,0,0,5.414,8.833,22.322,22.322,0,1,0,0-31.6A21.6,21.6,0,0,0,237.368,357h-3.782a17.292,17.292,0,0,1-16.174-11.232l-11.493-31.006A27.337,27.337,0,0,0,180.367,297H109.959a64.133,64.133,0,0,1-7.764-14H226.386a12.971,12.971,0,0,1,12.669,13c0,12.5,10.169,23,22.668,23h27.331a21.844,21.844,0,0,0,5.965,10.609,22.41,22.41,0,1,0,15.8-38.334,22.381,22.381,0,0,0-15.8,6.734A23.016,23.016,0,0,0,289.054,309H261.723a12.971,12.971,0,0,1-12.668-13c0-12.5-10.169-23-22.669-23H98.765a68.851,68.851,0,0,1-2.077-12H350.634A22.336,22.336,0,0,0,388.2,271.8ZM69.534,222.642a5,5,0,1,1-9.475-3.2,114.465,114.465,0,0,1,63.6-68.653,5,5,0,1,1,3.916,9.2A104.453,104.453,0,0,0,69.534,222.642Z"></path></svg>