<svg xmlns="http://www.w3.org/2000/svg" viewBox="0 0 512 512"><g id="_x32_3_Statistics"><g><path d="m473.293 70.557c3.081-4.515 4.889-9.965 4.889-15.832 0-15.505-12.633-28.124-28.162-28.124-15.505 0-28.124 12.619-28.124 28.124 0 5.648 1.685 10.901 4.555 15.315l-18.551 16.221c-28.808-36.306-73.277-59.659-123.128-59.659-37.881 0-72.673 13.478-99.834 35.89l-15.289-14.899c2.186-4 3.432-8.585 3.432-13.455 0-15.51-12.633-28.129-28.16-28.129-15.508 0-28.126 12.619-28.126 28.129 0 6.651 2.328 12.761 6.195 17.584l-54.012 82.231c-7.102-3.059-15.426-3.18-23.026.395l-21.086-29.367c-1.96-2.734-5.769-3.349-8.508-1.396-2.737 1.967-3.361 5.773-1.396 8.512l21.319 29.691c-4.077 4.881-6.538 11.156-6.538 17.997 0 15.524 12.616 28.157 28.124 28.157 15.527 0 28.16-12.633 28.16-28.157 0-7.169-2.723-13.699-7.161-18.672l53.684-81.728c9.62 4.745 20.69 3.56 29.046-2.61l14.249 13.886c-29.661 28.593-48.167 68.681-48.167 113.033 0 73.453 50.652 135.278 118.844 152.412v131.615c0 21.103 17.168 38.27 38.275 38.27 21.103 0 38.27-17.168 38.27-38.27 0-45.584 0-86.028 0-131.622 68.198-17.144 118.846-78.962 118.846-152.405 0-32.401-9.867-62.539-26.749-87.578l20.023-17.509c8.979 5.614 20.131 5.702 29.191.302l23.022 27.677c2.145 2.577 5.983 2.947 8.589.786 2.587-2.153 2.939-5.997.786-8.589zm-415.426 105.191c-8.784 0-15.929-7.16-15.929-15.963 0-8.784 7.145-15.929 15.929-15.929 8.803 0 15.965 7.145 15.965 15.929 0 8.804-7.162 15.963-15.965 15.963zm87.054-125.648c-8.784 0-15.932-7.16-15.932-15.963 0-8.784 7.148-15.934 15.932-15.934 8.803 0 15.965 7.15 15.965 15.934 0 8.803-7.162 15.963-15.965 15.963zm165.951 417.621c0 14.376-11.699 26.076-26.076 26.076-14.381 0-26.08-11.699-26.08-26.076v-42.82h52.156zm0-55.014h-52.156v-74.07c17.509 2.937 34.646 2.935 52.156-.006zm-26.1-84.063c-79.899 0-144.9-65.023-144.9-144.95 0-79.899 65.001-144.898 144.9-144.898 79.923 0 144.946 64.999 144.946 144.898 0 79.928-65.023 144.95-144.946 144.95zm149.319-273.919c0-8.784 7.145-15.929 15.929-15.929 8.803 0 15.967 7.145 15.967 15.929 0 8.803-7.164 15.967-15.967 15.967-8.784.001-15.929-7.164-15.929-15.967z"></path><path d="m386.526 113.055c-.018-.02-.044-.027-.062-.047-22.414-32.124-59.626-53.2-101.688-53.2-30.64 0-58.697 11.204-80.347 29.7-.092.084-.212.115-.3.206-.036.037-.045.086-.08.124-26.4 22.737-43.164 56.368-43.164 93.861 0 68.333 55.576 123.929 123.891 123.929 68.333 0 123.929-55.595 123.929-123.929 0-26.155-8.171-50.427-22.065-70.444-.049-.062-.061-.14-.114-.2zm-12.827 3.113-39.87 34.858c-16.756-15.808-42.365-16.441-59.82-1.728l-56.292-54.86c18.689-14.076 41.915-22.435 67.06-22.435 36.242 0 68.494 17.35 88.922 44.165zm-70.754 34.729c18.116 0 32.854 14.71 32.854 32.792 0 18.111-14.738 32.85-32.854 32.85-18.078 0-32.788-14.738-32.788-32.85.001-18.082 14.71-32.792 32.788-32.792zm-18.168 144.536c-61.588 0-111.696-50.122-111.696-111.734 0-32.047 13.587-60.964 35.279-81.352l57.456 55.994c-4.947 7.225-7.853 15.951-7.853 25.349 0 24.837 20.178 45.044 44.982 45.044 24.842 0 45.049-20.207 45.049-45.044 0-8.478-2.404-16.388-6.504-23.165l39.113-34.195c10.091 16.78 15.908 36.406 15.908 57.37 0 61.611-50.122 111.733-111.734 111.733z"></path></g></g><g id="Layer_1"></g></svg>