<svg xmlns="http://www.w3.org/2000/svg" height="464pt" viewBox="0 0 464 464" width="464pt"><path d="m266.230469 328 4.617187-13.839844-12.503906-12.503906c-1.5-1.5-2.34375-3.535156-2.34375-5.65625v-8h16v4.6875l10.457031 10.457031 21.542969-5.390625v-41.753906h16v12.6875l8-8v-34.289062l-9.238281-13.839844-6.761719 6.753906v4.6875h-16v-8c0-2.121094.84375-4.15625 2.34375-5.65625l13.65625-13.65625v-25.375l-11.3125-11.3125h-17.375l-11.3125 11.3125v4.6875h-16v-8c0-2.121094.84375-4.15625 2.34375-5.65625l12.503906-12.503906-4.617187-13.839844h-14.917969l-11.3125 11.3125v169.375l11.3125 11.3125zm21.769531-48h-16v-12.6875l-5.65625-5.65625 11.3125-11.3125 8 8c1.5 1.5 2.34375 3.535156 2.34375 5.65625zm-32-88h16v20.6875l13.65625 13.65625-11.3125 11.3125-16-16c-1.5-1.5-2.34375-3.535156-2.34375-5.65625zm0 0"></path><path d="m240 32.199219v24c90.859375 4.242187 163.558594 76.941406 167.800781 167.800781h24c-4.296875-104.097656-87.703125-187.503906-191.800781-191.800781zm0 0"></path><path d="m197.769531 136-4.617187 13.839844 12.503906 12.503906c1.5 1.5 2.34375 3.535156 2.34375 5.65625v8h-16v-4.6875l-11.3125-11.3125h-17.375l-11.3125 11.3125v25.375l13.65625 13.65625c1.5 1.5 2.34375 3.535156 2.34375 5.65625v8h-16v-4.6875l-6.761719-6.753906-9.238281 13.839844v34.265624l8 8v-12.664062h16v41.753906l21.542969 5.390625 10.457031-10.457031v-4.6875h16v8c0 2.121094-.84375 4.15625-2.34375 5.65625l-12.503906 12.503906 4.617187 13.839844h14.917969l11.3125-11.3125v-169.375l-11.3125-11.3125zm-5.769531 131.3125v12.6875h-16v-16c0-2.121094.84375-4.15625 2.34375-5.65625l8-8 11.3125 11.3125zm16-51.3125c0 2.121094-.84375 4.15625-2.34375 5.65625l-16 16-11.3125-11.3125 13.65625-13.65625v-20.6875h16zm0 0"></path><path d="m224 431.800781v-24c-90.859375-4.242187-163.558594-76.941406-167.800781-167.800781h-24c4.296875 104.097656 87.703125 187.503906 191.800781 191.800781zm0 0"></path><path d="m224 56.199219v-24c-104.097656 4.296875-187.503906 87.703125-191.800781 191.800781h24c4.242187-90.859375 76.941406-163.558594 167.800781-167.800781zm0 0"></path><path d="m431.800781 240h-24c-4.242187 90.859375-76.941406 163.558594-167.800781 167.800781v24c104.097656-4.296875 187.503906-87.703125 191.800781-191.800781zm0 0"></path><path d="m240 391.59375c81.933594-4.171875 147.421875-69.660156 151.59375-151.59375h-15.59375v-16h15.59375c-4.171875-81.933594-69.660156-147.421875-151.59375-151.59375v15.59375h-16v-15.59375c-81.933594 4.171875-147.421875 69.660156-151.59375 151.59375h15.59375v16h-15.59375c4.171875 81.933594 69.660156 147.421875 151.59375 151.59375v-15.59375h16zm-8-60.28125-10.34375 10.34375c-1.5 1.5-3.535156 2.34375-5.65625 2.34375h-24c-3.445312 0-6.503906-2.203125-7.59375-5.472656l-6.605469-19.832032-27.746093-6.933593c-3.558594-.894531-6.054688-4.09375-6.054688-7.761719v-12.6875l-21.65625-21.65625c-1.5-1.5-2.34375-3.535156-2.34375-5.65625v-40c.003906-1.578125.46875-3.125 1.34375-4.441406l14.65625-21.957032v-29.601562c0-2.121094.84375-4.15625 2.34375-5.65625l16-16c1.5-1.5 3.535156-2.34375 5.65625-2.34375h18.230469l6.175781-18.527344c1.089844-3.269531 4.148438-5.472656 7.59375-5.472656h24c2.121094 0 4.15625.84375 5.65625 2.34375l10.34375 10.34375 10.34375-10.34375c1.5-1.5 3.535156-2.34375 5.65625-2.34375h24c3.441406.003906 6.496094 2.207031 7.585938 5.472656l6.183593 18.527344h18.230469c2.121094 0 4.15625.84375 5.65625 2.34375l16 16c1.5 1.5 2.34375 3.535156 2.34375 5.65625v29.601562l14.65625 21.984376c.871094 1.308593 1.335938 2.84375 1.34375 4.414062v40c0 2.121094-.84375 4.15625-2.34375 5.65625l-21.65625 21.65625v12.6875c0 3.671875-2.5 6.871094-6.0625 7.761719l-27.738281 6.933593-6.613281 19.832032c-1.089844 3.265625-4.144532 5.46875-7.585938 5.472656h-24c-2.121094 0-4.15625-.84375-5.65625-2.34375zm0 0"></path><path d="m224 0h16v32h-16zm0 0"></path><path d="m432 224h32v16h-32zm0 0"></path><path d="m224 432h16v32h-16zm0 0"></path><path d="m0 224h32v16h-32zm0 0"></path></svg>