<svg xmlns="http://www.w3.org/2000/svg" id="Layer_1" viewBox="0 0 512 512"><path d="m456.31 321.16c12.59 0 18.91-15.28 10.03-24.18-8.9-8.9-24.18-2.58-24.18 10.01.01 7.82 6.33 14.17 14.15 14.17zm19.93 5.75c-17.72 17.69-48.08 5.07-48.08-19.93s30.36-37.62 48.08-19.9c11 11 11 28.83 0 39.83zm-19.93-116.08c12.59 0 18.91-15.28 10.03-24.18-8.9-8.9-24.18-2.55-24.18 10.01.01 7.82 6.33 14.17 14.15 14.17zm19.93 5.76c-17.72 17.69-48.08 5.1-48.08-19.93 0-24.97 30.36-37.59 48.08-19.9 11 11 11 28.83 0 39.83zm-19.93-116.08c12.59 0 18.91-15.28 10.03-24.15-8.9-8.9-24.18-2.58-24.18 10.01.01 7.82 6.33 14.14 14.15 14.14zm19.93 5.75c-17.72 17.72-48.08 5.1-48.08-19.9s30.36-37.62 48.08-19.93c11 11 11 28.83 0 39.83zm-128.89 68.49c-3.85 0-7-3.12-7-7 0-3.86 3.15-7 7-7h33.82l37.9-42.04c2.58-2.86 7-3.12 9.86-.51 2.86 2.58 3.09 7 .51 9.86l-39.74 44.08c-1.28 1.59-3.23 2.61-5.44 2.61zm-84.3-28.46-6.49 16.67c-.51 1.28.17 2.81 1.42 3.29 6.12 2.38 11.14 3.57 14.63 9.33 1.84 3.03 2.69 6.63 2.3 10.35-.88 8.02-.71 15.93.51 23.81 1.13 7.46-2.75 14.6-9.64 17.63l-6.38 2.81c-1.3.57-1.84 2.04-1.3 3.32l7.23 16.38c.57 1.28 2.01 1.84 3.32 1.28 6.01-2.64 10.37-5.33 16.92-3.74 3.46.85 6.6 2.81 8.96 5.73 4.99 6.21 10.71 11.74 17.21 16.47 6.04 4.42 8.33 12.27 5.61 19.28l-2.52 6.46c-.48 1.3.17 2.81 1.42 3.29l16.7 6.49c1.28.48 2.81-.17 3.29-1.42 2.38-6.12 3.54-11.14 9.33-14.66 3.57-2.15 6.92-2.64 11.11-2.18v-14.8c-49.55-5.78-80.9-56.92-62.62-103.95 10.4-26.79 34.61-45.13 62.62-48.39v-14.88c-5.75.57-9.58 1.87-15.19-1.19-9.69-5.33-8.19-17.74-13.27-15.51l-16.38 7.2c-1.3.57-1.84 2.04-1.3 3.32 2.66 6.01 5.36 10.37 3.77 16.92-.85 3.46-2.81 6.6-5.73 8.96-6.24 4.99-11.74 10.74-16.5 17.21-4.37 6.01-12.22 8.36-19.25 5.61l-6.49-2.52c-1.31-.5-2.81.15-3.29 1.43zm-19.51 11.65 6.46-16.7c3.32-8.5 12.84-12.7 21.34-9.41l4.14 1.62c-30.05-54.14-101.62-64.63-144.65-19.62-29.54 30.93-35.46 78.72-14.29 116.33 8.25 14.66 20.1 26.79 34.27 35.09 13.1 7.68 20.55 20.95 20.81 36.14h1.39v-70.44l.17-13.69c-.14-9.13-2.32-15.65-17.4-15.39-3.86.06-7.03-3-7.09-6.86s3-7.03 6.86-7.09c35.35-.57 31.46 20.49 31.46 43.03v70.44h17.66v-69.62c0-22.68-4.22-44.48 31.52-43.85 3.86.06 6.95 3.23 6.89 7.09-.08 3.85-3.23 6.92-7.09 6.86-18.94-.34-17.74 10.09-17.43 23.05.06 2.78.11 5.64.11 6.86v69.62h1.96c.14-15.22 7.57-28.63 20.66-36.43 4-2.38 8.08-5.27 11.76-8.33-.2-.37-.37-.74-.54-1.13l-7.23-16.38c-3.66-8.33.17-18.11 8.45-21.77l6.38-2.78c1.11-.51 1.67-1.53 1.5-2.69-1.42-9.04-1.62-18.37-.62-27.44.11-1.25-.43-2.21-1.59-2.66-6.72-2.61-12.42-4-15.62-11.25-1.68-3.87-1.91-8.38-.24-12.6zm43.6-32.29c3.88-4.37 8.11-8.36 12.64-11.99.96-.77 1.22-1.87.74-2.98-2.92-6.63-5.95-11.57-3.06-18.99 1.53-3.94 4.54-7.31 8.7-9.13l16.38-7.23c8.33-3.66 18.08.17 21.74 8.45l2.81 6.38c.48 1.11 1.53 1.67 2.69 1.5 4.08-.62 9.81-1.25 13.86-1.25 3.88 0 7 3.15 7 7v28.8h-.03c0 3.77-3 6.89-6.8 6.97-24.97.62-47.57 16.27-56.78 39.97-14.12 36.28 8.02 76.56 46.09 84.25 3.26.65 7.26 1.16 10.52 1.16 3.88 0 7 3.15 7 7v28.72h-.03c-.03 3.94-3.23 7.06-7.11 6.97l-9.13-.6c-1.22-.14-2.18.43-2.64 1.59-2.61 6.72-4 12.42-11.25 15.59-3.85 1.7-8.36 1.93-12.59.28l-16.7-6.49c-8.5-3.29-12.7-12.84-9.41-21.32l2.52-6.49c.43-1.13.14-2.24-.88-2.95-7.4-5.44-14.09-11.85-19.81-18.99-.77-.96-1.87-1.25-3-.74-5.39 2.38-9.84 5.05-15.96 3.91-5.05 4.51-10.32 8.36-16.24 11.88-8.82 5.24-13.69 14.17-13.83 24.46h3.12c18 0 27.27 21.88 14.54 34.7-1.73 1.73-3.77 3.15-6.01 4.17.2 4.45-.57 8.62-2.32 12.47 13.41 6.04 27.84 17.15 26.14 31.95l74.27-26.33c43.51-15.45 63.78 25.54 20.52 46.46l-120.1 58.05c-6.72 3.26-13.72 4.05-21.03 2.49l-84.61-18.34-41.98 16.61c-2.1 11.59-12.27 20.27-24.26 20.27h-26.3c-13.58 0-24.66-11.08-24.66-24.66h.03v-95.95h-.03c0-13.58 11.08-24.69 24.66-24.69h26.28c10.91 0 20.41 7.23 23.56 17.38l43.88-19.73c-3.8-3.74-6.12-8.84-6.12-14.6h-.03c0-11.11 9.04-20.21 20.27-20.24h3.29c-.26-10.15-5.16-18.96-13.92-24.09-61.03-35.83-72.06-121.83-23.05-173.08 49.15-51.42 131.33-40.19 166.42 21.43zm60.21 109.84c-3.85 0-7-3.15-7-7 0-3.88 3.15-7 7-7h36.91c2.41 0 4.54 1.19 5.78 3.03l31.78 39.23c2.44 2.98 1.98 7.37-.99 9.81-3 2.44-7.4 1.98-9.84-1.02l-30.02-37.05zm0-27.61c-3.85 0-7-3.12-7-6.97 0-3.88 3.15-7 7-7h64.6c3.86 0 7 3.12 7 7 0 3.86-3.15 6.97-7 6.97zm-249.88 162.91v77.64l38.44-15.19c1.25-.51 2.64-.65 4.05-.34l86.68 18.77c4.25.94 8.11.51 12.02-1.39l120.1-58.05c9.95-4.82 14.91-10.2 15.93-14.77.65-2.81-.43-4.88-2.89-6.38-4.48-2.78-12.42-3.26-22.85.45l-98.08 34.75c-1.42.51-3 .57-4.56.03l-71.63-24.46c-3.66-1.22-5.61-5.19-4.37-8.84 1.25-3.66 5.22-5.61 8.87-4.37l68.8 23.5c7.8-4.51 11.25-9.81 4.59-17.09-4.99-5.44-13.07-9.27-21.66-12.61l-49.89-20.44c-6.55.03-13.1.06-19.67.06zm-24.63-18.2h-26.28c-5.84 0-10.66 4.82-10.66 10.69h-.03v95.95h.03c0 5.84 4.82 10.66 10.66 10.66h26.28c5.84 0 10.66-4.82 10.66-10.66h.03c-.03-.4-.03-.77 0-1.11v-94.85c0-5.86-4.85-10.68-10.69-10.68zm86.66-24.46c.23-.03.45-.03.68 0 7.11.17 15.48-.14 22.68 0h54.79c6.52-.26 8.36-7.14 4.59-10.89-1.16-1.16-2.78-1.9-4.54-1.9h-83.37c-3.37 0-6.24 2.81-6.24 6.29 0 3.54 2.89 6.46 6.46 6.46zm58.22 13.81 13.27 5.44c.82-1.64 1.28-3.49 1.33-5.36-4.85-.03-9.72-.06-14.6-.08zm-152.65-177.6c3.83-.06 7 3.03 7.03 6.89.06 3.85-3.03 7-6.89 7.06l-25.43.31c-3.85.06-7-3.03-7.06-6.89-.03-3.86 3.03-7 6.89-7.06zm136.15-113.07c.06 3.85-3.03 7-6.89 7.06-3.85.06-7-3.03-7.06-6.89l-.34-24.46c-.03-3.86 3.06-7 6.89-7.06 3.86-.03 7.03 3.06 7.06 6.89zm-88.78 30.79c2.81 2.64 2.95 7.03.31 9.84-2.61 2.81-7.03 2.98-9.84.34l-18.22-17.07c-2.81-2.64-2.95-7.03-.31-9.84 2.61-2.81 7.03-2.98 9.84-.34z"></path></svg>