<svg xmlns="http://www.w3.org/2000/svg" xmlns:svg="http://www.w3.org/2000/svg" id="svg107" clip-rule="evenodd" fill-rule="evenodd" height="512" stroke-linejoin="round" stroke-miterlimit="2" viewBox="0 0 64 64" width="512"><path id="path4" d="m6.0004043 33.000184v8.000241c0 4.767804 2.1645913 9.159649 5.8125217 12.612001.401043.379193 1.034379.361406 1.413547-.03962.379168-.401023.362501-1.034089-.03854-1.413282-3.2333455-3.058606-5.1875193-6.933811-5.1875193-11.159102v-8.000241c0-.551406-.4479183-.999323-1.0000037-.999323s-1.0000037.447917-1.0000037.999323z" stroke-width=".918"></path><path id="path8" d="m18.579617 58.136867c.670836.311278 1.361464.599917 2.070841.864301.307293.114809.651044.07196.919795-.114809.269793-.186766.43021-.494001.43021-.821449v-18.000744c0-.417193-.259376-.790726-.650002-.936259-7.862529-2.935712-13.3500493-9.025435-13.3500493-16.127417 0-10.018291 10.8177483-17.9999356 24.0000883-17.9999356 2.716677 0 5.330228.3403841 7.768779.9685991.534377.1374473 1.080212-.1851496 1.217712-.719577.138543-.5344274-.184375-1.080174-.718752-1.2176213-2.595843-.6686406-5.376062-1.0316632-8.267739-1.0316632-14.413595 0-26.0000957 9.045649-26.0000957 20.000198 0 7.676026 5.6406457 14.401241 14.0000517 17.749295v15.83312c-.194793-.08489-.387502-.171405-.579169-.260342-.501043-.232852-1.095837-.01455-1.32813.485917-.232292.50047-.01458 1.095536.48646 1.328387z" stroke-width=".918"></path><path id="path12" d="m50.337026 11.404789c3.516679 3.123288 5.663562 7.166664 5.663562 11.595701 0 7.101982-5.48752 13.191705-13.350049 16.127417-.390626.145533-.650002.519066-.650002.936259v18.000744c0 .327448.160417.634683.43021.821449.268751.186767.612502.229618.919795.114809 8.715657-3.254266 14.650054-10.127439 14.650054-18.000743v-8.000241c0-.551406-.447919-.999323-1.000004-.999323s-1.000004.447917-1.000004.999323v8.000241c0 6.688023-4.866684 12.478596-12.000044 15.58248v-15.83312c8.359406-3.348054 14.000052-10.073269 14.000052-17.749295 0-4.990954-2.372926-9.571183-6.336482-13.0914504-.412501-.3662566-1.044795-.329065-1.411463.084085-.366669.4123424-.329168 1.0454084.08438 1.4116644z" stroke-width=".918"></path><path id="path16" d="m50.696402 29.732262c.940629.876428 1.776048 1.820772 2.489593 2.821712.320834.449533.944795.55464 1.394796.234468.450002-.320171.554169-.945152.234376-1.394685-.789586-1.108472-1.713548-2.154689-2.755218-3.124905-.404168-.375959-1.037504-.354129-1.413547.05013-.376043.403448-.353126 1.037323.05 1.413282z" stroke-width=".918"></path><path id="path20" d="m10.815005 32.553974c.713545-1.00094 1.548964-1.945284 2.489593-2.821712.403126-.375959.426043-1.009834.05-1.413282-.376043-.404257-1.009379-.426087-1.413547-.05013-1.04167.970216-1.9656321 2.016433-2.7552183 3.124905-.3197928.449533-.2156258 1.074514.2343759 1.394685.4500016.320172 1.0739624.215065 1.3947964-.234468z" stroke-width=".918"></path><path id="path24" d="m47.99987 19.000909c0-2.759758-2.240528-5.000815-4.998952-5.000815h-22.001074c-2.758424 0-4.998952 2.241057-4.998952 5.000815v9.999732c0 2.759758 2.240528 4.999865 4.998952 4.999865h6.000006c.265263 0 .519474-.10545.707369-.292601l4.293162-4.293063s4.293162 4.293063 4.293162 4.293063c.187895.187151.442106.292601.707369.292601h6.000006c2.758424 0 4.998952-2.240107 4.998952-4.999865zm-1.998949 0v9.999732c0 1.655855-1.345265 3.000109-3.000003 3.000109h-5.586321s-4.706847-4.707265-4.706847-4.707265c-.39-.390451-1.024738-.390451-1.414738 0l-4.706847 4.707265h-5.586321c-1.654738 0-3.000003-1.344254-3.000003-3.000109v-9.999732c0-1.655855 1.345265-3.000109 3.000003-3.000109h22.001074c1.654738 0 3.000003 1.344254 3.000003 3.000109z" stroke-width="1.225"></path><path id="path28" d="m47.808264 28.606889 3.899385-3.899212c.18758-.187601.293054-.442001.293054-.707202v-6.000019c0-.552402-.447791-1.000003-1.00011-1.000003h-4.000122c-.551687 0-.999794.448001-.999794 1.000003s.448107 1.000003.999794 1.000003h3.000013v4.585614s-3.606332 3.606812-3.606332 3.606812c-.390317.390001-.390317 1.024003 0 1.414004.390318.390401 1.023794.390401 1.414112 0z" stroke-width=".355"></path><path id="path32" d="m58.001134 35.000546v-12.00004h-2.000855v12.00004z" stroke-width=".944"></path><path id="path36" d="m8.0009778 35.000546v-12.00004h-2.0008552v12.00004z" stroke-width=".944"></path><path id="path40" d="m17.00059 17.000453h-4.000123c-.552318 0-1.000109.447601-1.000109 1.000003v6.000019c0 .265201.105474.519601.293054.707202l3.848858 3.848812c.390318.390401 1.02411.390401 1.414428 0 .390317-.390001.390317-1.023603 0-1.414004l-3.556121-3.556412v-4.585614h3.000013c.551687 0 .999794-.448001.999794-1.000003s-.448107-1.000003-.999794-1.000003z" stroke-width=".355"></path><path id="path44" d="m23.000563 22.000464h18.000069c.552217 0 1.00029-.448001 1.00029-1.000003 0-.552001-.448073-1.000003-1.00029-1.000003h-18.000069c-.552216 0-1.000289.448002-1.000289 1.000003 0 .552002.448073 1.000003 1.000289 1.000003z" stroke-width=".802"></path><path id="path48" d="m30.999966 37.000563v20.000067c0 .552145.448001 1.000004 1.000003 1.000004.552001 0 1.000003-.447859 1.000003-1.000004v-20.000067c0-.552144-.448002-1.000003-1.000003-1.000003-.552002 0-1.000003.447859-1.000003 1.000003z" stroke-width=".845"></path><path id="path52" d="m61.000118 2.0004156h-13.000043c-.265001 0-.519287.1050003-.707145.2930009l-6.00002 6.0000186c-.390001.3900012-.390001 1.0240032 0 1.4140044.390001.3900015 1.024289.3900015 1.41429 0l5.707162-5.7070177h12.585756c.552145 0 1.000004-.4480014 1.000004-1.0000031s-.447859-1.0000031-1.000004-1.0000031z" stroke-width=".845"></path><path id="path56" d="m3.0004055 61.001114h8.0000265c.265001 0 .519288-.105.707145-.293001l6.000021-6.000018c.390001-.390001.390001-1.024003 0-1.414004-.390002-.390002-1.02429-.390002-1.414291 0l-5.707162 5.707017h-7.5857395c-.5521447 0-1.0000033.448002-1.0000033 1.000003 0 .552002.4478586 1.000003 1.0000033 1.000003z" stroke-width=".845"></path><path id="path60" d="m57.000519 6.0004256h-8.000021c-.552002 0-1.000003.4480014-1.000003 1.0000031s.448001 1.0000031 1.000003 1.0000031h8.000021c.552001 0 1.000002-.4480014 1.000002-1.0000031s-.448001-1.0000031-1.000002-1.0000031z" stroke-width=".535"></path><path id="path64" d="m7.0003209 57.001104h2.9999971c.551874 0 .999998-.448001.999998-1.000003 0-.552001-.448124-1.000003-.999998-1.000003h-2.9999971c-.5518744 0-.9999989.448002-.9999989 1.000003 0 .552002.4481245 1.000003.9999989 1.000003z" stroke-width=".354"></path><path id="path68" d="m34.999986 37.000563v8.000027c0 .21643.07.427145.2.600002l2.800009 3.733584v5.666448c0 .552144.448001 1.000003 1.000003 1.000003s1.000003-.447859 1.000003-1.000003v-6.00002c0-.21643-.07-.427145-.200001-.600002l-2.800008-3.733584v-7.666455c0-.552144-.448002-1.000003-1.000003-1.000003-.552002 0-1.000003.447859-1.000003 1.000003z" stroke-width=".845"></path><path id="path72" d="m27.001008 37.000563v7.666455s-2.800008 3.733584-2.800008 3.733584c-.130001.172857-.200001.383572-.200001.600002v6.00002c0 .552144.448001 1.000003 1.000003 1.000003s1.000003-.447859 1.000003-1.000003v-5.666448s2.800009-3.733584 2.800009-3.733584c.13-.172857.2-.383572.2-.600002v-8.000027c0-.552144-.448001-1.000003-1.000003-1.000003-.552001 0-1.000003.447859-1.000003 1.000003z" stroke-width=".845"></path><path id="path76" d="m32.0005 56.000623c-1.655755 0-3.000009 1.344258-3.000009 3.000008 0 1.655749 1.344254 3.000008 3.000009 3.000008s3.000009-1.344259 3.000009-3.000008c0-1.65575-1.344254-3.000008-3.000009-3.000008zm0 2.000005c.551918 0 1.000003.448086 1.000003 1.000003 0 .551916-.448085 1.000002-1.000003 1.000002s-1.000003-.448086-1.000003-1.000002c0-.551917.448085-1.000003 1.000003-1.000003z" stroke-width=".084"></path><g stroke-width=".5"><circle id="circle80" cx="39.001" cy="59.001" r="1"></circle><circle id="circle84" cx="61.001" cy="7" r="1"></circle><circle id="circle88" cx="-25" cy="59.001" r="1" transform="scale(-1 1)"></circle><circle id="circle92" cx="-3" cy="-56.001" r="1" transform="scale(-1)"></circle><circle id="circle96" cx="43.001" cy="29" r="1"></circle><circle id="circle100" cx="39.001" cy="29" r="1"></circle></g></svg>