<svg xmlns="http://www.w3.org/2000/svg" viewBox="0 0 48 48"><g id="line"><path d="m28.68 35.78 8.8 8.27a1.93 1.93 0 0 0 1.31.51 1.91 1.91 0 0 0 1.38-.56l4.52-4.81a1.91 1.91 0 0 0 -.09-2.69l-8.8-8.3a1.83 1.83 0 0 0 -1.36-.51 1.88 1.88 0 0 0 -1.27.54l-2.46-2.29a14.9 14.9 0 0 0 2-6.78h4.33a3.2 3.2 0 1 0 0-1.5h-4.32a14.93 14.93 0 0 0 -3.93-9.37l2.52-2.49 5.69 1.85a3.17 3.17 0 1 0 .23-1.5l-5.89-1.92a.79.79 0 0 0 -.76.18l-2.86 2.83a15 15 0 0 0 -21.14 21.08l-2.58 3.14a.74.74 0 0 0 -.11.77l2.41 5.69a3.2 3.2 0 0 0 1.5 6h.28a3.1 3.1 0 0 0 2.17-1.13 3.18 3.18 0 0 0 .75-2.33 3.22 3.22 0 0 0 -1.13-2.17 3.18 3.18 0 0 0 -2.08-.73l-2.34-5.5 2.18-2.66a15 15 0 0 0 9.4 4v4.32a3.2 3.2 0 1 0 1.5 0v-4.37a14.75 14.75 0 0 0 7.56-2.51l2.46 2.31a1.88 1.88 0 0 0 -.47 1.3 1.92 1.92 0 0 0 .6 1.33zm11.48-30.08a1.7 1.7 0 1 1 -1.7 1.69 1.7 1.7 0 0 1 1.7-1.69zm-30.69 34.89a1.66 1.66 0 0 1 -.39 1.24 1.67 1.67 0 0 1 -1.15.6 1.7 1.7 0 1 1 -.29-3.38h.15a1.7 1.7 0 0 1 1.68 1.55zm25-11.4a.35.35 0 0 1 .27.11l8.81 8.26a.44.44 0 0 1 .12.28.36.36 0 0 1 -.11.29l-4.51 4.81a.41.41 0 0 1 -.57 0l-8.8-8.27a.4.4 0 0 1 0-.57l.45-.48 3.59-3.83.46-.49a.39.39 0 0 1 .3-.11zm5.68-12.48a1.7 1.7 0 1 1 -1.7 1.7 1.7 1.7 0 0 1 1.71-1.7zm-8.94.95h-2.8v-.39a1.75 1.75 0 0 0 -1.41-1.72l-1.11-.2a.31.31 0 0 1 -.21-.18.31.31 0 0 1 0-.28l.65-.94a1.75 1.75 0 0 0 -.19-2.24l-.38-.37 2-2a13.44 13.44 0 0 1 3.46 8.32zm-6.67 5.34.54.79a.26.26 0 0 1 0 .31l-1.62 1.61a.23.23 0 0 1 -.32 0l-.64-.43a1.74 1.74 0 0 0 -1.78-.15l-.13.07-.14.06a1.75 1.75 0 0 0 -1.12 1.31l-.15.8a.23.23 0 0 1 -.23.19h-2.32a.24.24 0 0 1 -.24-.2l-.15-.78a1.73 1.73 0 0 0 -1.11-1.32l-.13-.07-.15-.06a1.72 1.72 0 0 0 -1.74.12l-.68.46a.24.24 0 0 1 -.31 0l-1.62-1.64a.26.26 0 0 1 0-.32l.5-.75a1.8 1.8 0 0 0 .18-1.66l-.09-.21a1.75 1.75 0 0 0 -1.31-1.13l-1-.18a.24.24 0 0 1 -.18-.24v-2.31a.25.25 0 0 1 .22-.27l1.16-.2a1.81 1.81 0 0 0 1.29-1.07c.07-.18.15-.34.23-.5a.74.74 0 0 0 -.05-.77l-1-1.41a.26.26 0 0 1 0-.33l1.6-1.6a.26.26 0 0 1 .33 0l1.62 1.04a.75.75 0 0 0 .74.06 7.76 7.76 0 0 1 .84-.34.77.77 0 0 0 .51-.58l.34-1.83a.25.25 0 0 1 .24-.21h2.29a.23.23 0 0 1 .23.2l.34 1.84a.75.75 0 0 0 .52.58 6.86 6.86 0 0 1 .83.34.72.72 0 0 0 .75-.06l1.52-1.05a.26.26 0 0 1 .32 0l1.62 1.61a.26.26 0 0 1 0 .32l-.65.95a1.78 1.78 0 0 0 -.16 1.71 1.82 1.82 0 0 0 1.31 1.05l1.12.2a.26.26 0 0 1 .21.25v2.28a.25.25 0 0 1 -.2.24l-.94.17a1.75 1.75 0 0 0 -1.34 1.14s-.06.17-.06.19a1.72 1.72 0 0 0 .16 1.78zm-20.24-4.59a13.45 13.45 0 0 1 22.35-10.12l-2 2-.18-.18a1.76 1.76 0 0 0 -2.23-.2l-1.17.82-.2-.09-.26-1.4a1.73 1.73 0 0 0 -1.71-1.44h-2.27a1.76 1.76 0 0 0 -1.72 1.43l-.26 1.42-.18.07-1.19-.81a1.77 1.77 0 0 0 -2.23.2l-1.62 1.57a1.76 1.76 0 0 0 -.19 2.23l.76 1.09-.09.19a.27.27 0 0 1 -.18.17l-1.15.21a1.75 1.75 0 0 0 -1.42 1.72v2.28a1.71 1.71 0 0 0 1.42 1.71l1 .19a.24.24 0 0 1 .17.17v.1.12a.34.34 0 0 1 0 .28l-.55.78a1.76 1.76 0 0 0 .13 2.08l-1.79 2.15a13.36 13.36 0 0 1 -3.24-8.74zm4.29 9.83 1.79-2.16.68.67a1.75 1.75 0 0 0 2.21.2l.68-.46c.09-.06.18 0 .3 0l.15.06.21.08a.28.28 0 0 1 .16.18l.14.8a1.76 1.76 0 0 0 1.72 1.42h.37v2.8a13.48 13.48 0 0 1 -8.41-3.59zm10.91 12.52a1.7 1.7 0 1 1 -1.75-1.69h.07a1.7 1.7 0 0 1 1.68 1.69zm-1-11.71h.39a1.73 1.73 0 0 0 1.71-1.43l.14-.78c0-.12.13-.17.25-.22l.13-.06.19-.08a.27.27 0 0 1 .26 0l.65.45a1.73 1.73 0 0 0 2.24-.2l1.62-1.61a1.75 1.75 0 0 0 .2-2.23l-.54-.79c-.06-.09 0-.2 0-.33a.87.87 0 0 0 .06-.16.29.29 0 0 1 .2-.19l.92-.16a1.74 1.74 0 0 0 1.45-1.72v-.39h2.81a13.41 13.41 0 0 1 -2.1 6.51 13 13 0 0 1 -3.4 3.61 13.28 13.28 0 0 1 -7.2 2.57zm8.94.76a16.31 16.31 0 0 0 1.22-1.14 14.26 14.26 0 0 0 1.06-1.27l.12-.15 2.25 2.1-2.57 2.73-2.24-2.11z"></path><path d="m16.92 15.34a.5.5 0 0 0 -.47-.32h-.45a.5.5 0 0 0 -.47.32l-2.22 5.92a.5.5 0 0 0 .05.46.53.53 0 0 0 .42.21h.42a.51.51 0 0 0 .47-.32l.45-1.23h2.18l.45 1.23a.51.51 0 0 0 .47.32h.43a.52.52 0 0 0 .41-.21.5.5 0 0 0 .05-.46zm-1.28 3.71.59-1.59.6 1.59z"></path><rect height="7.05" rx=".5" width="1.39" x="20.86" y="14.88"></rect></g></svg>