<svg xmlns="http://www.w3.org/2000/svg" fill="none" height="24" viewBox="0 0 24 24" width="24"><g clip-rule="evenodd" fill="#000" fill-rule="evenodd"><path d="m9.5 2c0-.27614.22386-.5.5-.5h4c.2761 0 .5.22386.5.5v1.87374c.5153.15835 1.0097.36433 1.478.61275l1.3253-1.32532c.1953-.19527.5118-.19527.7071 0l2.8284 2.82842c.0938.09377.1465.22095.1465.35356 0 .1326-.0527.25978-.1465.35355l-1.3253 1.32532c.2484.4683.4544.96268.6128 1.47798h1.8737c.2761 0 .5.22386.5.5v4c0 .2761-.2239.5-.5.5h-1.8737c-.1584.5153-.3644 1.0097-.6128 1.478l1.3253 1.3253c.0938.0938.1465.2209.1465.3536 0 .1326-.0527.2597-.1465.3535l-2.8284 2.8284c-.1953.1953-.5118.1953-.7071 0l-1.3253-1.3253c-.4683.2484-.9627.4544-1.478.6128v1.8737c0 .2761-.2239.5-.5.5h-4c-.27614 0-.5-.2239-.5-.5v-1.8737c-.5153-.1584-1.00968-.3644-1.47798-.6128l-1.32532 1.3253c-.19526.1953-.51185.1953-.70711 0l-2.82842-2.8284c-.19527-.1953-.19527-.5118 0-.7071l1.32532-1.3253c-.24842-.4683-.4544-.9627-.61275-1.478h-1.87374c-.27614 0-.5-.2239-.5-.5v-4c0-.27614.22386-.5.5-.5h1.87374c.15835-.5153.36433-1.00968.61275-1.47798l-1.32532-1.32532c-.09377-.09377-.14645-.22095-.14645-.35355 0-.13261.05268-.25979.14645-.35356l2.82842-2.82842c.19526-.19527.51185-.19527.70711 0l1.32532 1.32532c.4683-.24842.96268-.4544 1.47798-.61275zm1 .5v1.75203c0 .22815-.1544.42736-.3754.48422-.68772.17702-1.33739.44921-1.93417.80185-.19645.11609-.44657.08444-.60792-.07691l-1.23936-1.23936-2.12132 2.12132 1.23936 1.23936c.16135.16135.193.41147.07691.60792-.35264.59678-.62483 1.24645-.80185 1.93417-.05686.221-.25607.3754-.48422.3754h-1.75203v3h1.75203c.22815 0 .42736.1544.48422.3754.17702.6877.44921 1.3374.80185 1.9342.11609.1964.08444.4465-.07691.6079l-1.23936 1.2394 2.12132 2.1213 1.23936-1.2394c.16135-.1613.41147-.193.60792-.0769.59678.3526 1.24645.6248 1.93417.8018.221.0569.3754.2561.3754.4843v1.752h3v-1.752c0-.2282.1544-.4274.3754-.4843.6877-.177 1.3374-.4492 1.9342-.8018.1964-.1161.4465-.0844.6079.0769l1.2394 1.2394 2.1213-2.1213-1.2394-1.2394c-.1613-.1614-.193-.4115-.0769-.6079.3526-.5968.6248-1.2465.8018-1.9342.0569-.221.2561-.3754.4843-.3754h1.752v-3h-1.752c-.2282 0-.4274-.1544-.4843-.3754-.177-.68772-.4492-1.33739-.8018-1.93417-.1161-.19645-.0844-.44657.0769-.60792l1.2394-1.23936-2.1213-2.12132-1.2394 1.23936c-.1614.16135-.4115.19299-.6079.07691-.5968-.35264-1.2465-.62483-1.9342-.80185-.221-.05686-.3754-.25607-.3754-.48422v-1.75203z"></path><path d="m10.6911 8.53805c.1868.07739.3087.25971.3087.46195v6h-1.00004v-4.7928l-1.64613 1.6463-.70715-.707 2.49972-2.50003c.143-.14301.358-.1858.5449-.10842z"></path><path d="m13.3086 15.4619c-.1868-.0774-.3086-.2597-.3086-.4619v-6h1v4.7929l1.6464-1.6465.7071.7072-2.5 2.5c-.143.143-.358.1857-.5449.1083z"></path></g></svg>